{"glyphs":{"0":{"ha":1036,"x_min":69,"x_max":966,"o":"m 966 317 q 934 309 950 317 q 904 288 918 302 q 883 252 891 273 q 875 203 875 231 q 858 129 875 165 q 810 64 841 93 q 737 18 780 35 q 642 0 694 0 l 395 0 q 299 18 342 0 q 226 64 256 35 q 178 129 195 93 q 161 203 161 165 q 153 253 161 231 q 132 288 145 274 q 102 310 119 302 q 69 317 85 317 l 69 328 q 102 335 86 328 q 131 355 118 342 q 151 386 143 368 q 158 424 158 404 l 158 725 q 175 819 158 776 q 223 894 192 863 q 298 943 254 926 q 395 961 342 961 l 642 961 q 738 943 694 961 q 813 894 782 926 q 861 819 844 863 q 878 725 878 776 l 878 425 q 885 387 878 404 q 906 356 893 369 q 934 335 918 342 q 966 328 950 328 l 966 317 m 637 136 l 637 825 q 615 886 637 865 q 554 907 592 907 l 482 907 q 420 885 442 907 q 399 825 399 863 l 399 136 q 420 77 399 100 q 482 54 441 54 l 554 54 q 616 77 595 54 q 637 136 637 100 z "},"1":{"ha":604,"x_min":0,"x_max":549,"o":"m 549 0 l 131 0 l 131 9 q 164 17 148 9 q 192 37 180 24 q 212 67 205 50 q 220 107 220 85 l 220 633 l 0 633 l 0 646 q 114 697 57 665 q 224 770 171 729 q 326 860 278 811 q 412 961 374 908 l 460 961 l 460 107 q 467 67 460 85 q 487 36 475 49 q 516 16 500 23 q 549 9 532 9 l 549 0 z "},"2":{"ha":907,"x_min":90,"x_max":872,"o":"m 781 -87 q 773 -55 781 -71 q 753 -26 766 -39 q 723 -7 741 -14 q 684 0 705 0 l 90 0 l 90 142 q 110 247 90 199 q 162 335 130 294 q 236 412 195 376 q 320 482 277 448 q 405 550 363 516 q 478 620 446 583 q 530 698 511 657 q 550 789 550 739 l 550 802 q 542 848 550 828 q 518 881 533 867 q 484 900 504 894 q 443 907 465 907 l 412 907 q 330 886 371 907 q 253 833 288 866 q 192 759 218 801 q 155 675 166 718 l 144 675 l 144 1048 l 154 1048 q 161 1016 154 1031 q 181 987 168 1000 q 213 968 195 975 q 252 961 231 961 l 547 961 q 643 943 600 961 q 717 897 686 926 q 764 832 747 868 q 781 758 781 795 q 789 710 781 731 q 810 674 797 689 q 839 652 823 660 q 872 644 856 644 l 872 633 q 673 613 758 631 q 528 563 588 594 q 429 489 467 531 q 368 398 390 446 q 337 296 346 349 q 329 191 329 243 l 329 54 l 441 54 q 520 69 481 54 q 592 110 558 84 q 657 169 627 135 q 711 241 687 203 q 752 321 735 280 q 779 401 770 362 l 790 401 l 790 -87 l 781 -87 z "},"3":{"ha":904,"x_min":83,"x_max":869,"o":"m 869 317 q 838 310 854 317 q 808 288 821 302 q 786 253 795 274 q 778 203 778 231 q 761 130 778 166 q 713 65 744 94 q 640 18 683 36 q 546 0 597 0 l 191 0 q 152 -7 170 0 q 120 -26 134 -14 q 100 -55 107 -39 q 93 -87 93 -71 l 83 -87 l 83 401 l 94 401 q 121 321 104 362 q 163 241 139 280 q 217 169 187 203 q 281 110 247 135 q 354 69 315 84 q 432 54 392 54 l 440 54 q 480 60 461 54 q 515 79 500 66 q 538 112 530 92 q 547 160 547 132 l 547 167 q 534 255 547 212 q 500 338 521 298 q 452 411 479 377 q 400 472 426 446 l 400 484 q 506 637 467 561 q 545 789 545 713 l 545 802 q 536 848 545 828 q 513 881 528 867 q 479 900 498 894 q 437 907 459 907 l 407 907 q 324 886 366 907 q 248 833 283 866 q 186 759 212 801 q 150 675 161 718 l 139 675 l 139 1048 l 149 1048 q 156 1016 149 1031 q 176 987 163 1000 q 207 968 189 975 q 245 961 224 961 l 542 961 q 638 943 595 961 q 711 897 681 926 q 759 832 742 868 q 775 758 775 795 q 783 711 775 732 q 804 675 791 690 q 833 652 817 660 q 867 644 850 644 l 867 633 q 730 615 791 631 q 620 577 669 600 q 533 531 570 555 q 471 485 496 506 q 544 430 501 458 q 637 380 586 403 q 747 343 688 358 q 869 328 806 329 l 869 317 z "},"4":{"ha":836,"x_min":0,"x_max":781,"o":"m 760 0 l 342 0 l 342 9 q 375 17 359 9 q 403 37 391 24 q 423 67 416 50 q 431 107 431 85 l 431 318 l 0 318 l 0 330 q 141 473 77 400 q 261 625 206 547 q 360 786 315 703 q 440 961 404 870 l 671 961 l 671 371 l 781 371 l 781 318 l 671 318 l 671 107 q 678 67 671 85 q 698 37 686 50 q 727 17 711 24 q 760 9 743 9 l 760 0 m 431 371 l 431 793 q 398 729 415 758 q 365 672 382 700 q 334 614 349 644 q 307 550 319 585 q 286 471 294 515 q 275 371 278 428 l 431 371 z "},"5":{"ha":961,"x_min":69,"x_max":843,"o":"m 843 236 q 826 141 843 184 q 778 66 808 98 q 703 18 747 35 q 607 0 660 0 l 248 0 q 209 -7 227 0 q 177 -26 191 -14 q 157 -55 164 -39 q 150 -87 150 -71 l 140 -87 l 140 401 l 151 401 q 216 247 176 313 q 303 139 257 182 q 394 75 349 96 q 473 54 439 54 l 519 54 q 581 76 559 54 q 603 136 603 98 l 603 551 q 581 612 603 590 q 518 633 558 633 l 158 633 l 158 854 q 150 896 158 878 q 130 926 142 913 q 101 945 117 939 q 69 951 85 951 l 69 961 l 660 961 q 699 968 682 961 q 730 987 717 975 q 750 1016 743 1000 q 757 1048 757 1031 l 766 1048 l 766 675 l 755 675 q 719 759 745 718 q 658 833 693 801 q 582 886 623 866 q 498 907 541 907 l 395 907 l 395 688 l 607 688 q 704 670 660 688 q 778 621 747 652 q 826 546 809 589 q 843 452 843 503 l 843 236 z "},"6":{"ha":935,"x_min":132,"x_max":935,"o":"m 612 160 l 612 167 q 600 257 612 216 q 567 334 587 298 q 520 401 547 370 q 468 463 494 433 q 416 523 441 493 q 372 585 391 553 l 372 136 q 394 76 372 98 q 456 54 416 54 l 505 54 q 548 61 528 54 q 582 80 568 67 q 604 113 596 93 q 612 160 612 133 m 935 317 q 904 310 920 317 q 875 289 888 303 q 852 254 861 275 q 843 203 843 233 q 826 130 843 166 q 780 65 810 94 q 707 18 749 36 q 611 0 664 0 l 368 0 q 273 17 317 0 q 199 65 230 35 q 150 140 168 96 q 132 236 132 183 l 132 725 q 149 819 132 776 q 197 894 166 863 q 272 943 228 926 q 368 961 315 961 l 685 961 q 724 968 707 961 q 755 987 742 975 q 775 1016 768 1000 q 782 1048 782 1031 l 791 1048 l 791 675 l 781 675 q 744 759 770 718 q 683 833 718 801 q 607 886 648 866 q 524 907 566 907 l 481 907 q 438 900 458 907 q 403 881 418 894 q 380 847 389 867 q 372 800 372 827 l 372 789 q 394 678 372 733 q 453 572 415 623 q 544 478 491 522 q 659 401 596 434 q 791 349 721 368 q 935 328 861 330 l 935 317 z "},"7":{"ha":715,"x_min":56,"x_max":701,"o":"m 551 0 l 134 0 l 134 9 q 166 17 151 9 q 195 37 182 24 q 215 67 208 50 q 222 107 222 85 l 222 179 q 252 410 222 302 q 332 608 282 517 q 448 774 382 699 q 586 907 514 848 l 323 907 q 241 886 282 907 q 164 833 199 866 q 103 759 129 801 q 66 675 77 718 l 56 675 l 56 1048 l 65 1048 q 72 1016 65 1031 q 93 987 79 1000 q 124 968 106 975 q 163 961 142 961 l 701 961 l 701 949 q 600 842 644 900 q 525 708 555 783 q 478 538 494 633 q 463 319 463 442 l 463 107 q 470 67 463 85 q 491 36 478 49 q 519 16 503 23 q 551 9 535 9 l 551 0 z "},"8":{"ha":929,"x_min":111,"x_max":818,"o":"m 818 236 q 801 143 818 186 q 754 68 785 100 q 680 18 724 37 q 582 0 636 0 l 347 0 q 249 18 293 0 q 175 68 205 37 q 128 143 144 100 q 111 236 111 186 l 111 326 q 205 348 162 334 q 287 381 249 361 q 358 424 324 400 q 422 475 391 448 q 350 537 385 509 q 279 586 315 566 q 203 619 243 607 q 118 633 164 631 l 118 725 q 136 821 118 777 q 184 895 153 864 q 259 944 216 926 q 353 961 302 961 l 575 961 q 670 944 627 961 q 745 896 713 926 q 793 821 776 865 q 811 725 811 778 l 811 633 q 730 621 768 631 q 657 590 692 610 q 585 542 621 570 q 507 475 549 513 q 661 372 584 407 q 818 326 737 338 l 818 236 m 579 612 l 579 825 q 557 885 579 863 q 496 907 536 907 l 433 907 q 372 885 393 907 q 350 825 350 863 l 350 612 q 409 565 382 589 q 464 514 437 540 q 526 569 500 546 q 579 612 552 593 m 585 136 l 585 350 q 524 391 555 368 q 464 439 493 414 q 437 416 452 428 q 407 392 423 404 q 375 370 391 380 q 345 350 359 359 l 345 136 q 366 77 345 100 q 428 54 387 54 l 501 54 q 563 76 541 54 q 585 136 585 98 z "},"9":{"ha":970,"x_min":35,"x_max":838,"o":"m 597 376 l 597 825 q 576 885 597 863 q 514 907 554 907 l 464 907 q 421 900 441 907 q 387 881 401 894 q 365 848 373 868 q 357 802 357 829 l 357 794 q 369 704 357 745 q 402 627 382 663 q 449 560 423 591 q 502 498 475 528 q 553 438 528 468 q 597 376 578 409 m 838 236 q 821 142 838 185 q 773 67 804 98 q 698 18 742 35 q 602 0 654 0 l 222 0 q 183 -7 201 0 q 152 -26 165 -14 q 132 -55 139 -39 q 125 -87 125 -71 l 115 -87 l 115 401 l 126 401 q 192 247 151 313 q 278 139 233 182 q 370 75 324 96 q 449 54 415 54 l 489 54 q 532 61 512 54 q 566 80 551 67 q 589 114 581 94 q 597 161 597 134 l 597 172 q 576 283 597 228 q 517 389 555 338 q 426 484 479 440 q 311 560 373 528 q 178 612 248 593 q 35 633 108 632 l 35 644 q 65 651 49 644 q 94 672 81 658 q 117 707 108 686 q 126 758 126 728 q 143 831 126 795 q 190 896 159 867 q 263 943 220 925 q 358 961 306 961 l 602 961 q 696 944 653 961 q 771 896 740 926 q 820 821 802 865 q 838 725 838 778 l 838 236 z "}," ":{"ha":486,"x_min":0,"x_max":0,"o":""}," ":{"ha":486,"x_min":0,"x_max":0,"o":""},"−":{"ha":589,"x_min":35,"x_max":554,"o":"m 554 453 l 35 453 l 35 510 l 554 510 l 554 453 z "},"¦":{"ha":129,"x_min":35,"x_max":94,"o":"m 94 568 l 35 568 l 35 1050 l 94 1050 l 94 568 m 94 -87 l 35 -87 l 35 393 l 94 393 l 94 -87 z "},"!":{"ha":555,"x_min":69,"x_max":486,"o":"m 406 131 q 326 82 357 117 q 282 0 294 47 l 273 0 q 228 84 261 50 q 150 131 195 118 l 150 139 q 228 185 195 151 q 273 269 261 219 l 282 269 q 326 187 294 221 q 406 139 357 153 l 406 131 m 397 318 l 158 318 l 158 854 q 150 896 158 878 q 130 926 142 913 q 101 945 117 939 q 69 951 85 951 l 69 961 l 486 961 l 486 951 q 453 945 469 951 q 425 925 437 938 q 405 895 412 913 q 397 854 397 877 l 397 318 z "},"\"":{"ha":578,"x_min":35,"x_max":543,"o":"m 273 825 q 235 791 253 812 q 203 741 217 769 q 179 678 189 712 q 164 606 170 644 l 144 606 q 130 677 140 644 q 106 740 120 711 q 74 790 92 768 q 35 825 56 812 l 35 833 q 108 881 77 847 q 150 961 138 915 l 158 961 q 198 883 170 916 q 273 833 227 849 l 273 825 m 543 825 q 505 791 522 812 q 473 741 487 769 q 449 678 458 712 q 433 606 439 644 l 414 606 q 399 677 409 644 q 375 740 389 711 q 343 790 361 768 q 304 825 326 812 l 304 833 q 377 881 347 847 q 419 961 408 915 l 428 961 q 468 883 439 916 q 543 833 497 849 l 543 825 z "},"#":{"ha":669,"x_min":36,"x_max":633,"o":"m 633 807 l 614 750 l 513 750 l 436 538 l 536 538 l 515 484 l 415 484 l 355 318 l 293 318 l 353 484 l 187 484 l 127 318 l 64 318 l 123 484 l 36 484 l 56 538 l 144 538 l 221 750 l 132 750 l 154 807 l 240 807 l 297 961 l 361 961 l 306 807 l 469 807 l 526 961 l 589 961 l 534 807 l 633 807 m 449 750 l 285 750 l 207 538 l 372 538 l 449 750 z "},"$":{"ha":665,"x_min":56,"x_max":659,"o":"m 659 541 q 639 535 649 541 q 620 519 629 530 q 606 492 611 508 q 600 457 600 477 q 587 405 600 430 q 552 360 574 380 q 498 330 529 341 q 433 318 468 318 l 385 318 l 385 252 l 325 252 l 325 318 l 184 318 q 154 312 168 318 q 131 298 140 307 q 117 279 122 289 q 113 262 113 270 l 103 262 l 103 583 l 113 583 q 152 496 128 534 q 203 433 175 459 q 263 392 232 407 q 325 371 294 376 l 325 625 q 266 667 298 648 q 199 699 233 686 q 128 720 164 713 q 56 728 92 728 l 56 739 q 76 745 66 739 q 95 761 86 751 q 109 787 103 772 q 114 823 114 803 q 127 877 114 852 q 162 921 140 902 q 216 950 185 939 q 282 961 247 961 l 325 961 l 325 1026 l 385 1026 l 385 961 l 484 961 q 514 967 500 961 q 537 981 528 972 q 552 998 547 989 q 557 1015 557 1008 l 567 1015 l 567 750 l 557 750 q 520 815 541 787 q 476 863 499 844 q 430 893 453 882 q 385 907 406 904 l 385 642 q 439 606 410 623 q 504 576 469 589 q 576 556 538 563 q 659 549 615 549 l 659 541 m 325 705 l 325 905 q 286 881 298 899 q 273 839 273 862 l 273 835 q 286 772 273 806 q 325 705 299 738 m 439 432 l 439 437 q 425 499 439 467 q 385 564 410 531 l 385 371 q 427 395 415 376 q 439 432 439 413 z "},"%":{"ha":1435,"x_min":35,"x_max":1400,"o":"m 653 633 q 635 629 645 633 q 616 617 625 625 q 602 595 608 608 q 596 562 596 581 l 596 485 q 584 420 596 450 q 551 367 572 389 q 498 331 529 344 q 431 318 468 318 l 257 318 q 190 331 220 318 q 138 366 160 343 q 104 418 116 388 q 92 485 92 449 l 92 562 q 85 595 92 582 q 71 617 79 608 q 53 630 62 626 q 35 633 43 633 l 35 644 q 53 648 43 644 q 71 661 62 652 q 85 683 79 669 q 92 715 92 696 l 92 796 q 102 856 92 827 q 134 909 113 886 q 185 947 155 932 q 257 961 216 961 l 431 961 q 502 947 471 961 q 554 909 533 932 q 586 856 575 886 q 596 796 596 827 l 596 715 q 602 683 596 696 q 617 661 608 669 q 635 648 625 652 q 653 644 645 644 l 653 633 m 921 961 l 574 0 l 509 0 l 859 961 l 921 961 m 428 437 l 428 842 q 413 890 428 872 q 368 908 399 908 l 319 908 q 274 890 289 908 q 260 842 260 872 l 260 437 q 275 389 260 407 q 319 371 291 371 l 368 371 q 412 389 397 371 q 428 437 428 407 m 1400 315 q 1382 311 1392 315 q 1363 299 1372 307 q 1349 277 1354 290 q 1343 244 1343 263 l 1343 167 q 1331 102 1343 132 q 1298 48 1319 71 q 1246 13 1276 26 q 1178 0 1215 0 l 1004 0 q 937 13 968 0 q 885 47 907 25 q 851 100 863 70 q 839 167 839 131 l 839 244 q 833 277 839 264 q 818 299 827 290 q 800 312 810 308 q 782 315 790 315 l 782 326 q 800 330 790 326 q 818 342 810 334 q 833 365 827 351 q 839 397 839 378 l 839 478 q 849 538 839 509 q 881 591 860 568 q 933 629 902 614 q 1004 643 964 643 l 1178 643 q 1249 629 1219 643 q 1301 591 1280 614 q 1332 538 1322 568 q 1343 478 1343 509 l 1343 397 q 1349 365 1343 378 q 1364 342 1355 351 q 1382 330 1373 334 q 1400 326 1392 326 l 1400 315 m 1175 119 l 1175 524 q 1161 572 1175 554 q 1116 590 1146 590 l 1067 590 q 1022 572 1036 590 q 1007 524 1007 554 l 1007 119 q 1023 71 1007 89 q 1067 53 1038 53 l 1116 53 q 1160 71 1144 53 q 1175 119 1175 89 z "},"&":{"ha":1105,"x_min":49,"x_max":1105,"o":"m 1105 318 q 1026 269 1057 304 q 982 187 995 234 l 974 187 q 956 230 968 210 q 929 265 944 250 q 897 288 914 279 q 863 296 880 296 l 852 296 l 852 107 q 860 67 852 85 q 881 36 868 49 q 909 16 893 23 q 942 9 925 9 l 942 0 l 372 0 q 278 18 321 0 q 205 65 235 36 q 157 130 174 94 q 140 203 140 166 q 132 253 140 231 q 110 288 123 274 q 81 310 97 302 q 49 317 64 317 l 49 328 q 172 343 113 329 q 282 380 231 358 q 375 430 333 403 q 447 485 416 458 q 385 531 422 506 q 299 577 348 555 q 188 615 250 600 q 52 633 127 631 l 52 644 q 85 652 68 644 q 115 675 102 660 q 135 711 127 690 q 143 758 143 732 q 160 832 143 795 q 207 897 176 868 q 280 943 237 926 q 376 961 323 961 l 672 961 q 711 968 694 961 q 742 987 729 975 q 763 1016 755 1000 q 770 1048 770 1031 l 779 1048 l 779 675 l 768 675 q 732 759 758 718 q 671 833 706 801 q 594 886 635 866 q 511 907 553 907 l 481 907 q 439 900 459 907 q 405 881 420 894 q 382 848 391 867 q 374 802 374 828 l 374 789 q 412 637 374 713 q 518 484 451 561 l 518 472 q 466 411 492 446 q 418 338 439 377 q 384 255 397 298 q 371 167 371 212 l 371 160 q 380 112 371 132 q 404 79 389 92 q 438 60 418 66 q 478 54 457 54 l 532 54 q 593 76 572 54 q 615 136 615 98 l 615 457 l 852 457 l 852 349 l 863 349 q 898 357 880 349 q 929 380 915 366 q 956 415 944 395 q 974 457 968 435 l 982 457 q 1027 373 996 406 q 1105 326 1059 339 l 1105 318 z "},"'":{"ha":309,"x_min":35,"x_max":273,"o":"m 273 825 q 235 791 253 812 q 203 741 217 769 q 179 678 189 712 q 164 606 170 644 l 144 606 q 130 677 140 644 q 106 740 120 711 q 74 790 92 768 q 35 825 56 812 l 35 833 q 108 881 77 847 q 150 961 138 915 l 158 961 q 198 883 170 916 q 273 833 227 849 l 273 825 z "},"(":{"ha":492,"x_min":35,"x_max":457,"o":"m 457 -87 l 317 -87 q 237 -74 273 -87 q 176 -36 201 -61 q 137 26 151 -11 q 123 110 123 63 l 123 536 q 116 575 123 557 q 95 606 108 593 q 67 626 83 619 q 35 633 51 633 l 35 644 q 67 651 51 644 q 95 671 83 659 q 116 702 108 684 q 123 741 123 720 l 123 852 q 137 936 123 899 q 175 998 151 972 q 236 1037 200 1023 q 317 1050 272 1050 l 457 1050 l 457 996 l 364 996 q 302 973 324 996 q 279 914 279 951 l 279 49 q 302 -11 279 11 q 364 -33 326 -33 l 457 -33 l 457 -87 z "},"*":{"ha":644,"x_min":41,"x_max":603,"o":"m 602 484 l 597 475 q 530 474 562 484 q 475 440 498 464 l 465 444 q 471 460 469 453 q 472 472 472 467 q 455 516 472 498 q 415 533 439 533 q 394 529 404 533 q 376 517 384 524 q 364 499 369 509 q 359 478 359 490 q 375 439 359 454 q 418 416 391 424 l 418 410 q 360 377 385 400 q 326 319 336 354 l 318 319 q 283 378 308 355 q 227 410 259 400 l 227 416 q 269 439 254 424 q 285 478 285 454 q 280 499 285 489 q 269 516 276 509 q 251 529 261 524 q 229 533 241 533 q 189 516 205 533 q 172 472 172 498 q 175 457 172 465 q 179 444 177 449 l 170 440 q 113 474 146 465 q 47 475 81 484 l 43 484 q 76 543 68 509 q 74 608 83 576 l 82 612 q 111 591 97 597 q 136 585 125 585 q 159 589 149 585 q 176 601 169 593 q 188 619 184 609 q 192 639 192 629 q 175 679 192 664 q 135 694 158 694 q 109 689 123 694 q 81 668 94 683 l 74 672 q 75 738 82 706 q 41 796 68 770 l 47 806 q 114 806 81 796 q 171 840 147 815 l 180 835 q 174 822 176 829 q 172 808 172 814 q 189 764 172 780 q 229 749 206 749 q 268 763 251 749 q 285 802 285 778 q 269 842 285 827 q 227 863 252 857 l 227 872 q 283 903 259 881 q 318 962 308 926 l 326 962 q 360 904 336 928 q 418 872 385 881 l 418 863 q 376 842 392 857 q 359 802 359 827 q 375 765 359 781 q 415 749 390 749 q 455 764 438 749 q 472 808 472 780 q 470 821 472 814 q 464 835 468 829 l 473 840 q 528 806 497 817 q 597 806 559 796 l 603 796 q 570 738 577 770 q 571 672 562 705 l 564 668 q 536 689 550 683 q 510 694 522 694 q 470 679 487 694 q 453 639 453 664 q 469 601 453 618 q 509 585 484 585 q 534 591 519 585 q 562 612 549 597 l 571 608 q 570 541 562 574 q 602 484 578 507 z "},"+":{"ha":589,"x_min":35,"x_max":554,"o":"m 554 453 l 323 453 l 323 222 l 265 222 l 265 453 l 35 453 l 35 510 l 265 510 l 265 742 l 323 742 l 323 510 l 554 510 l 554 453 z "},"-":{"ha":575,"x_min":35,"x_max":541,"o":"m 541 476 q 472 438 500 465 q 428 376 444 412 l 147 376 q 104 438 132 411 q 35 476 77 465 l 35 485 q 104 523 77 496 q 147 585 132 550 l 428 585 q 471 523 444 550 q 541 485 498 496 l 541 476 z "},"/":{"ha":547,"x_min":35,"x_max":513,"o":"m 513 1050 l 100 -87 l 35 -87 l 449 1050 l 513 1050 z "},":":{"ha":325,"x_min":35,"x_max":290,"o":"m 290 131 q 210 82 242 117 q 167 0 178 47 l 158 0 q 113 84 146 50 q 35 131 79 118 l 35 139 q 113 185 79 151 q 158 269 146 219 l 167 269 q 211 187 179 221 q 290 139 242 153 l 290 131 m 290 478 q 210 429 242 465 q 167 347 178 394 l 158 347 q 113 431 146 397 q 35 478 79 465 l 35 486 q 113 532 79 498 q 158 616 146 566 l 167 616 q 211 534 179 568 q 290 486 242 500 l 290 478 z "},";":{"ha":325,"x_min":35,"x_max":290,"o":"m 290 478 q 210 429 242 465 q 167 347 178 394 l 158 347 q 113 431 146 397 q 35 478 79 465 l 35 486 q 113 532 79 498 q 158 616 146 566 l 167 616 q 211 534 179 568 q 290 486 242 500 l 290 478 m 285 132 q 194 48 235 102 q 126 -87 154 -5 l 111 -87 q 105 -1 110 -37 q 92 59 100 34 q 73 100 84 83 q 47 132 62 117 l 47 140 q 82 160 65 149 q 114 188 100 172 q 140 224 129 204 q 158 269 152 245 l 167 269 q 210 188 180 220 q 285 140 240 155 l 285 132 z "},"=":{"ha":589,"x_min":35,"x_max":554,"o":"m 554 386 l 35 386 l 35 443 l 554 443 l 554 386 m 554 519 l 35 519 l 35 576 l 554 576 l 554 519 z "},"?":{"ha":793,"x_min":77,"x_max":793,"o":"m 793 633 q 632 619 702 633 q 509 583 562 606 q 420 531 457 561 q 360 466 384 501 q 322 394 336 431 q 301 318 308 356 l 245 318 q 274 424 254 376 q 319 512 294 472 q 371 587 344 552 q 420 654 397 621 q 456 720 442 687 q 471 789 471 752 l 471 802 q 462 848 471 828 q 439 881 454 867 q 405 900 425 894 q 364 907 386 907 l 345 907 q 262 886 303 907 q 185 833 220 866 q 124 759 150 801 q 87 675 98 718 l 77 675 l 77 1048 l 86 1048 q 93 1016 86 1031 q 113 987 100 1000 q 144 968 126 975 q 183 961 162 961 l 468 961 q 564 943 521 961 q 637 897 607 926 q 685 832 668 868 q 701 758 701 795 q 709 710 701 731 q 730 674 718 689 q 760 652 743 660 q 793 644 777 644 l 793 633 m 400 131 q 320 82 352 117 q 277 0 288 47 l 268 0 q 222 84 256 50 q 144 131 189 118 l 144 139 q 222 185 189 151 q 268 269 256 219 l 277 269 q 320 187 289 221 q 400 139 352 153 l 400 131 z "},"A":{"ha":1036,"x_min":69,"x_max":966,"o":"m 966 0 l 549 0 l 549 9 q 582 17 566 9 q 610 37 598 24 q 630 67 623 50 q 637 107 637 85 l 637 296 l 633 296 q 599 288 616 296 q 567 265 582 279 q 540 230 552 250 q 522 187 528 210 l 514 187 q 495 232 507 212 q 468 266 483 252 q 436 288 453 280 q 403 296 419 296 l 399 296 l 399 107 q 406 67 399 85 q 426 37 414 50 q 454 17 438 24 q 488 9 471 9 l 488 0 l 69 0 l 69 9 q 103 17 87 9 q 131 37 119 24 q 151 67 143 50 q 158 107 158 85 l 158 221 q 151 259 158 241 q 131 289 143 277 q 102 309 118 302 q 69 317 86 317 l 69 328 q 102 335 86 328 q 131 355 118 342 q 151 386 143 368 q 158 424 158 404 l 158 725 q 175 819 158 776 q 223 893 192 862 q 297 943 254 925 q 395 961 341 961 l 642 961 q 739 943 695 961 q 813 893 783 925 q 861 819 844 862 q 878 725 878 776 l 878 424 q 885 386 878 404 q 906 355 893 368 q 934 335 918 342 q 966 328 950 328 l 966 317 q 934 309 950 317 q 906 289 918 302 q 885 259 893 277 q 878 221 878 241 l 878 107 q 885 67 878 85 q 905 37 892 50 q 933 17 918 24 q 966 9 949 9 l 966 0 m 637 349 l 637 825 q 615 885 637 864 q 554 907 593 907 l 482 907 q 421 885 444 907 q 399 825 399 864 l 399 349 l 403 349 q 437 357 420 349 q 469 379 454 365 q 495 414 484 394 q 514 457 507 434 l 522 457 q 541 414 529 434 q 567 379 553 394 q 599 357 582 365 q 633 349 616 349 l 637 349 z "},"B":{"ha":956,"x_min":69,"x_max":872,"o":"m 872 236 q 856 142 872 186 q 808 67 839 99 q 733 18 777 36 q 636 0 690 0 l 69 0 l 69 9 q 103 17 87 9 q 131 37 119 24 q 151 67 143 50 q 158 107 158 85 l 158 854 q 150 896 158 878 q 130 926 142 913 q 101 945 117 939 q 69 951 85 951 l 69 961 l 614 961 q 709 944 665 961 q 783 896 752 926 q 832 821 814 865 q 850 725 850 778 l 850 633 q 717 608 782 632 q 585 526 652 583 q 647 469 613 498 q 718 415 681 441 q 794 367 755 389 q 872 326 833 344 l 872 236 m 618 764 l 618 825 q 594 886 618 866 q 534 907 571 907 l 399 907 q 411 811 399 858 q 443 723 423 765 q 488 643 463 680 q 541 575 514 606 q 570 616 556 595 q 595 661 584 637 q 612 710 606 684 q 618 764 618 736 m 639 136 l 639 231 q 624 320 639 277 q 587 403 610 363 q 536 479 564 443 q 481 549 508 515 q 432 613 454 582 q 399 673 410 644 l 399 54 l 555 54 q 615 74 591 54 q 639 136 639 94 z "},"C":{"ha":878,"x_min":56,"x_max":802,"o":"m 791 -87 q 784 -55 791 -71 q 764 -26 777 -39 q 734 -7 751 -14 q 694 0 716 0 l 380 0 q 285 18 328 0 q 212 64 242 35 q 164 129 181 93 q 147 203 147 165 q 139 253 147 231 q 118 288 131 274 q 88 310 104 302 q 56 317 72 317 l 56 328 q 87 335 72 328 q 116 355 103 342 q 137 385 129 368 q 144 424 144 403 l 144 725 q 161 819 144 776 q 210 894 178 863 q 284 943 241 926 q 382 961 328 961 l 682 961 q 722 968 704 961 q 752 987 739 975 q 772 1016 765 1000 q 779 1048 779 1031 l 789 1048 l 789 675 l 778 675 q 741 759 767 718 q 680 833 715 801 q 604 886 645 866 q 521 907 563 907 l 468 907 q 407 886 430 907 q 385 825 385 865 l 385 136 q 406 76 385 98 q 468 54 428 54 q 547 75 502 54 q 638 139 593 96 q 725 247 684 182 q 790 401 766 313 l 802 401 l 802 -87 l 791 -87 z "},"D":{"ha":1003,"x_min":69,"x_max":878,"o":"m 878 236 q 860 140 878 183 q 811 65 842 96 q 736 17 780 35 q 642 0 693 0 l 69 0 l 69 9 q 103 17 87 9 q 132 37 119 24 q 151 68 144 50 q 158 107 158 86 l 158 854 q 150 896 158 878 q 130 926 142 914 q 101 945 117 939 q 69 951 85 951 l 69 961 l 642 961 q 738 943 694 961 q 813 894 782 926 q 861 819 844 863 q 878 725 878 776 l 878 236 m 637 136 l 637 825 q 615 885 637 864 q 553 907 593 907 l 399 907 l 399 54 l 554 54 q 616 76 594 54 q 637 136 637 98 z "},"E":{"ha":913,"x_min":83,"x_max":829,"o":"m 819 -87 q 812 -55 819 -71 q 792 -26 805 -39 q 762 -7 779 -14 q 722 0 744 0 l 83 0 l 83 9 q 116 17 100 9 q 145 37 132 24 q 165 67 157 50 q 172 107 172 85 l 172 220 q 164 258 172 241 q 144 289 157 276 q 116 309 132 302 q 83 317 100 317 l 83 328 q 115 335 99 328 q 143 354 131 342 q 164 385 156 367 q 172 424 172 403 l 172 854 q 164 896 172 878 q 144 926 157 913 q 115 945 131 939 q 83 951 100 951 l 83 961 l 710 961 q 749 968 731 961 q 780 987 767 975 q 800 1016 793 1000 q 807 1048 807 1031 l 817 1048 l 817 675 l 806 675 q 769 759 795 718 q 708 833 743 801 q 632 886 673 866 q 549 907 591 907 l 412 907 l 412 349 l 416 349 q 451 357 434 349 q 484 380 469 366 q 510 415 498 395 q 528 457 522 435 l 536 457 q 582 373 550 406 q 660 326 614 339 l 660 318 q 580 269 611 304 q 536 187 549 234 l 528 187 q 510 230 522 210 q 483 265 498 250 q 451 288 468 279 q 416 296 434 296 l 412 296 l 412 54 l 481 54 q 559 69 521 54 q 631 110 597 84 q 696 169 666 135 q 750 241 726 203 q 791 321 774 280 q 818 401 808 362 l 829 401 l 829 -87 l 819 -87 z "},"F":{"ha":844,"x_min":83,"x_max":817,"o":"m 501 0 l 83 0 l 83 9 q 117 17 101 9 q 146 37 134 24 q 165 68 158 50 q 172 107 172 86 l 172 220 q 164 258 172 241 q 144 289 157 276 q 116 309 132 302 q 83 317 100 317 l 83 328 q 115 335 100 328 q 144 355 131 342 q 164 385 157 368 q 172 424 172 403 l 172 854 q 164 896 172 878 q 144 926 157 913 q 115 945 131 939 q 83 951 100 951 l 83 961 l 710 961 q 749 968 731 961 q 780 987 767 975 q 800 1016 793 1000 q 807 1048 807 1031 l 817 1048 l 817 675 l 806 675 q 769 759 795 718 q 708 833 743 801 q 632 886 673 866 q 549 907 591 907 l 412 907 l 412 349 l 416 349 q 451 357 434 349 q 484 380 469 366 q 510 415 498 395 q 528 457 522 435 l 536 457 q 582 373 550 406 q 660 326 614 339 l 660 318 q 580 270 612 304 q 536 187 548 235 l 528 187 q 510 230 522 210 q 483 265 498 250 q 451 288 468 279 q 416 296 434 296 l 412 296 l 412 107 q 420 67 412 85 q 440 36 428 49 q 469 16 453 23 q 501 9 485 9 l 501 0 z "},"G":{"ha":993,"x_min":62,"x_max":958,"o":"m 958 0 l 387 0 q 291 18 334 0 q 216 67 247 35 q 168 142 185 98 q 151 236 151 185 l 151 538 q 144 575 151 558 q 124 606 136 593 q 95 626 111 618 q 62 633 79 633 l 62 644 q 94 651 78 644 q 124 673 111 659 q 145 708 137 687 q 154 758 154 730 q 171 832 154 796 q 219 897 188 869 q 293 943 250 926 q 387 961 336 961 l 690 961 q 730 968 712 961 q 760 987 747 975 q 780 1016 773 1000 q 787 1048 787 1031 l 798 1048 l 798 675 l 786 675 q 749 759 775 718 q 688 833 724 801 q 612 886 653 866 q 529 907 571 907 l 475 907 q 413 884 434 907 q 392 825 392 862 l 392 136 q 414 76 392 98 q 475 54 435 54 l 549 54 q 610 76 589 54 q 632 136 632 98 l 632 536 q 624 578 632 560 q 603 608 616 596 q 575 627 591 621 q 543 633 559 633 l 543 643 l 958 643 l 958 633 q 925 627 941 633 q 897 607 909 620 q 877 576 884 594 q 869 536 869 558 l 869 107 q 877 67 869 85 q 897 37 884 50 q 925 17 909 24 q 958 9 941 9 l 958 0 z "},"H":{"ha":1064,"x_min":83,"x_max":981,"o":"m 981 0 l 562 0 l 562 9 q 596 17 580 9 q 625 37 612 24 q 644 68 637 50 q 652 107 652 86 l 652 612 l 647 612 q 613 604 630 612 q 581 582 595 596 q 554 547 566 567 q 536 504 543 527 l 528 504 q 509 548 521 528 q 482 583 497 568 q 450 605 467 597 q 416 612 433 612 l 412 612 l 412 107 q 420 67 412 85 q 440 36 428 49 q 469 16 453 23 q 501 9 485 9 l 501 0 l 83 0 l 83 9 q 116 17 100 9 q 145 37 132 24 q 165 67 157 50 q 172 107 172 85 l 172 536 q 164 575 172 557 q 144 606 157 593 q 115 626 131 619 q 83 633 100 633 l 83 644 q 116 652 100 644 q 144 672 132 659 q 164 703 157 685 q 172 741 172 720 l 172 854 q 164 896 172 878 q 144 926 157 913 q 115 945 131 939 q 83 951 100 951 l 83 961 l 501 961 l 501 951 q 469 945 485 951 q 441 926 454 939 q 420 896 428 913 q 412 854 412 878 l 412 665 l 416 665 q 451 673 434 665 q 483 696 468 682 q 509 731 498 711 q 528 774 521 751 l 536 774 q 555 731 543 751 q 581 696 566 711 q 613 673 596 682 q 647 665 630 665 l 652 665 l 652 854 q 644 896 652 878 q 623 926 636 913 q 594 945 610 939 q 562 951 578 951 l 562 961 l 981 961 l 981 951 q 948 945 964 951 q 920 926 932 939 q 900 896 907 913 q 892 854 892 878 l 892 741 q 899 703 892 720 q 919 672 907 685 q 948 652 932 659 q 981 644 964 644 l 981 633 q 948 626 964 633 q 920 606 932 619 q 900 575 907 593 q 892 536 892 557 l 892 107 q 899 67 892 85 q 919 37 907 50 q 947 17 931 24 q 981 9 964 9 l 981 0 z "},"I":{"ha":557,"x_min":69,"x_max":488,"o":"m 488 0 l 69 0 l 69 9 q 103 17 87 9 q 131 37 119 24 q 151 67 143 50 q 158 107 158 85 l 158 854 q 150 896 158 878 q 130 926 142 913 q 101 945 117 939 q 69 951 85 951 l 69 961 l 488 961 l 488 951 q 455 945 471 951 q 426 925 439 938 q 406 895 414 913 q 399 854 399 877 l 399 107 q 406 67 399 85 q 426 36 414 49 q 455 16 439 23 q 488 9 471 9 l 488 0 z "},"J":{"ha":843,"x_min":28,"x_max":774,"o":"m 774 951 q 741 945 757 951 q 712 925 725 938 q 692 895 700 913 q 685 854 685 877 l 685 236 q 668 143 685 186 q 620 68 651 100 q 545 18 589 37 q 449 0 502 0 l 135 0 q 96 -7 114 0 q 65 -26 78 -14 q 44 -55 52 -39 q 37 -87 37 -71 l 28 -87 l 28 401 l 39 401 q 104 247 63 313 q 191 139 145 182 q 282 75 237 96 q 361 54 327 54 q 420 74 397 54 q 444 136 444 94 l 444 854 q 436 897 444 878 q 415 927 428 915 q 387 945 402 939 q 355 951 371 951 l 355 961 l 774 961 l 774 951 z "},"K":{"ha":996,"x_min":69,"x_max":961,"o":"m 961 0 l 550 0 l 550 9 q 584 17 568 9 q 612 37 600 24 q 632 68 625 50 q 639 107 639 86 l 639 231 q 626 316 639 275 q 590 398 612 357 q 537 478 567 438 q 472 559 507 518 q 445 505 458 536 q 421 437 431 474 q 405 359 411 401 q 399 271 399 317 l 399 107 q 406 67 399 85 q 426 36 414 49 q 455 16 439 23 q 488 9 471 9 l 488 0 l 69 0 l 69 9 q 103 17 87 9 q 131 37 119 24 q 151 67 143 50 q 158 107 158 85 l 158 854 q 150 896 158 878 q 130 926 142 913 q 101 945 117 939 q 69 951 85 951 l 69 961 l 488 961 l 488 951 q 455 945 471 951 q 426 925 439 938 q 406 895 414 913 q 399 854 399 877 l 399 538 q 441 627 414 581 q 504 716 468 672 q 582 801 539 760 q 672 877 625 842 q 768 941 719 913 q 867 987 818 969 l 867 675 l 857 675 q 836 722 853 703 q 791 750 818 741 q 729 756 764 759 q 657 738 694 754 q 582 692 620 722 q 509 615 543 662 q 577 534 538 574 q 665 455 617 493 q 765 384 712 417 q 872 326 817 351 l 872 107 q 880 67 872 85 q 900 36 888 49 q 929 16 913 23 q 961 9 945 9 l 961 0 z "},"L":{"ha":843,"x_min":69,"x_max":815,"o":"m 806 -87 q 799 -55 806 -71 q 778 -26 791 -39 q 747 -7 765 -14 q 708 0 730 0 l 69 0 l 69 9 q 103 17 87 9 q 131 37 119 24 q 151 67 143 50 q 158 107 158 85 l 158 854 q 150 896 158 878 q 130 926 142 913 q 101 945 117 939 q 69 951 85 951 l 69 961 l 488 961 l 488 951 q 455 945 471 951 q 426 925 439 938 q 406 895 414 913 q 399 854 399 877 l 399 54 l 467 54 q 545 69 507 54 q 617 110 583 84 q 682 169 652 135 q 735 241 711 203 q 777 321 760 280 q 804 401 795 362 l 815 401 l 815 -87 l 806 -87 z "},"M":{"ha":1231,"x_min":69,"x_max":1161,"o":"m 1161 0 l 743 0 l 743 9 q 776 17 760 9 q 805 37 792 24 q 825 67 817 50 q 832 107 832 85 l 832 872 q 752 824 787 854 q 693 753 717 793 q 657 662 669 712 q 646 554 646 612 l 646 443 q 654 405 646 423 q 676 371 663 387 q 707 345 690 356 q 743 328 725 334 l 743 319 q 700 301 720 313 q 664 271 680 288 q 636 234 648 254 q 619 189 625 213 l 611 189 q 568 271 601 235 q 488 319 536 306 l 488 328 q 521 343 504 332 q 552 369 538 354 q 575 403 566 385 q 585 443 585 422 l 585 554 q 537 753 585 671 q 399 872 490 836 l 399 107 q 406 67 399 85 q 426 36 414 49 q 455 16 439 23 q 488 9 471 9 l 488 0 l 69 0 l 69 9 q 103 17 87 9 q 131 37 119 24 q 151 67 143 50 q 158 107 158 85 l 158 854 q 150 896 158 878 q 130 926 142 913 q 101 945 117 939 q 69 951 85 951 l 69 961 l 211 961 q 355 945 289 961 q 472 898 420 929 q 559 821 523 867 q 615 714 596 774 q 757 897 653 833 q 1021 961 861 961 l 1161 961 l 1161 951 q 1129 945 1145 951 q 1101 926 1114 939 q 1080 896 1088 913 q 1072 854 1072 878 l 1072 107 q 1080 67 1072 85 q 1100 37 1087 50 q 1128 17 1112 24 q 1161 9 1144 9 l 1161 0 z "},"N":{"ha":1038,"x_min":69,"x_max":968,"o":"m 968 0 l 550 0 l 550 9 q 583 16 567 9 q 611 36 599 23 q 631 67 624 49 q 639 107 639 85 l 639 371 q 618 562 639 480 q 563 702 597 644 q 486 799 528 761 q 399 857 443 836 l 399 107 q 406 67 399 85 q 426 37 414 50 q 454 17 438 24 q 488 9 471 9 l 488 0 l 69 0 l 69 9 q 103 17 87 9 q 131 37 119 24 q 151 67 143 50 q 158 107 158 85 l 158 854 q 150 896 158 878 q 130 926 142 913 q 101 945 117 939 q 69 951 85 951 l 69 961 l 165 961 q 350 936 270 961 q 487 870 429 911 q 582 776 545 829 q 639 668 619 723 l 639 961 l 968 961 l 968 951 q 936 945 951 951 q 907 925 920 938 q 887 895 895 913 q 879 854 879 877 l 879 107 q 887 67 879 85 q 907 36 895 49 q 936 16 920 23 q 968 9 951 9 l 968 0 z "},"O":{"ha":1036,"x_min":69,"x_max":966,"o":"m 966 317 q 934 309 950 317 q 904 288 918 302 q 883 252 891 273 q 875 203 875 231 q 858 129 875 165 q 810 64 841 93 q 737 18 780 35 q 642 0 694 0 l 395 0 q 299 18 342 0 q 226 64 256 35 q 178 129 195 93 q 161 203 161 165 q 153 253 161 231 q 132 288 145 274 q 102 310 119 302 q 69 317 85 317 l 69 328 q 102 335 86 328 q 131 355 118 342 q 151 386 143 368 q 158 424 158 404 l 158 725 q 175 819 158 776 q 223 894 192 863 q 298 943 254 926 q 395 961 342 961 l 642 961 q 738 943 694 961 q 813 894 782 926 q 861 819 844 863 q 878 725 878 776 l 878 425 q 885 387 878 404 q 906 356 893 369 q 934 335 918 342 q 966 328 950 328 l 966 317 m 637 136 l 637 825 q 615 886 637 865 q 554 907 592 907 l 482 907 q 420 885 442 907 q 399 825 399 863 l 399 136 q 420 77 399 100 q 482 54 441 54 l 554 54 q 616 77 595 54 q 637 136 637 100 z "},"P":{"ha":878,"x_min":69,"x_max":850,"o":"m 850 633 q 726 614 791 633 q 600 557 661 595 q 487 464 539 519 q 399 336 434 409 l 399 107 q 406 67 399 85 q 426 37 414 50 q 454 17 438 24 q 488 9 471 9 l 488 0 l 69 0 l 69 9 q 102 16 86 9 q 131 36 118 23 q 151 67 143 49 q 158 107 158 85 l 158 854 q 150 896 158 878 q 130 926 142 914 q 101 945 117 939 q 69 951 85 951 l 69 961 l 614 961 q 710 943 667 961 q 785 894 754 926 q 833 819 816 863 q 850 725 850 776 l 850 633 m 618 758 l 618 825 q 594 887 618 867 q 534 907 570 907 l 399 907 l 399 449 q 433 493 412 471 q 479 538 455 515 q 528 586 503 561 q 573 637 553 610 q 605 694 593 664 q 618 758 618 724 z "},"Q":{"ha":1036,"x_min":69,"x_max":1000,"o":"m 637 336 l 637 825 q 615 886 637 865 q 554 907 592 907 l 482 907 q 420 885 442 907 q 399 825 399 863 l 399 336 q 439 356 420 342 q 473 387 458 369 q 498 425 488 404 q 513 465 509 445 l 524 465 q 537 425 527 446 q 563 387 547 405 q 597 356 578 370 q 637 336 616 342 m 637 136 l 637 309 q 606 294 623 304 q 576 271 590 285 q 553 239 562 257 q 545 200 545 222 l 545 54 l 554 54 q 616 77 595 54 q 637 136 637 100 m 492 54 l 492 200 q 483 239 492 222 q 460 270 474 256 q 431 294 447 284 q 399 309 414 303 l 399 136 q 420 77 399 100 q 482 54 441 54 l 492 54 m 966 317 q 934 309 950 317 q 904 288 918 302 q 883 252 891 273 q 875 203 875 231 q 858 129 875 165 q 810 64 841 93 q 737 18 780 35 q 642 0 694 0 l 545 0 l 545 -22 q 551 -55 545 -39 q 569 -82 557 -70 q 595 -100 580 -94 q 629 -107 611 -107 l 757 -107 q 792 -99 774 -107 q 824 -75 809 -90 q 850 -41 839 -60 q 868 1 862 -21 l 876 1 q 922 -83 890 -49 q 1000 -129 954 -117 l 1000 -138 q 920 -186 951 -151 q 876 -268 889 -222 l 868 -268 q 850 -225 862 -245 q 823 -191 838 -205 q 791 -168 808 -176 q 757 -160 774 -160 l 629 -160 q 576 -149 602 -160 q 533 -120 551 -138 q 503 -76 514 -101 q 492 -22 492 -51 l 492 0 l 395 0 q 299 18 342 0 q 226 64 256 35 q 178 129 195 93 q 161 203 161 165 q 153 253 161 231 q 132 288 145 274 q 102 310 119 302 q 69 317 85 317 l 69 328 q 102 335 86 328 q 131 355 118 342 q 151 386 143 368 q 158 424 158 404 l 158 725 q 175 819 158 776 q 223 894 192 863 q 298 943 254 926 q 395 961 342 961 l 642 961 q 738 943 694 961 q 813 894 782 926 q 861 819 844 863 q 878 725 878 776 l 878 425 q 885 387 878 404 q 906 356 893 369 q 934 335 918 342 q 966 328 950 328 l 966 317 z "},"R":{"ha":982,"x_min":69,"x_max":961,"o":"m 961 0 l 550 0 l 550 9 q 584 17 568 9 q 612 37 600 24 q 631 67 624 50 q 639 107 639 85 l 639 231 q 624 320 639 277 q 587 403 610 363 q 536 479 564 443 q 481 549 508 515 q 432 613 454 582 q 399 673 410 644 l 399 107 q 406 67 399 85 q 426 37 414 50 q 454 17 438 24 q 488 9 471 9 l 488 0 l 69 0 l 69 9 q 103 17 87 9 q 131 37 119 24 q 151 67 143 50 q 158 107 158 85 l 158 854 q 150 896 158 878 q 130 926 142 913 q 101 945 117 939 q 69 951 85 951 l 69 961 l 614 961 q 709 944 665 961 q 783 896 752 926 q 832 821 814 865 q 850 725 850 778 l 850 633 q 719 609 784 633 q 585 526 653 585 q 646 471 613 498 q 716 417 680 443 q 792 368 753 391 q 872 326 831 345 l 872 107 q 880 67 872 85 q 900 36 888 49 q 929 16 913 23 q 961 9 945 9 l 961 0 m 618 764 l 618 825 q 596 885 618 863 q 534 907 574 907 l 399 907 q 411 808 399 856 q 444 719 424 761 q 490 640 465 677 q 541 575 515 604 q 570 616 556 595 q 595 661 584 637 q 612 710 606 684 q 618 764 618 736 z "},"S":{"ha":940,"x_min":56,"x_max":940,"o":"m 940 317 q 908 310 924 317 q 879 288 892 302 q 857 253 865 274 q 848 203 848 231 q 832 130 848 166 q 785 65 815 94 q 711 18 754 36 q 615 0 668 0 l 243 0 q 204 -7 222 0 q 173 -26 186 -14 q 153 -55 160 -39 q 146 -87 146 -71 l 136 -87 l 136 401 l 147 401 q 174 321 157 362 q 215 241 191 280 q 270 169 239 203 q 334 110 300 135 q 407 69 368 84 q 485 54 445 54 l 511 54 q 552 60 532 54 q 586 79 571 66 q 609 112 600 92 q 618 160 618 132 l 618 167 q 599 273 618 219 q 545 379 581 328 q 460 475 510 430 q 348 555 410 520 q 211 610 285 589 q 56 633 138 631 l 56 644 q 89 652 72 644 q 118 674 105 660 q 139 710 131 689 q 147 758 147 731 q 164 832 147 795 q 211 897 180 868 q 284 943 241 926 q 380 961 328 961 l 684 961 q 723 968 705 961 q 753 987 741 975 q 773 1016 766 1000 q 781 1048 781 1031 l 790 1048 l 790 675 l 779 675 q 743 759 768 718 q 682 833 717 801 q 605 886 646 866 q 522 907 564 907 l 485 907 q 444 900 463 907 q 409 881 424 894 q 386 848 395 867 q 378 802 378 828 l 378 789 q 399 677 378 732 q 459 571 421 621 q 551 476 498 520 q 666 400 604 433 q 798 349 728 368 q 940 328 868 330 l 940 317 z "},"T":{"ha":860,"x_min":14,"x_max":846,"o":"m 639 0 l 221 0 l 221 9 q 254 17 238 9 q 282 37 270 24 q 302 67 295 50 q 310 107 310 85 l 310 907 l 282 907 q 199 886 241 907 q 123 833 158 866 q 62 759 87 801 q 25 675 36 718 l 14 675 l 14 1048 l 24 1048 q 31 1016 24 1031 q 51 987 38 1000 q 82 968 64 975 q 121 961 100 961 l 739 961 q 779 968 761 961 q 809 987 796 975 q 829 1016 822 1000 q 836 1048 836 1031 l 846 1048 l 846 675 l 835 675 q 798 759 824 718 q 737 833 772 801 q 661 886 702 866 q 578 907 620 907 l 550 907 l 550 107 q 557 67 550 85 q 577 37 565 50 q 606 17 589 24 q 639 9 622 9 l 639 0 z "},"U":{"ha":1036,"x_min":69,"x_max":966,"o":"m 966 317 q 935 310 951 317 q 905 288 918 302 q 883 253 892 274 q 875 203 875 231 q 858 129 875 165 q 810 64 841 93 q 737 18 780 35 q 642 0 694 0 l 395 0 q 299 18 342 0 q 226 64 256 35 q 178 129 195 93 q 161 203 161 165 q 153 253 161 231 q 132 288 145 274 q 102 310 119 302 q 69 317 85 317 l 69 328 q 102 335 86 328 q 131 355 118 342 q 151 386 143 368 q 158 424 158 404 l 158 854 q 150 896 158 878 q 130 926 142 913 q 101 945 117 939 q 69 951 85 951 l 69 961 l 488 961 l 488 951 q 455 945 471 951 q 426 925 439 938 q 406 895 414 913 q 399 854 399 877 l 399 136 q 420 77 399 100 q 482 54 441 54 l 554 54 q 616 77 595 54 q 637 136 637 100 l 637 854 q 630 895 637 877 q 609 925 622 913 q 581 945 597 938 q 549 951 565 951 l 549 961 l 966 961 l 966 951 q 935 945 950 951 q 906 926 919 939 q 885 896 893 913 q 878 854 878 878 l 878 424 q 885 386 878 404 q 906 355 893 368 q 934 335 918 342 q 966 328 950 328 l 966 317 z "},"V":{"ha":1008,"x_min":56,"x_max":953,"o":"m 953 317 q 874 303 916 315 q 790 270 833 291 q 705 220 747 249 q 626 156 663 191 q 558 82 589 121 q 509 0 528 43 l 500 0 q 450 82 481 42 q 382 156 420 121 q 303 220 345 191 q 218 270 261 249 q 134 303 176 291 q 56 317 92 315 l 56 328 q 87 335 72 328 q 116 355 103 342 q 137 385 129 368 q 144 424 144 403 l 144 854 q 137 896 144 878 q 116 926 129 913 q 87 945 103 939 q 56 951 72 951 l 56 961 l 473 961 l 473 951 q 441 945 457 951 q 413 926 426 939 q 392 896 400 913 q 385 854 385 878 l 385 231 q 416 204 399 220 q 449 172 433 189 q 479 137 465 155 q 504 103 494 119 q 529 137 514 119 q 559 172 543 155 q 592 204 575 189 q 624 231 609 219 l 624 854 q 616 895 624 877 q 596 925 608 913 q 567 945 583 938 q 534 951 551 951 l 534 961 l 953 961 l 953 951 q 920 945 936 951 q 891 925 904 938 q 871 895 879 913 q 864 854 864 877 l 864 425 q 872 386 864 404 q 892 355 880 368 q 921 335 905 342 q 953 328 937 328 l 953 317 z "},"W":{"ha":1203,"x_min":56,"x_max":1147,"o":"m 1147 317 q 1069 303 1111 315 q 984 270 1027 291 q 898 219 941 248 q 819 156 856 191 q 751 81 781 121 q 701 0 720 42 l 694 0 q 638 68 662 31 q 602 149 614 106 q 564 66 588 104 q 509 0 539 28 l 501 0 q 452 81 482 42 q 385 156 422 121 q 305 219 347 191 q 219 270 262 248 q 134 303 176 291 q 56 317 92 315 l 56 328 q 87 335 71 328 q 116 354 103 342 q 136 385 128 367 q 144 424 144 403 l 144 854 q 136 896 144 878 q 116 926 128 914 q 87 945 103 939 q 56 951 71 951 l 56 961 l 473 961 l 473 951 q 441 945 457 951 q 413 926 426 939 q 392 896 400 913 q 385 854 385 878 l 385 231 q 418 202 400 218 q 453 168 436 186 q 485 131 470 150 q 510 96 500 113 q 533 138 522 113 q 553 192 545 163 q 566 253 562 221 q 571 315 571 285 l 571 518 q 562 558 571 539 q 538 592 553 576 q 507 618 524 607 q 473 633 490 629 l 473 642 q 515 660 495 648 q 552 689 536 671 q 580 727 568 706 q 597 772 592 748 l 606 772 q 622 728 611 749 q 650 690 633 707 q 686 660 666 673 q 729 642 706 648 l 729 633 q 694 616 711 627 q 663 590 677 606 q 641 557 649 575 q 632 518 632 538 l 632 315 q 637 254 632 285 q 650 194 642 222 q 669 139 658 165 q 693 96 680 114 q 718 131 703 113 q 750 168 733 150 q 785 202 767 186 q 818 231 802 218 l 818 854 q 810 896 818 878 q 790 926 802 913 q 761 945 777 939 q 729 951 745 951 l 729 961 l 1147 961 l 1147 951 q 1116 945 1132 951 q 1087 926 1100 939 q 1067 896 1075 914 q 1059 854 1059 878 l 1059 424 q 1066 386 1059 404 q 1086 355 1074 368 q 1115 335 1099 342 q 1147 328 1131 328 l 1147 317 z "},"X":{"ha":1017,"x_min":60,"x_max":957,"o":"m 954 633 q 829 621 885 633 q 726 589 774 609 q 636 540 678 568 q 553 478 595 512 q 615 431 581 455 q 687 387 648 408 q 771 350 726 366 q 868 326 817 334 l 868 109 q 876 68 868 86 q 895 37 883 50 q 924 17 907 24 q 957 9 940 9 l 957 0 l 539 0 l 539 9 q 572 17 556 9 q 601 37 588 24 q 621 67 613 50 q 628 107 628 85 l 628 355 q 566 397 597 374 q 509 441 534 420 q 450 396 481 418 q 389 355 418 373 l 389 107 q 396 67 389 85 q 416 37 404 50 q 445 17 429 24 q 478 9 461 9 l 478 0 l 60 0 l 60 9 q 94 17 78 9 q 122 38 111 24 q 141 68 134 51 q 149 107 149 86 l 149 326 q 247 351 201 334 q 332 389 293 368 q 404 433 372 410 q 464 478 437 456 q 375 544 418 515 q 283 592 331 572 q 181 622 235 612 q 62 633 127 633 l 62 644 q 95 651 79 644 q 123 671 111 659 q 143 702 136 684 q 151 741 151 720 l 151 854 q 143 896 151 878 q 123 926 136 913 q 95 945 111 939 q 62 951 79 951 l 62 961 l 478 961 l 478 951 q 446 945 462 951 q 417 926 430 939 q 396 896 404 913 q 389 854 389 878 l 389 600 q 417 583 404 592 q 444 564 430 574 q 473 542 457 554 q 509 514 489 530 q 572 564 543 543 q 628 600 602 585 l 628 854 q 620 896 628 878 q 600 926 612 913 q 571 945 587 939 q 539 951 555 951 l 539 961 l 954 961 l 954 951 q 922 945 938 951 q 893 926 906 939 q 873 896 881 913 q 865 854 865 878 l 865 741 q 873 702 865 720 q 893 671 881 684 q 922 651 906 659 q 954 644 938 644 l 954 633 z "},"Y":{"ha":983,"x_min":49,"x_max":935,"o":"m 935 633 q 846 615 891 631 q 759 577 802 600 q 678 526 716 554 q 611 471 640 498 l 611 107 q 618 67 611 85 q 638 37 626 50 q 667 17 651 24 q 700 9 683 9 l 700 0 l 283 0 l 283 9 q 316 17 300 9 q 345 37 332 24 q 365 67 357 50 q 372 107 372 85 l 372 471 q 291 537 334 507 q 206 587 248 566 q 123 620 163 608 q 49 633 83 632 l 49 644 q 81 651 65 644 q 109 671 96 659 q 130 702 122 684 q 138 741 138 720 l 138 854 q 130 896 138 878 q 109 926 122 913 q 81 945 96 939 q 49 951 65 951 l 49 961 l 464 961 l 464 951 q 432 945 448 951 q 404 926 416 939 q 383 896 391 913 q 375 854 375 878 l 375 545 q 405 519 389 534 q 436 490 420 505 q 466 457 452 474 q 492 422 480 439 q 547 489 515 458 q 608 545 579 521 l 608 854 q 601 896 608 878 q 580 926 593 913 q 551 945 567 939 q 519 951 536 951 l 519 961 l 935 961 l 935 951 q 903 945 919 951 q 874 926 887 939 q 854 896 862 914 q 846 854 846 878 l 846 741 q 853 702 846 720 q 874 671 861 684 q 903 651 887 659 q 935 644 918 644 l 935 633 z "},"Z":{"ha":850,"x_min":97,"x_max":766,"o":"m 757 -87 q 750 -55 757 -71 q 730 -26 743 -39 q 699 -7 717 -14 q 660 0 682 0 l 97 0 l 97 11 l 433 907 l 379 907 q 296 886 338 907 q 220 833 255 866 q 159 759 184 801 q 122 675 133 718 l 111 675 l 111 1048 l 121 1048 q 128 1016 121 1031 q 148 987 135 1000 q 179 968 161 975 q 218 961 197 961 l 745 961 l 745 949 l 408 54 l 418 54 q 496 69 458 54 q 569 110 534 84 q 633 169 603 135 q 687 241 663 203 q 729 321 711 280 q 755 401 746 362 l 766 401 l 766 -87 l 757 -87 z "},"[":{"ha":519,"x_min":62,"x_max":485,"o":"m 485 -87 l 62 -87 l 62 -78 q 95 -71 79 -78 q 124 -52 111 -64 q 144 -21 136 -39 q 151 20 151 -3 l 151 536 q 143 575 151 557 q 123 606 136 593 q 95 626 111 619 q 62 633 79 633 l 62 644 q 94 651 78 644 q 123 671 110 659 q 143 702 136 684 q 151 741 151 720 l 151 943 q 143 984 151 966 q 123 1015 136 1002 q 95 1034 111 1027 q 62 1040 79 1040 l 62 1050 l 485 1050 l 485 996 l 307 996 l 307 -33 l 485 -33 l 485 -87 z "},"^":{"ha":439,"x_min":35,"x_max":404,"o":"m 404 397 l 311 397 l 220 458 l 127 397 l 35 397 l 129 566 l 310 566 l 404 397 z "},"_":{"ha":966,"x_min":35,"x_max":932,"o":"m 932 -87 l 35 -87 l 35 -31 l 932 -31 l 932 -87 z "},"`":{"ha":296,"x_min":35,"x_max":261,"o":"m 261 1025 l 174 1025 l 35 1181 l 35 1193 l 205 1193 l 261 1025 z "},"{":{"ha":492,"x_min":35,"x_max":457,"o":"m 457 -87 l 317 -87 q 237 -74 273 -87 q 176 -36 201 -61 q 137 26 151 -11 q 123 110 123 63 l 123 536 q 116 575 123 557 q 95 606 108 593 q 67 626 83 619 q 35 633 51 633 l 35 644 q 67 651 51 644 q 95 671 83 659 q 116 702 108 684 q 123 741 123 720 l 123 852 q 137 936 123 899 q 175 998 151 972 q 236 1037 200 1023 q 317 1050 272 1050 l 457 1050 l 457 996 l 364 996 q 302 973 324 996 q 279 914 279 951 l 279 814 q 271 744 279 774 q 248 693 262 714 q 217 659 234 672 q 184 639 200 646 q 217 619 200 632 q 248 585 234 606 q 271 534 262 564 q 279 464 279 504 l 279 49 q 302 -11 279 11 q 364 -33 326 -33 l 457 -33 l 457 -87 z "},"|":{"ha":129,"x_min":35,"x_max":94,"o":"m 94 -87 l 35 -87 l 35 1050 l 94 1050 l 94 -87 z "},"~":{"ha":525,"x_min":35,"x_max":490,"o":"m 490 568 l 396 399 l 174 429 l 135 392 l 35 392 l 129 561 l 351 530 l 390 568 l 490 568 z "},"Ä":{"ha":1036,"x_min":69,"x_max":966,"o":"m 966 0 l 549 0 l 549 9 q 582 17 566 9 q 610 37 598 24 q 630 67 623 50 q 637 107 637 85 l 637 296 l 633 296 q 599 288 616 296 q 567 265 582 279 q 540 230 552 250 q 522 187 528 210 l 514 187 q 495 232 507 212 q 468 266 483 252 q 436 288 453 280 q 403 296 419 296 l 399 296 l 399 107 q 406 67 399 85 q 426 37 414 50 q 454 17 438 24 q 488 9 471 9 l 488 0 l 69 0 l 69 9 q 103 17 87 9 q 131 37 119 24 q 151 67 143 50 q 158 107 158 85 l 158 221 q 151 259 158 241 q 131 289 143 277 q 102 309 118 302 q 69 317 86 317 l 69 328 q 102 335 86 328 q 131 355 118 342 q 151 386 143 368 q 158 424 158 404 l 158 725 q 175 819 158 776 q 223 893 192 862 q 297 943 254 925 q 395 961 341 961 l 642 961 q 739 943 695 961 q 813 893 783 925 q 861 819 844 862 q 878 725 878 776 l 878 424 q 885 386 878 404 q 906 355 893 368 q 934 335 918 342 q 966 328 950 328 l 966 317 q 934 309 950 317 q 906 289 918 302 q 885 259 893 277 q 878 221 878 241 l 878 107 q 885 67 878 85 q 905 37 892 50 q 933 17 918 24 q 966 9 949 9 l 966 0 m 637 349 l 637 825 q 615 885 637 864 q 554 907 593 907 l 482 907 q 421 885 444 907 q 399 825 399 864 l 399 349 l 403 349 q 437 357 420 349 q 469 379 454 365 q 495 414 484 394 q 514 457 507 434 l 522 457 q 541 414 529 434 q 567 379 553 394 q 599 357 582 365 q 633 349 616 349 l 637 349 m 503 1108 q 422 1060 454 1095 q 379 978 391 1025 l 371 978 q 325 1062 358 1028 q 248 1108 292 1096 l 248 1117 q 325 1163 292 1129 q 371 1247 358 1197 l 379 1247 q 423 1165 392 1199 q 503 1117 454 1131 l 503 1108 m 787 1108 q 707 1060 739 1095 q 664 978 675 1025 l 656 978 q 610 1062 643 1028 q 532 1108 576 1096 l 532 1117 q 610 1163 576 1129 q 656 1247 643 1197 l 664 1247 q 708 1165 677 1199 q 787 1117 739 1131 l 787 1108 z "},"Å":{"ha":1036,"x_min":69,"x_max":966,"o":"m 966 0 l 549 0 l 549 9 q 582 17 566 9 q 610 37 598 24 q 630 67 623 50 q 637 107 637 85 l 637 296 l 633 296 q 599 288 616 296 q 567 265 582 279 q 540 230 552 250 q 522 187 528 210 l 514 187 q 495 232 507 212 q 468 266 483 252 q 436 288 453 280 q 403 296 419 296 l 399 296 l 399 107 q 406 67 399 85 q 426 37 414 50 q 454 17 438 24 q 488 9 471 9 l 488 0 l 69 0 l 69 9 q 103 17 87 9 q 131 37 119 24 q 151 67 143 50 q 158 107 158 85 l 158 221 q 151 259 158 241 q 131 289 143 277 q 102 309 118 302 q 69 317 86 317 l 69 328 q 102 335 86 328 q 131 355 118 342 q 151 386 143 368 q 158 424 158 404 l 158 725 q 175 819 158 776 q 223 893 192 862 q 297 943 254 925 q 395 961 341 961 l 642 961 q 739 943 695 961 q 813 893 783 925 q 861 819 844 862 q 878 725 878 776 l 878 424 q 885 386 878 404 q 906 355 893 368 q 934 335 918 342 q 966 328 950 328 l 966 317 q 934 309 950 317 q 906 289 918 302 q 885 259 893 277 q 878 221 878 241 l 878 107 q 885 67 878 85 q 905 37 892 50 q 933 17 918 24 q 966 9 949 9 l 966 0 m 637 349 l 637 825 q 615 885 637 864 q 554 907 593 907 l 482 907 q 421 885 444 907 q 399 825 399 864 l 399 349 l 403 349 q 437 357 420 349 q 469 379 454 365 q 495 414 484 394 q 514 457 507 434 l 522 457 q 541 414 529 434 q 567 379 553 394 q 599 357 582 365 q 633 349 616 349 l 637 349 m 530 1109 q 526 1126 530 1120 q 518 1132 522 1132 q 510 1126 514 1132 q 505 1109 505 1120 q 510 1093 505 1097 q 518 1088 515 1088 q 526 1093 522 1088 q 530 1109 530 1097 m 642 1109 q 632 1073 642 1090 q 606 1043 623 1055 q 567 1023 589 1030 q 518 1015 544 1015 q 470 1023 492 1015 q 430 1043 447 1030 q 404 1073 414 1055 q 395 1109 395 1090 q 404 1146 395 1129 q 430 1176 413 1163 q 469 1197 446 1190 q 518 1204 492 1204 q 567 1197 544 1204 q 606 1177 589 1190 q 632 1146 623 1164 q 642 1109 642 1129 z "},"Ç":{"ha":878,"x_min":56,"x_max":802,"o":"m 791 -87 q 784 -55 791 -71 q 764 -26 777 -39 q 734 -7 751 -14 q 694 0 716 0 l 492 0 l 475 -46 q 511 -57 494 -50 q 541 -76 528 -64 q 561 -102 553 -87 q 568 -135 568 -117 q 547 -194 568 -170 q 493 -232 526 -218 q 423 -252 461 -246 q 351 -258 385 -258 l 378 -186 q 399 -169 391 -179 q 408 -150 406 -159 q 406 -130 410 -140 q 395 -114 403 -121 l 435 0 l 380 0 q 285 18 328 0 q 212 64 242 35 q 164 129 181 93 q 147 203 147 165 q 139 253 147 231 q 118 288 131 274 q 88 310 104 302 q 56 317 72 317 l 56 328 q 87 335 72 328 q 116 355 103 342 q 137 385 129 368 q 144 424 144 403 l 144 725 q 161 819 144 776 q 210 894 178 863 q 284 943 241 926 q 382 961 328 961 l 682 961 q 722 968 704 961 q 752 987 739 975 q 772 1016 765 1000 q 779 1048 779 1031 l 789 1048 l 789 675 l 778 675 q 741 759 767 718 q 680 833 715 801 q 604 886 645 866 q 521 907 563 907 l 468 907 q 407 886 430 907 q 385 825 385 865 l 385 136 q 406 76 385 98 q 468 54 428 54 q 547 75 502 54 q 638 139 593 96 q 725 247 684 182 q 790 401 766 313 l 802 401 l 802 -87 l 791 -87 z "},"É":{"ha":913,"x_min":83,"x_max":829,"o":"m 819 -87 q 812 -55 819 -71 q 792 -26 805 -39 q 762 -7 779 -14 q 722 0 744 0 l 83 0 l 83 9 q 116 17 100 9 q 145 37 132 24 q 165 67 157 50 q 172 107 172 85 l 172 220 q 164 258 172 241 q 144 289 157 276 q 116 309 132 302 q 83 317 100 317 l 83 328 q 115 335 99 328 q 143 354 131 342 q 164 385 156 367 q 172 424 172 403 l 172 854 q 164 896 172 878 q 144 926 157 913 q 115 945 131 939 q 83 951 100 951 l 83 961 l 710 961 q 749 968 731 961 q 780 987 767 975 q 800 1016 793 1000 q 807 1048 807 1031 l 817 1048 l 817 675 l 806 675 q 769 759 795 718 q 708 833 743 801 q 632 886 673 866 q 549 907 591 907 l 412 907 l 412 349 l 416 349 q 451 357 434 349 q 484 380 469 366 q 510 415 498 395 q 528 457 522 435 l 536 457 q 582 373 550 406 q 660 326 614 339 l 660 318 q 580 269 611 304 q 536 187 549 234 l 528 187 q 510 230 522 210 q 483 265 498 250 q 451 288 468 279 q 416 296 434 296 l 412 296 l 412 54 l 481 54 q 559 69 521 54 q 631 110 597 84 q 696 169 666 135 q 750 241 726 203 q 791 321 774 280 q 818 401 808 362 l 829 401 l 829 -87 l 819 -87 m 591 1181 l 453 1025 l 366 1025 l 421 1193 l 591 1193 l 591 1181 z "},"Ñ":{"ha":1038,"x_min":69,"x_max":968,"o":"m 968 0 l 550 0 l 550 9 q 583 16 567 9 q 611 36 599 23 q 631 67 624 49 q 639 107 639 85 l 639 371 q 618 562 639 480 q 563 702 597 644 q 486 799 528 761 q 399 857 443 836 l 399 107 q 406 67 399 85 q 426 37 414 50 q 454 17 438 24 q 488 9 471 9 l 488 0 l 69 0 l 69 9 q 103 17 87 9 q 131 37 119 24 q 151 67 143 50 q 158 107 158 85 l 158 854 q 150 896 158 878 q 130 926 142 913 q 101 945 117 939 q 69 951 85 951 l 69 961 l 165 961 q 350 936 270 961 q 487 870 429 911 q 582 776 545 829 q 639 668 619 723 l 639 961 l 968 961 l 968 951 q 936 945 951 951 q 907 925 920 938 q 887 895 895 913 q 879 854 879 877 l 879 107 q 887 67 879 85 q 907 36 895 49 q 936 16 920 23 q 968 9 951 9 l 968 0 m 746 1202 l 652 1032 l 429 1063 l 390 1025 l 290 1025 l 385 1194 l 607 1164 l 646 1202 l 746 1202 z "},"Ö":{"ha":1036,"x_min":69,"x_max":966,"o":"m 966 317 q 934 309 950 317 q 904 288 918 302 q 883 252 891 273 q 875 203 875 231 q 858 129 875 165 q 810 64 841 93 q 737 18 780 35 q 642 0 694 0 l 395 0 q 299 18 342 0 q 226 64 256 35 q 178 129 195 93 q 161 203 161 165 q 153 253 161 231 q 132 288 145 274 q 102 310 119 302 q 69 317 85 317 l 69 328 q 102 335 86 328 q 131 355 118 342 q 151 386 143 368 q 158 424 158 404 l 158 725 q 175 819 158 776 q 223 894 192 863 q 298 943 254 926 q 395 961 342 961 l 642 961 q 738 943 694 961 q 813 894 782 926 q 861 819 844 863 q 878 725 878 776 l 878 425 q 885 387 878 404 q 906 356 893 369 q 934 335 918 342 q 966 328 950 328 l 966 317 m 637 136 l 637 825 q 615 886 637 865 q 554 907 592 907 l 482 907 q 420 885 442 907 q 399 825 399 863 l 399 136 q 420 77 399 100 q 482 54 441 54 l 554 54 q 616 77 595 54 q 637 136 637 100 m 504 1108 q 424 1060 456 1095 q 380 978 392 1025 l 372 978 q 327 1062 359 1028 q 249 1108 294 1096 l 249 1117 q 327 1163 294 1129 q 372 1247 359 1197 l 380 1247 q 425 1165 393 1199 q 504 1117 456 1131 l 504 1108 m 789 1108 q 709 1060 741 1095 q 665 978 677 1025 l 657 978 q 611 1062 644 1028 q 533 1108 578 1096 l 533 1117 q 611 1163 578 1129 q 657 1247 644 1197 l 665 1247 q 709 1165 678 1199 q 789 1117 741 1131 l 789 1108 z "},"Ü":{"ha":1036,"x_min":69,"x_max":966,"o":"m 966 317 q 935 310 951 317 q 905 288 918 302 q 883 253 892 274 q 875 203 875 231 q 858 129 875 165 q 810 64 841 93 q 737 18 780 35 q 642 0 694 0 l 395 0 q 299 18 342 0 q 226 64 256 35 q 178 129 195 93 q 161 203 161 165 q 153 253 161 231 q 132 288 145 274 q 102 310 119 302 q 69 317 85 317 l 69 328 q 102 335 86 328 q 131 355 118 342 q 151 386 143 368 q 158 424 158 404 l 158 854 q 150 896 158 878 q 130 926 142 913 q 101 945 117 939 q 69 951 85 951 l 69 961 l 488 961 l 488 951 q 455 945 471 951 q 426 925 439 938 q 406 895 414 913 q 399 854 399 877 l 399 136 q 420 77 399 100 q 482 54 441 54 l 554 54 q 616 77 595 54 q 637 136 637 100 l 637 854 q 630 895 637 877 q 609 925 622 913 q 581 945 597 938 q 549 951 565 951 l 549 961 l 966 961 l 966 951 q 935 945 950 951 q 906 926 919 939 q 885 896 893 913 q 878 854 878 878 l 878 424 q 885 386 878 404 q 906 355 893 368 q 934 335 918 342 q 966 328 950 328 l 966 317 m 503 1108 q 422 1060 454 1095 q 379 978 391 1025 l 371 978 q 325 1062 358 1028 q 248 1108 292 1096 l 248 1117 q 325 1163 292 1129 q 371 1247 358 1197 l 379 1247 q 423 1165 392 1199 q 503 1117 454 1131 l 503 1108 m 787 1108 q 707 1060 739 1095 q 664 978 675 1025 l 656 978 q 610 1062 643 1028 q 532 1108 576 1096 l 532 1117 q 610 1163 576 1129 q 656 1247 643 1197 l 664 1247 q 708 1165 677 1199 q 787 1117 739 1131 l 787 1108 z "},"†":{"ha":966,"x_min":35,"x_max":932,"o":"m 932 633 q 854 587 887 621 q 808 503 821 553 l 800 503 q 785 541 795 524 q 764 572 776 559 q 736 593 751 585 q 705 600 722 600 q 675 594 689 600 q 651 578 662 588 q 634 556 641 568 q 624 533 627 545 l 587 533 l 587 40 q 564 30 576 37 q 543 13 552 23 q 527 -12 533 2 q 521 -41 521 -25 q 528 -73 521 -58 q 549 -100 536 -87 q 579 -121 562 -112 q 618 -136 597 -131 l 618 -144 q 534 -190 568 -157 q 488 -268 500 -223 l 479 -268 q 460 -223 473 -243 q 430 -188 447 -203 q 392 -161 413 -172 q 349 -144 372 -151 l 349 -136 q 419 -99 393 -125 q 446 -41 446 -73 q 440 -12 446 -25 q 425 12 434 1 q 403 30 415 22 q 379 40 391 37 l 379 533 l 343 533 q 333 556 340 545 q 315 578 326 568 q 291 594 304 588 q 261 600 277 600 q 230 593 245 600 q 203 572 216 585 q 181 541 191 559 q 167 503 172 524 l 158 503 q 113 587 146 553 q 35 633 79 621 l 35 642 q 79 661 59 648 q 115 691 100 674 q 142 729 131 708 q 158 772 153 749 l 167 772 q 204 702 178 728 q 261 675 230 675 q 291 681 277 675 q 315 696 304 687 q 333 718 326 706 q 343 742 340 730 l 379 742 l 379 778 q 403 788 391 781 q 425 806 415 795 q 440 830 434 817 q 446 860 446 844 q 419 917 446 891 q 349 954 393 943 l 349 962 q 430 1005 395 974 q 479 1086 466 1037 l 488 1086 q 534 1008 500 1041 q 618 962 568 975 l 618 954 q 548 918 576 943 q 521 860 521 892 q 527 830 521 844 q 543 806 533 817 q 564 788 552 795 q 587 778 576 781 l 587 742 l 624 742 q 634 718 627 730 q 652 696 642 706 q 676 681 663 687 q 705 675 689 675 q 763 702 737 675 q 800 772 789 728 l 808 772 q 851 691 820 727 q 932 642 883 655 l 932 633 z "},"¢":{"ha":659,"x_min":56,"x_max":582,"o":"m 572 262 q 568 279 572 270 q 553 298 563 289 q 531 312 544 307 q 500 318 517 318 l 410 318 l 410 252 l 350 252 l 350 318 l 279 318 q 213 330 243 318 q 160 364 182 342 q 125 416 138 386 q 113 481 113 446 l 113 657 q 106 690 113 677 q 92 712 100 704 q 73 724 83 720 q 56 728 63 728 l 56 739 q 76 744 66 739 q 95 759 87 749 q 109 783 104 769 q 114 812 114 796 q 126 871 114 844 q 161 919 139 899 q 214 950 184 939 q 279 961 244 961 l 350 961 l 350 1026 l 410 1026 l 410 961 l 489 961 q 519 967 506 961 q 543 981 533 972 q 557 998 552 989 q 562 1015 562 1008 l 572 1015 l 572 750 l 562 750 q 530 809 548 783 q 492 854 512 835 q 451 885 472 873 q 410 903 430 897 l 410 386 q 458 414 434 396 q 503 456 481 431 q 542 512 524 480 q 572 583 560 544 l 582 583 l 582 262 l 572 262 m 350 371 l 350 908 l 339 908 q 297 895 314 908 q 281 856 281 882 l 281 428 q 297 384 281 397 q 336 371 313 371 l 350 371 z "},"£":{"ha":665,"x_min":62,"x_max":589,"o":"m 579 262 q 574 279 579 270 q 561 298 570 289 q 538 312 551 307 q 507 318 524 318 l 62 318 l 62 328 q 82 332 72 328 q 100 345 92 336 q 114 367 109 354 q 119 397 119 380 l 119 468 q 113 501 119 488 q 98 523 107 515 q 80 535 90 532 q 62 539 70 539 l 62 550 q 80 554 71 550 q 99 566 90 557 q 113 588 107 574 q 119 621 119 602 l 119 799 q 132 863 119 833 q 167 915 144 893 q 220 949 189 937 q 286 961 250 961 l 496 961 q 527 967 513 961 q 550 981 541 972 q 565 998 559 989 q 570 1015 570 1008 l 579 1015 l 579 750 l 570 750 q 530 820 553 790 q 481 869 507 850 q 429 899 455 889 q 378 908 402 908 l 343 908 q 302 893 316 908 q 288 851 288 878 l 288 574 l 300 574 q 321 579 311 574 q 341 594 332 585 q 358 615 351 603 q 368 642 365 627 l 379 642 q 389 613 382 627 q 408 586 397 598 q 433 565 419 574 q 464 553 448 556 l 464 542 q 434 529 448 538 q 409 509 420 521 q 390 482 397 496 q 379 453 382 468 l 368 453 q 358 479 365 467 q 341 501 351 492 q 321 515 332 510 q 300 521 311 521 l 288 521 l 288 371 l 343 371 q 410 384 376 371 q 477 423 445 397 q 535 489 509 449 q 579 583 562 529 l 589 583 l 589 262 l 579 262 z "},"•":{"ha":386,"x_min":35,"x_max":351,"o":"m 351 476 q 256 419 295 460 q 197 318 216 379 l 189 318 q 131 419 170 379 q 35 476 92 460 l 35 485 q 131 542 92 502 q 189 643 170 582 l 197 643 q 257 541 216 581 q 351 485 297 500 l 351 476 z "},"®":{"ha":1143,"x_min":90,"x_max":1053,"o":"m 1053 481 q 1035 353 1053 414 q 987 238 1018 292 q 912 141 956 184 q 815 66 868 97 q 700 17 762 35 q 572 0 639 0 q 444 17 506 0 q 329 66 382 35 q 231 141 275 97 q 156 238 187 184 q 107 353 125 292 q 90 481 90 414 q 107 609 90 547 q 156 724 125 671 q 231 821 187 777 q 329 896 275 865 q 444 944 382 927 q 572 961 506 961 q 700 944 639 961 q 815 896 762 927 q 912 821 868 865 q 987 724 956 777 q 1035 609 1018 671 q 1053 481 1053 547 m 991 481 q 959 645 991 568 q 869 779 926 722 q 735 868 812 836 q 572 901 659 901 q 425 876 494 901 q 300 802 355 850 l 637 802 q 709 790 677 802 q 764 757 741 778 q 799 708 787 736 q 811 644 811 679 l 811 583 q 756 579 783 583 q 706 567 730 575 q 659 545 682 559 q 612 510 636 531 q 652 474 630 493 q 701 438 675 456 q 758 405 728 420 q 819 378 787 389 l 819 239 q 831 196 819 213 q 857 172 842 178 q 956 310 920 231 q 991 481 991 388 m 323 239 l 323 722 q 312 766 323 749 q 285 789 300 783 q 229 726 254 760 q 187 652 204 691 q 160 569 170 612 q 151 481 151 526 q 187 310 151 388 q 285 172 223 231 q 312 195 300 180 q 323 239 323 210 m 842 158 l 597 158 l 597 168 q 617 173 607 168 q 635 185 627 177 q 649 207 644 194 q 654 239 654 220 l 654 292 q 644 347 654 319 q 618 403 634 376 q 582 456 602 431 q 545 505 563 482 q 512 546 527 527 q 492 576 498 564 l 492 239 q 497 208 492 221 q 511 186 503 195 q 529 173 519 177 q 549 168 539 168 l 549 158 l 301 158 q 425 86 356 112 q 572 61 494 61 q 718 86 650 61 q 842 158 787 112 m 646 676 l 646 693 q 631 734 646 719 q 590 749 616 749 l 489 749 q 496 691 489 719 q 516 637 504 663 q 545 589 529 612 q 578 549 561 567 q 608 579 595 564 q 629 608 621 593 q 642 640 637 623 q 646 676 646 656 z "},"©":{"ha":1141,"x_min":90,"x_max":1051,"o":"m 1051 481 q 1014 294 1051 381 q 911 141 976 206 q 759 38 846 75 q 572 0 672 0 q 444 17 506 0 q 329 66 382 35 q 231 141 275 97 q 156 238 187 184 q 107 353 125 292 q 90 481 90 414 q 107 609 90 547 q 156 724 125 671 q 231 821 187 777 q 329 896 275 865 q 444 944 382 927 q 572 961 506 961 q 700 944 639 961 q 814 896 761 927 q 911 821 867 865 q 986 724 955 777 q 1034 609 1017 671 q 1051 481 1051 547 m 991 481 q 978 587 991 536 q 940 684 964 639 q 880 767 915 729 q 802 832 845 804 l 802 595 l 791 595 q 751 664 774 635 q 703 713 728 694 q 651 743 677 733 q 599 753 624 753 l 567 753 q 525 739 541 753 q 509 700 509 726 l 509 272 q 525 228 509 241 q 564 215 541 215 q 631 228 597 215 q 697 267 665 241 q 756 333 729 293 q 800 428 783 373 l 810 428 l 810 135 q 885 201 851 163 q 942 283 918 239 q 979 377 966 327 q 991 481 991 427 m 794 125 q 769 151 787 138 q 726 163 752 163 l 507 163 q 441 175 471 163 q 388 209 410 187 q 353 260 366 231 q 340 325 340 290 l 340 503 q 334 535 340 522 q 319 557 328 549 q 300 569 310 565 q 283 572 291 572 l 283 583 q 304 589 294 583 q 323 604 315 594 q 337 627 332 613 q 342 657 342 640 q 354 716 342 689 q 389 763 367 743 q 442 794 412 783 q 507 806 472 806 l 718 806 q 761 817 743 806 q 787 842 779 828 q 686 886 741 871 q 572 901 631 901 q 408 868 485 901 q 274 779 332 836 q 184 645 217 722 q 151 481 151 568 q 184 317 151 394 q 274 184 217 241 q 408 94 332 127 q 572 61 485 61 q 690 77 634 61 q 794 125 746 94 z "},"™":{"ha":1450,"x_min":14,"x_max":1360,"o":"m 1360 318 l 1078 318 l 1078 328 q 1097 332 1086 328 q 1115 345 1107 336 q 1129 367 1124 353 q 1135 397 1135 380 l 1135 878 q 1095 850 1116 868 q 1058 808 1074 833 q 1030 750 1041 783 q 1019 679 1019 718 l 1019 614 q 1038 567 1019 585 q 1083 543 1057 549 l 1083 532 q 1055 522 1069 529 q 1028 503 1040 514 q 1007 477 1016 492 q 994 447 998 463 l 983 447 q 950 503 976 479 q 895 532 925 526 l 895 543 q 939 567 920 549 q 958 614 958 585 l 958 679 q 947 750 958 718 q 920 808 937 783 q 883 850 903 833 q 843 878 863 868 l 843 397 q 848 367 843 380 q 862 345 854 353 q 881 332 871 336 q 900 328 891 328 l 900 318 l 618 318 l 618 328 q 637 332 627 328 q 656 345 648 336 q 669 367 664 354 q 675 397 675 380 l 675 882 q 669 912 675 899 q 655 935 664 926 q 637 947 647 943 q 618 951 627 951 l 618 961 l 721 961 q 886 923 820 961 q 989 812 952 884 q 1092 923 1025 884 q 1257 961 1158 961 l 1360 961 l 1360 951 q 1341 947 1351 951 q 1322 935 1331 943 q 1308 912 1314 926 q 1303 882 1303 899 l 1303 397 q 1308 367 1303 380 q 1322 345 1314 354 q 1340 332 1330 336 q 1360 328 1350 328 l 1360 318 m 572 750 q 529 824 553 794 q 479 873 505 854 q 428 900 453 892 q 382 908 402 908 l 382 397 q 387 367 382 380 q 401 345 393 354 q 419 332 409 336 q 439 328 429 328 l 439 318 l 157 318 l 157 328 q 176 332 165 328 q 194 345 186 336 q 208 367 203 353 q 214 397 214 380 l 214 908 l 212 908 q 169 900 193 908 q 118 873 144 892 q 67 824 92 854 q 24 750 43 794 l 14 750 l 14 1015 l 24 1015 q 29 998 24 1008 q 43 981 34 989 q 66 967 53 972 q 97 961 80 961 l 498 961 q 530 967 516 961 q 553 981 543 972 q 567 998 562 989 q 572 1015 572 1008 l 582 1015 l 582 750 l 572 750 z "},"´":{"ha":296,"x_min":35,"x_max":261,"o":"m 261 1181 l 122 1025 l 35 1025 l 90 1193 l 261 1193 l 261 1181 z "},"¨":{"ha":610,"x_min":35,"x_max":575,"o":"m 290 1108 q 210 1060 242 1095 q 167 978 178 1025 l 158 978 q 113 1062 146 1028 q 35 1108 79 1096 l 35 1117 q 113 1163 79 1129 q 158 1247 146 1197 l 167 1247 q 211 1165 179 1199 q 290 1117 242 1131 l 290 1108 m 575 1108 q 495 1060 527 1095 q 452 978 463 1025 l 443 978 q 397 1062 431 1028 q 319 1108 364 1096 l 319 1117 q 397 1163 364 1129 q 443 1247 431 1197 l 452 1247 q 495 1165 464 1199 q 575 1117 527 1131 l 575 1108 z "},"Æ":{"ha":1378,"x_min":69,"x_max":1295,"o":"m 637 349 l 637 825 q 615 885 637 864 q 554 907 593 907 l 482 907 q 421 885 444 907 q 399 825 399 864 l 399 349 l 403 349 q 437 357 420 349 q 469 379 454 365 q 495 414 484 394 q 514 457 507 434 l 522 457 q 541 414 529 434 q 567 379 553 394 q 599 357 582 365 q 633 349 616 349 l 637 349 m 1284 -87 q 1277 -55 1284 -71 q 1257 -26 1270 -39 q 1227 -7 1244 -14 q 1187 0 1209 0 l 549 0 l 549 9 q 582 17 566 9 q 610 37 598 24 q 630 67 623 50 q 637 107 637 85 l 637 296 l 633 296 q 599 288 616 296 q 567 265 582 279 q 540 230 552 250 q 522 187 528 210 l 514 187 q 495 232 507 212 q 468 266 483 252 q 436 288 453 280 q 403 296 419 296 l 399 296 l 399 107 q 406 67 399 85 q 426 37 414 50 q 454 17 438 24 q 488 9 471 9 l 488 0 l 69 0 l 69 9 q 103 17 87 9 q 131 37 119 24 q 151 67 143 50 q 158 107 158 85 l 158 221 q 151 259 158 241 q 131 289 143 277 q 102 309 118 302 q 69 317 86 317 l 69 328 q 102 335 86 328 q 131 355 118 342 q 151 386 143 368 q 158 424 158 404 l 158 725 q 175 819 158 776 q 223 893 192 862 q 297 943 254 925 q 395 961 341 961 l 1175 961 q 1215 968 1197 961 q 1245 987 1232 975 q 1265 1016 1258 1000 q 1272 1048 1272 1031 l 1282 1048 l 1282 675 l 1271 675 q 1234 759 1260 718 q 1173 833 1208 801 q 1097 886 1138 866 q 1014 907 1056 907 l 878 907 l 878 349 l 882 349 q 917 357 899 349 q 949 380 934 366 q 975 415 964 395 q 993 457 987 435 l 1002 457 q 1047 373 1015 406 q 1125 326 1079 339 l 1125 318 q 1045 269 1076 304 q 1002 187 1014 234 l 993 187 q 975 230 987 210 q 948 265 964 250 q 916 288 933 279 q 882 296 899 296 l 878 296 l 878 54 l 946 54 q 1024 69 986 54 q 1097 110 1062 84 q 1161 169 1131 135 q 1215 241 1191 203 q 1256 321 1239 280 q 1283 401 1274 362 l 1295 401 l 1295 -87 l 1284 -87 z "},"Ø":{"ha":1036,"x_min":69,"x_max":966,"o":"m 966 317 q 934 309 950 317 q 904 288 918 302 q 883 252 891 273 q 875 203 875 231 q 858 129 875 165 q 810 64 841 93 q 737 18 780 35 q 642 0 694 0 l 395 0 q 386 0 393 0 q 374 1 380 0 l 343 -79 l 283 -79 l 317 12 q 253 42 281 22 q 203 88 224 62 q 172 143 183 113 q 161 203 161 172 q 153 253 161 231 q 132 288 145 274 q 102 310 119 302 q 69 317 85 317 l 69 328 q 102 335 86 328 q 131 355 118 342 q 151 386 143 368 q 158 424 158 404 l 158 725 q 175 819 158 776 q 223 894 192 863 q 298 943 254 926 q 395 961 342 961 l 642 961 q 653 961 645 961 q 672 960 662 961 l 703 1042 l 762 1042 l 728 947 q 790 914 762 935 q 837 864 817 893 q 867 800 857 836 q 878 725 878 765 l 878 425 q 885 387 878 404 q 906 356 893 369 q 934 335 918 342 q 966 328 950 328 l 966 317 m 633 856 q 605 893 626 880 q 554 907 585 907 l 482 907 q 420 885 442 907 q 399 825 399 863 l 399 231 l 633 856 m 637 136 l 637 704 l 407 94 q 436 65 418 75 q 482 54 454 54 l 554 54 q 616 77 595 54 q 637 136 637 100 z "},"¥":{"ha":747,"x_min":69,"x_max":677,"o":"m 677 728 q 626 719 654 727 q 570 697 599 711 q 512 663 541 683 q 456 618 483 643 l 456 514 l 653 514 l 653 457 l 456 457 l 456 397 q 461 367 456 380 q 475 345 467 354 q 493 332 483 336 q 513 328 503 328 l 513 318 l 235 318 l 235 328 q 254 332 244 328 q 273 345 264 336 q 286 367 281 354 q 292 397 292 380 l 292 457 l 94 457 l 94 514 l 292 514 l 292 618 q 236 663 264 643 q 178 697 207 683 q 121 719 149 711 q 69 728 94 727 l 69 739 q 87 743 77 739 q 105 755 97 747 q 120 777 114 764 q 126 810 126 791 l 126 882 q 120 913 126 900 q 106 935 115 926 q 87 947 98 943 q 69 951 77 951 l 69 961 l 347 961 l 347 951 q 328 947 338 951 q 310 935 318 943 q 296 912 301 926 q 290 882 290 899 l 290 688 q 310 672 299 682 q 331 652 320 663 q 353 629 342 641 q 374 606 364 617 q 394 629 382 617 q 416 652 405 641 q 438 672 427 663 q 457 688 449 682 l 457 882 q 452 912 457 899 q 438 935 446 926 q 419 947 429 943 q 400 951 409 951 l 400 961 l 677 961 l 677 951 q 659 947 669 951 q 640 934 648 943 q 626 912 631 925 q 621 882 621 899 l 621 810 q 626 779 621 792 q 640 757 631 766 q 659 744 648 748 q 677 739 669 739 l 677 728 z "},"¿":{"ha":793,"x_min":0,"x_max":717,"o":"m 707 -273 q 700 -240 707 -256 q 680 -212 692 -224 q 649 -193 667 -200 q 610 -186 631 -186 l 325 -186 q 229 -168 272 -186 q 155 -122 186 -151 q 108 -57 125 -93 q 92 17 92 -20 q 83 65 92 44 q 62 101 75 86 q 33 123 50 115 q 0 131 17 131 l 0 142 q 161 156 92 142 q 284 192 231 170 q 373 244 336 214 q 433 309 409 275 q 471 381 457 344 q 492 457 485 419 l 547 457 q 519 351 539 399 q 474 263 499 303 q 422 189 449 223 q 373 121 395 154 q 336 56 351 88 q 322 -14 322 23 l 322 -26 q 331 -73 322 -53 q 354 -106 339 -93 q 388 -126 368 -119 q 429 -132 408 -132 l 449 -132 q 531 -112 490 -132 q 608 -59 572 -92 q 669 16 643 -26 q 705 100 694 57 l 717 100 l 717 -273 l 707 -273 m 648 636 q 568 588 600 623 q 525 505 536 553 l 517 505 q 471 590 504 556 q 393 636 438 623 l 393 644 q 471 691 438 657 q 517 775 504 724 l 525 775 q 569 692 538 727 q 648 644 600 658 l 648 636 z "},"¡":{"ha":555,"x_min":69,"x_max":486,"o":"m 486 -186 l 69 -186 l 69 -176 q 101 -170 85 -176 q 130 -151 117 -163 q 150 -120 142 -138 q 158 -79 158 -102 l 158 457 l 397 457 l 397 -79 q 405 -120 397 -102 q 425 -150 412 -138 q 453 -170 437 -163 q 486 -176 469 -176 l 486 -186 m 406 636 q 326 588 357 623 q 282 505 294 553 l 273 505 q 228 590 261 556 q 150 636 195 623 l 150 644 q 228 691 195 657 q 273 775 261 724 l 282 775 q 326 692 294 727 q 406 644 357 658 l 406 636 z "},"ƒ":{"ha":770,"x_min":14,"x_max":755,"o":"m 746 750 q 702 824 727 794 q 652 873 677 854 q 604 900 627 892 q 567 908 581 908 l 564 908 q 554 906 557 908 q 547 897 551 905 l 481 715 l 635 715 l 635 659 l 460 659 l 370 408 q 318 339 352 360 q 235 318 283 318 l 96 318 q 65 312 79 318 q 42 298 52 307 q 28 279 33 289 q 24 262 24 270 l 14 262 l 14 583 l 24 583 q 58 488 37 528 q 99 422 78 448 q 139 382 120 395 q 168 370 158 370 q 186 386 180 370 l 285 659 l 123 659 l 123 715 l 306 715 l 367 882 q 383 915 374 901 q 406 940 392 930 q 439 956 419 950 q 486 961 458 961 l 672 961 q 703 966 689 961 q 726 980 716 972 q 741 998 736 988 q 746 1015 746 1007 l 755 1015 l 755 750 l 746 750 z "},"«":{"ha":443,"x_min":35,"x_max":408,"o":"m 204 294 l 35 390 l 35 571 l 204 667 l 204 571 l 143 481 l 204 390 l 204 294 m 408 294 l 239 390 l 239 571 l 408 667 l 408 571 l 347 481 l 408 390 l 408 294 z "},"…":{"ha":897,"x_min":35,"x_max":863,"o":"m 290 131 q 210 82 242 117 q 167 0 178 47 l 158 0 q 113 84 146 50 q 35 131 79 118 l 35 139 q 113 185 79 151 q 158 269 146 219 l 167 269 q 211 187 179 221 q 290 139 242 153 l 290 131 m 576 131 q 496 82 528 117 q 453 0 465 47 l 444 0 q 399 84 432 50 q 321 131 366 118 l 321 139 q 399 185 366 151 q 444 269 432 219 l 453 269 q 497 187 465 221 q 576 139 528 153 l 576 131 m 863 131 q 783 82 814 117 q 739 0 751 47 l 730 0 q 685 84 718 50 q 607 131 652 118 l 607 139 q 685 185 652 151 q 730 269 718 219 l 739 269 q 783 187 751 221 q 863 139 814 153 l 863 131 z "},"À":{"ha":1036,"x_min":69,"x_max":966,"o":"m 966 0 l 549 0 l 549 9 q 582 17 566 9 q 610 37 598 24 q 630 67 623 50 q 637 107 637 85 l 637 296 l 633 296 q 599 288 616 296 q 567 265 582 279 q 540 230 552 250 q 522 187 528 210 l 514 187 q 495 232 507 212 q 468 266 483 252 q 436 288 453 280 q 403 296 419 296 l 399 296 l 399 107 q 406 67 399 85 q 426 37 414 50 q 454 17 438 24 q 488 9 471 9 l 488 0 l 69 0 l 69 9 q 103 17 87 9 q 131 37 119 24 q 151 67 143 50 q 158 107 158 85 l 158 221 q 151 259 158 241 q 131 289 143 277 q 102 309 118 302 q 69 317 86 317 l 69 328 q 102 335 86 328 q 131 355 118 342 q 151 386 143 368 q 158 424 158 404 l 158 725 q 175 819 158 776 q 223 893 192 862 q 297 943 254 925 q 395 961 341 961 l 642 961 q 739 943 695 961 q 813 893 783 925 q 861 819 844 862 q 878 725 878 776 l 878 424 q 885 386 878 404 q 906 355 893 368 q 934 335 918 342 q 966 328 950 328 l 966 317 q 934 309 950 317 q 906 289 918 302 q 885 259 893 277 q 878 221 878 241 l 878 107 q 885 67 878 85 q 905 37 892 50 q 933 17 918 24 q 966 9 949 9 l 966 0 m 637 349 l 637 825 q 615 885 637 864 q 554 907 593 907 l 482 907 q 421 885 444 907 q 399 825 399 864 l 399 349 l 403 349 q 437 357 420 349 q 469 379 454 365 q 495 414 484 394 q 514 457 507 434 l 522 457 q 541 414 529 434 q 567 379 553 394 q 599 357 582 365 q 633 349 616 349 l 637 349 m 623 1025 l 534 1025 l 396 1181 l 396 1193 l 567 1193 l 623 1025 z "},"Ã":{"ha":1036,"x_min":69,"x_max":966,"o":"m 966 0 l 549 0 l 549 9 q 582 17 566 9 q 610 37 598 24 q 630 67 623 50 q 637 107 637 85 l 637 296 l 633 296 q 599 288 616 296 q 567 265 582 279 q 540 230 552 250 q 522 187 528 210 l 514 187 q 495 232 507 212 q 468 266 483 252 q 436 288 453 280 q 403 296 419 296 l 399 296 l 399 107 q 406 67 399 85 q 426 37 414 50 q 454 17 438 24 q 488 9 471 9 l 488 0 l 69 0 l 69 9 q 103 17 87 9 q 131 37 119 24 q 151 67 143 50 q 158 107 158 85 l 158 221 q 151 259 158 241 q 131 289 143 277 q 102 309 118 302 q 69 317 86 317 l 69 328 q 102 335 86 328 q 131 355 118 342 q 151 386 143 368 q 158 424 158 404 l 158 725 q 175 819 158 776 q 223 893 192 862 q 297 943 254 925 q 395 961 341 961 l 642 961 q 739 943 695 961 q 813 893 783 925 q 861 819 844 862 q 878 725 878 776 l 878 424 q 885 386 878 404 q 906 355 893 368 q 934 335 918 342 q 966 328 950 328 l 966 317 q 934 309 950 317 q 906 289 918 302 q 885 259 893 277 q 878 221 878 241 l 878 107 q 885 67 878 85 q 905 37 892 50 q 933 17 918 24 q 966 9 949 9 l 966 0 m 637 349 l 637 825 q 615 885 637 864 q 554 907 593 907 l 482 907 q 421 885 444 907 q 399 825 399 864 l 399 349 l 403 349 q 437 357 420 349 q 469 379 454 365 q 495 414 484 394 q 514 457 507 434 l 522 457 q 541 414 529 434 q 567 379 553 394 q 599 357 582 365 q 633 349 616 349 l 637 349 m 746 1202 l 652 1032 l 429 1063 l 390 1025 l 290 1025 l 385 1194 l 607 1164 l 646 1202 l 746 1202 z "},"Õ":{"ha":1036,"x_min":69,"x_max":966,"o":"m 966 317 q 934 309 950 317 q 904 288 918 302 q 883 252 891 273 q 875 203 875 231 q 858 129 875 165 q 810 64 841 93 q 737 18 780 35 q 642 0 694 0 l 395 0 q 299 18 342 0 q 226 64 256 35 q 178 129 195 93 q 161 203 161 165 q 153 253 161 231 q 132 288 145 274 q 102 310 119 302 q 69 317 85 317 l 69 328 q 102 335 86 328 q 131 355 118 342 q 151 386 143 368 q 158 424 158 404 l 158 725 q 175 819 158 776 q 223 894 192 863 q 298 943 254 926 q 395 961 342 961 l 642 961 q 738 943 694 961 q 813 894 782 926 q 861 819 844 863 q 878 725 878 776 l 878 425 q 885 387 878 404 q 906 356 893 369 q 934 335 918 342 q 966 328 950 328 l 966 317 m 637 136 l 637 825 q 615 886 637 865 q 554 907 592 907 l 482 907 q 420 885 442 907 q 399 825 399 863 l 399 136 q 420 77 399 100 q 482 54 441 54 l 554 54 q 616 77 595 54 q 637 136 637 100 m 747 1202 l 653 1032 l 431 1063 l 392 1025 l 292 1025 l 386 1194 l 608 1164 l 647 1202 l 747 1202 z "},"Œ":{"ha":1378,"x_min":69,"x_max":1295,"o":"m 637 136 l 637 825 q 615 886 637 865 q 554 907 592 907 l 482 907 q 420 885 442 907 q 399 825 399 863 l 399 136 q 420 77 399 100 q 482 54 441 54 l 554 54 q 616 77 595 54 q 637 136 637 100 m 1284 -87 q 1277 -55 1284 -71 q 1257 -26 1270 -39 q 1227 -7 1244 -14 q 1187 0 1209 0 l 395 0 q 299 18 342 0 q 226 64 256 35 q 178 129 195 93 q 161 203 161 165 q 153 253 161 231 q 132 288 145 274 q 102 310 119 302 q 69 317 85 317 l 69 328 q 102 335 86 328 q 131 355 118 342 q 151 386 143 368 q 158 424 158 404 l 158 725 q 175 819 158 776 q 223 894 192 863 q 298 943 254 926 q 395 961 342 961 l 1175 961 q 1215 968 1197 961 q 1245 987 1232 975 q 1265 1016 1258 1000 q 1272 1048 1272 1031 l 1282 1048 l 1282 675 l 1271 675 q 1234 759 1260 718 q 1173 833 1208 801 q 1097 886 1138 866 q 1014 907 1056 907 l 878 907 l 878 349 l 882 349 q 917 357 899 349 q 949 380 934 366 q 975 415 964 395 q 993 457 987 435 l 1002 457 q 1047 373 1015 406 q 1125 326 1079 339 l 1125 318 q 1045 269 1076 304 q 1002 187 1014 234 l 993 187 q 975 230 987 210 q 948 265 964 250 q 916 288 933 279 q 882 296 899 296 l 878 296 l 878 54 l 946 54 q 1024 69 986 54 q 1097 110 1062 84 q 1161 169 1131 135 q 1215 241 1191 203 q 1256 321 1239 280 q 1283 401 1274 362 l 1295 401 l 1295 -87 l 1284 -87 z "},"–":{"ha":966,"x_min":35,"x_max":932,"o":"m 932 476 q 854 430 887 464 q 808 346 821 396 l 800 346 q 785 385 795 367 q 764 415 776 402 q 736 435 751 428 q 705 443 722 443 q 675 437 689 443 q 651 421 662 431 q 634 400 641 412 q 624 376 627 388 l 343 376 q 333 400 340 388 q 315 421 326 412 q 291 437 304 431 q 261 443 277 443 q 230 435 245 443 q 203 415 216 428 q 181 385 191 402 q 167 346 172 367 l 158 346 q 113 430 146 396 q 35 476 79 464 l 35 485 q 115 534 83 498 q 158 615 146 569 l 167 615 q 204 545 178 571 q 261 518 230 518 q 291 524 277 518 q 315 539 304 530 q 333 561 326 549 q 343 585 340 572 l 624 585 q 634 561 627 572 q 652 539 642 549 q 676 524 663 530 q 705 518 689 518 q 763 545 737 518 q 800 615 789 571 l 808 615 q 851 534 820 569 q 932 485 883 498 l 932 476 z "},"—":{"ha":1161,"x_min":35,"x_max":1126,"o":"m 1126 476 q 1048 430 1082 464 q 1003 346 1015 396 l 994 346 q 980 385 989 367 q 958 415 970 402 q 931 435 946 428 q 900 443 916 443 q 870 437 884 443 q 846 421 857 431 q 828 400 836 412 q 818 376 821 388 l 343 376 q 333 400 340 388 q 315 421 326 412 q 291 437 304 431 q 261 443 277 443 q 230 435 245 443 q 203 415 216 428 q 181 385 191 402 q 167 346 172 367 l 158 346 q 113 430 146 396 q 35 476 79 464 l 35 485 q 115 534 83 498 q 158 615 146 569 l 167 615 q 204 545 178 571 q 261 518 230 518 q 291 524 277 518 q 315 539 304 530 q 333 561 326 549 q 343 585 340 572 l 818 585 q 829 561 822 572 q 847 539 836 549 q 870 524 857 530 q 900 518 884 518 q 957 545 932 518 q 994 615 983 571 l 1003 615 q 1046 534 1015 569 q 1126 485 1078 498 l 1126 476 z "},"“":{"ha":575,"x_min":35,"x_max":541,"o":"m 272 804 q 237 784 254 796 q 205 756 220 772 q 179 720 191 740 q 161 675 168 699 l 153 675 q 109 757 139 724 q 35 804 79 789 l 35 812 q 125 896 85 842 q 193 1032 165 950 l 208 1032 q 214 946 210 981 q 227 886 219 911 q 247 844 235 861 q 272 812 258 827 l 272 804 m 541 804 q 506 784 523 796 q 473 756 488 772 q 447 720 458 740 q 429 675 435 699 l 421 675 q 302 804 393 774 l 302 812 q 394 896 353 842 q 461 1032 434 950 l 476 1032 q 483 946 478 981 q 495 886 488 911 q 514 844 503 861 q 541 812 526 827 l 541 804 z "},"”":{"ha":575,"x_min":35,"x_max":541,"o":"m 272 895 q 181 811 222 865 q 114 675 141 757 l 98 675 q 92 761 97 726 q 80 821 87 796 q 61 863 72 846 q 35 895 50 880 l 35 903 q 102 950 71 918 q 146 1032 133 983 l 154 1032 q 272 903 182 932 l 272 895 m 541 895 q 449 811 490 865 q 382 675 409 757 l 367 675 q 361 761 366 726 q 348 821 356 796 q 329 863 340 846 q 302 895 317 880 l 302 903 q 337 923 320 911 q 370 951 355 935 q 396 987 385 967 q 414 1032 408 1008 l 422 1032 q 466 950 436 983 q 541 903 496 918 l 541 895 z "},"‘":{"ha":307,"x_min":35,"x_max":272,"o":"m 272 804 q 237 784 254 796 q 205 756 220 772 q 179 720 191 740 q 161 675 168 699 l 153 675 q 109 757 139 724 q 35 804 79 789 l 35 812 q 125 896 85 842 q 193 1032 165 950 l 208 1032 q 214 946 210 981 q 227 886 219 911 q 247 844 235 861 q 272 812 258 827 l 272 804 z "},"’":{"ha":307,"x_min":35,"x_max":272,"o":"m 272 895 q 181 811 222 865 q 114 675 141 757 l 98 675 q 92 761 97 726 q 80 821 87 796 q 61 863 72 846 q 35 895 50 880 l 35 903 q 102 950 71 918 q 146 1032 133 983 l 154 1032 q 272 903 182 932 l 272 895 z "},"Ÿ":{"ha":983,"x_min":49,"x_max":935,"o":"m 935 633 q 846 615 891 631 q 759 577 802 600 q 678 526 716 554 q 611 471 640 498 l 611 107 q 618 67 611 85 q 638 37 626 50 q 667 17 651 24 q 700 9 683 9 l 700 0 l 283 0 l 283 9 q 316 17 300 9 q 345 37 332 24 q 365 67 357 50 q 372 107 372 85 l 372 471 q 291 537 334 507 q 206 587 248 566 q 123 620 163 608 q 49 633 83 632 l 49 644 q 81 651 65 644 q 109 671 96 659 q 130 702 122 684 q 138 741 138 720 l 138 854 q 130 896 138 878 q 109 926 122 913 q 81 945 96 939 q 49 951 65 951 l 49 961 l 464 961 l 464 951 q 432 945 448 951 q 404 926 416 939 q 383 896 391 913 q 375 854 375 878 l 375 545 q 405 519 389 534 q 436 490 420 505 q 466 457 452 474 q 492 422 480 439 q 547 489 515 458 q 608 545 579 521 l 608 854 q 601 896 608 878 q 580 926 593 913 q 551 945 567 939 q 519 951 536 951 l 519 961 l 935 961 l 935 951 q 903 945 919 951 q 874 926 887 939 q 854 896 862 914 q 846 854 846 878 l 846 741 q 853 702 846 720 q 874 671 861 684 q 903 651 887 659 q 935 644 918 644 l 935 633 m 478 1108 q 397 1060 429 1095 q 354 978 366 1025 l 346 978 q 300 1062 333 1028 q 222 1108 267 1096 l 222 1117 q 300 1163 267 1129 q 346 1247 333 1197 l 354 1247 q 398 1165 367 1199 q 478 1117 429 1131 l 478 1108 m 762 1108 q 682 1060 714 1095 q 639 978 650 1025 l 631 978 q 585 1062 618 1028 q 507 1108 552 1096 l 507 1117 q 585 1163 552 1129 q 631 1247 618 1197 l 639 1247 q 683 1165 652 1199 q 762 1117 714 1131 l 762 1108 z "},"€":{"ha":654,"x_min":56,"x_max":578,"o":"m 568 262 q 564 279 568 270 q 549 298 559 289 q 527 312 540 307 q 496 318 513 318 l 279 318 q 213 330 243 318 q 160 364 182 342 q 125 416 138 386 q 113 481 113 446 l 113 562 q 106 595 113 582 q 92 617 100 608 q 74 630 83 626 q 56 633 64 633 l 56 644 q 74 648 64 644 q 92 661 83 652 q 106 683 100 669 q 113 715 113 696 l 113 799 q 125 863 113 833 q 160 915 138 893 q 213 949 182 937 q 279 961 243 961 l 489 961 q 519 967 506 961 q 543 981 533 972 q 557 998 552 989 q 562 1015 562 1008 l 572 1015 l 572 750 l 562 750 q 521 822 545 792 q 472 871 498 852 q 420 899 446 890 q 371 908 394 908 l 336 908 q 296 894 311 908 q 281 851 281 880 l 281 750 l 427 750 l 427 693 l 281 693 l 281 589 l 427 589 l 427 532 l 281 532 l 281 428 q 295 384 281 397 q 332 371 309 371 q 398 384 364 371 q 465 422 433 396 q 524 488 496 448 q 568 583 551 528 l 578 583 l 578 262 l 568 262 z "},"‹":{"ha":239,"x_min":35,"x_max":204,"o":"m 204 294 l 35 390 l 35 571 l 204 667 l 204 571 l 143 481 l 204 390 l 204 294 z "},"›":{"ha":239,"x_min":35,"x_max":204,"o":"m 204 390 l 35 294 l 35 390 l 96 481 l 35 571 l 35 667 l 204 571 l 204 390 z "},"‡":{"ha":966,"x_min":35,"x_max":932,"o":"m 932 176 q 854 130 887 164 q 808 46 821 96 l 800 46 q 785 85 795 67 q 764 115 776 102 q 736 136 751 128 q 705 143 722 143 q 675 137 689 143 q 651 121 662 131 q 634 100 641 112 q 624 77 627 88 l 587 77 l 587 40 q 564 30 576 37 q 543 13 552 23 q 527 -12 533 2 q 521 -41 521 -25 q 528 -73 521 -58 q 549 -100 536 -87 q 579 -121 562 -112 q 618 -136 597 -131 l 618 -144 q 534 -190 568 -157 q 488 -268 500 -223 l 479 -268 q 460 -223 473 -243 q 430 -188 447 -203 q 392 -161 413 -172 q 349 -144 372 -151 l 349 -136 q 419 -99 393 -125 q 446 -41 446 -73 q 440 -12 446 -25 q 425 12 434 1 q 403 30 415 22 q 379 40 391 37 l 379 77 l 343 77 q 333 100 340 88 q 315 121 326 112 q 291 137 304 131 q 261 143 277 143 q 230 136 245 143 q 203 115 216 128 q 181 85 191 102 q 167 46 172 67 l 158 46 q 113 130 146 96 q 35 176 79 164 l 35 184 q 79 204 59 191 q 115 234 100 217 q 142 272 131 251 q 158 315 153 292 l 167 315 q 204 245 178 271 q 261 218 230 218 q 291 224 277 218 q 315 239 304 230 q 333 261 326 249 q 343 285 340 273 l 379 285 l 379 533 l 343 533 q 333 556 340 545 q 315 578 326 568 q 291 594 304 588 q 261 600 277 600 q 230 593 245 600 q 203 572 216 585 q 181 541 191 559 q 167 503 172 524 l 158 503 q 113 587 146 553 q 35 633 79 621 l 35 642 q 79 661 59 648 q 115 691 100 674 q 142 729 131 708 q 158 772 153 749 l 167 772 q 204 702 178 728 q 261 675 230 675 q 291 681 277 675 q 315 696 304 687 q 333 718 326 706 q 343 742 340 730 l 379 742 l 379 778 q 403 788 391 781 q 425 806 415 795 q 440 830 434 817 q 446 860 446 844 q 419 917 446 891 q 349 954 393 943 l 349 962 q 430 1005 395 974 q 479 1086 466 1037 l 488 1086 q 534 1008 500 1041 q 618 962 568 975 l 618 954 q 548 918 576 943 q 521 860 521 892 q 527 830 521 844 q 543 806 533 817 q 564 788 552 795 q 587 778 576 781 l 587 742 l 624 742 q 634 718 627 730 q 652 696 642 706 q 676 681 663 687 q 705 675 689 675 q 763 702 737 675 q 800 772 789 728 l 808 772 q 851 691 820 727 q 932 642 883 655 l 932 633 q 854 587 887 621 q 808 503 821 553 l 800 503 q 785 541 795 524 q 764 572 776 559 q 736 593 751 585 q 705 600 722 600 q 675 594 689 600 q 651 578 662 588 q 634 556 641 568 q 624 533 627 545 l 587 533 l 587 285 l 624 285 q 634 261 627 273 q 652 239 642 249 q 676 224 663 230 q 705 218 689 218 q 763 245 737 218 q 800 315 789 271 l 808 315 q 851 234 820 270 q 932 184 883 198 l 932 176 z "},"„":{"ha":575,"x_min":35,"x_max":541,"o":"m 272 132 q 181 48 222 102 q 114 -87 141 -5 l 98 -87 q 92 -1 97 -37 q 80 59 87 34 q 61 100 72 83 q 35 132 50 117 l 35 140 q 102 188 71 156 q 146 269 133 220 l 154 269 q 272 140 182 170 l 272 132 m 541 132 q 449 48 490 102 q 382 -87 409 -5 l 367 -87 q 361 -1 366 -37 q 348 59 356 34 q 329 100 340 83 q 302 132 317 117 l 302 140 q 337 160 320 149 q 370 188 355 172 q 396 224 385 204 q 414 269 408 245 l 422 269 q 466 188 436 220 q 541 140 496 155 l 541 132 z "},"‰":{"ha":2074,"x_min":35,"x_max":2039,"o":"m 653 633 q 635 629 645 633 q 616 617 625 625 q 602 595 608 608 q 596 562 596 581 l 596 485 q 584 420 596 450 q 551 367 572 389 q 498 331 529 344 q 431 318 468 318 l 257 318 q 190 331 220 318 q 138 366 160 343 q 104 418 116 388 q 92 485 92 449 l 92 562 q 85 595 92 582 q 71 617 79 608 q 53 630 62 626 q 35 633 43 633 l 35 644 q 53 648 43 644 q 71 661 62 652 q 85 683 79 669 q 92 715 92 696 l 92 796 q 102 856 92 827 q 134 909 113 886 q 185 947 155 932 q 257 961 216 961 l 431 961 q 502 947 471 961 q 554 909 533 932 q 586 856 575 886 q 596 796 596 827 l 596 715 q 602 683 596 696 q 617 661 608 669 q 635 648 625 652 q 653 644 645 644 l 653 633 m 921 961 l 574 0 l 509 0 l 859 961 l 921 961 m 428 437 l 428 842 q 413 890 428 872 q 368 908 399 908 l 319 908 q 274 890 289 908 q 260 842 260 872 l 260 437 q 275 389 260 407 q 319 371 291 371 l 368 371 q 412 389 397 371 q 428 437 428 407 m 1400 315 q 1382 311 1392 315 q 1363 299 1372 307 q 1349 277 1354 290 q 1343 244 1343 263 l 1343 167 q 1331 102 1343 132 q 1298 48 1319 71 q 1246 13 1276 26 q 1178 0 1215 0 l 1004 0 q 937 13 968 0 q 885 47 907 25 q 851 100 863 70 q 839 167 839 131 l 839 244 q 833 277 839 264 q 818 299 827 290 q 800 312 810 308 q 782 315 790 315 l 782 326 q 800 330 790 326 q 818 342 810 334 q 833 365 827 351 q 839 397 839 378 l 839 478 q 849 538 839 509 q 881 591 860 568 q 933 629 902 614 q 1004 643 964 643 l 1178 643 q 1249 629 1219 643 q 1301 591 1280 614 q 1332 538 1322 568 q 1343 478 1343 509 l 1343 397 q 1349 365 1343 378 q 1364 342 1355 351 q 1382 330 1373 334 q 1400 326 1392 326 l 1400 315 m 1175 119 l 1175 524 q 1161 572 1175 554 q 1116 590 1146 590 l 1067 590 q 1022 572 1036 590 q 1007 524 1007 554 l 1007 119 q 1023 71 1007 89 q 1067 53 1038 53 l 1116 53 q 1160 71 1144 53 q 1175 119 1175 89 m 2039 315 q 2021 311 2030 315 q 2002 299 2011 307 q 1987 277 1993 290 q 1982 244 1982 263 l 1982 167 q 1970 102 1982 132 q 1937 48 1958 71 q 1885 13 1915 26 q 1817 0 1854 0 l 1643 0 q 1576 13 1607 0 q 1524 47 1546 25 q 1490 100 1502 70 q 1478 167 1478 131 l 1478 244 q 1472 277 1478 264 q 1457 299 1466 290 q 1439 312 1449 308 q 1421 315 1429 315 l 1421 326 q 1439 330 1429 326 q 1457 342 1449 334 q 1472 365 1466 351 q 1478 397 1478 378 l 1478 478 q 1488 538 1478 509 q 1520 591 1499 568 q 1572 629 1541 614 q 1643 643 1603 643 l 1817 643 q 1888 629 1858 643 q 1940 591 1919 614 q 1971 538 1961 568 q 1982 478 1982 509 l 1982 397 q 1988 365 1982 378 q 2003 342 1994 351 q 2021 330 2011 334 q 2039 326 2031 326 l 2039 315 m 1814 119 l 1814 524 q 1800 572 1814 554 q 1754 590 1785 590 l 1706 590 q 1660 572 1675 590 q 1646 524 1646 554 l 1646 119 q 1662 71 1646 89 q 1706 53 1677 53 l 1754 53 q 1799 71 1783 53 q 1814 119 1814 89 z "},"Â":{"ha":1036,"x_min":69,"x_max":966,"o":"m 966 0 l 549 0 l 549 9 q 582 17 566 9 q 610 37 598 24 q 630 67 623 50 q 637 107 637 85 l 637 296 l 633 296 q 599 288 616 296 q 567 265 582 279 q 540 230 552 250 q 522 187 528 210 l 514 187 q 495 232 507 212 q 468 266 483 252 q 436 288 453 280 q 403 296 419 296 l 399 296 l 399 107 q 406 67 399 85 q 426 37 414 50 q 454 17 438 24 q 488 9 471 9 l 488 0 l 69 0 l 69 9 q 103 17 87 9 q 131 37 119 24 q 151 67 143 50 q 158 107 158 85 l 158 221 q 151 259 158 241 q 131 289 143 277 q 102 309 118 302 q 69 317 86 317 l 69 328 q 102 335 86 328 q 131 355 118 342 q 151 386 143 368 q 158 424 158 404 l 158 725 q 175 819 158 776 q 223 893 192 862 q 297 943 254 925 q 395 961 341 961 l 642 961 q 739 943 695 961 q 813 893 783 925 q 861 819 844 862 q 878 725 878 776 l 878 424 q 885 386 878 404 q 906 355 893 368 q 934 335 918 342 q 966 328 950 328 l 966 317 q 934 309 950 317 q 906 289 918 302 q 885 259 893 277 q 878 221 878 241 l 878 107 q 885 67 878 85 q 905 37 892 50 q 933 17 918 24 q 966 9 949 9 l 966 0 m 637 349 l 637 825 q 615 885 637 864 q 554 907 593 907 l 482 907 q 421 885 444 907 q 399 825 399 864 l 399 349 l 403 349 q 437 357 420 349 q 469 379 454 365 q 495 414 484 394 q 514 457 507 434 l 522 457 q 541 414 529 434 q 567 379 553 394 q 599 357 582 365 q 633 349 616 349 l 637 349 m 703 1025 l 610 1025 l 518 1086 l 427 1025 l 334 1025 l 428 1193 l 608 1193 l 703 1025 z "},"Ê":{"ha":913,"x_min":83,"x_max":829,"o":"m 819 -87 q 812 -55 819 -71 q 792 -26 805 -39 q 762 -7 779 -14 q 722 0 744 0 l 83 0 l 83 9 q 116 17 100 9 q 145 37 132 24 q 165 67 157 50 q 172 107 172 85 l 172 220 q 164 258 172 241 q 144 289 157 276 q 116 309 132 302 q 83 317 100 317 l 83 328 q 115 335 99 328 q 143 354 131 342 q 164 385 156 367 q 172 424 172 403 l 172 854 q 164 896 172 878 q 144 926 157 913 q 115 945 131 939 q 83 951 100 951 l 83 961 l 710 961 q 749 968 731 961 q 780 987 767 975 q 800 1016 793 1000 q 807 1048 807 1031 l 817 1048 l 817 675 l 806 675 q 769 759 795 718 q 708 833 743 801 q 632 886 673 866 q 549 907 591 907 l 412 907 l 412 349 l 416 349 q 451 357 434 349 q 484 380 469 366 q 510 415 498 395 q 528 457 522 435 l 536 457 q 582 373 550 406 q 660 326 614 339 l 660 318 q 580 269 611 304 q 536 187 549 234 l 528 187 q 510 230 522 210 q 483 265 498 250 q 451 288 468 279 q 416 296 434 296 l 412 296 l 412 54 l 481 54 q 559 69 521 54 q 631 110 597 84 q 696 169 666 135 q 750 241 726 203 q 791 321 774 280 q 818 401 808 362 l 829 401 l 829 -87 l 819 -87 m 625 1025 l 532 1025 l 440 1086 l 349 1025 l 256 1025 l 350 1193 l 530 1193 l 625 1025 z "},"Á":{"ha":1036,"x_min":69,"x_max":966,"o":"m 966 0 l 549 0 l 549 9 q 582 17 566 9 q 610 37 598 24 q 630 67 623 50 q 637 107 637 85 l 637 296 l 633 296 q 599 288 616 296 q 567 265 582 279 q 540 230 552 250 q 522 187 528 210 l 514 187 q 495 232 507 212 q 468 266 483 252 q 436 288 453 280 q 403 296 419 296 l 399 296 l 399 107 q 406 67 399 85 q 426 37 414 50 q 454 17 438 24 q 488 9 471 9 l 488 0 l 69 0 l 69 9 q 103 17 87 9 q 131 37 119 24 q 151 67 143 50 q 158 107 158 85 l 158 221 q 151 259 158 241 q 131 289 143 277 q 102 309 118 302 q 69 317 86 317 l 69 328 q 102 335 86 328 q 131 355 118 342 q 151 386 143 368 q 158 424 158 404 l 158 725 q 175 819 158 776 q 223 893 192 862 q 297 943 254 925 q 395 961 341 961 l 642 961 q 739 943 695 961 q 813 893 783 925 q 861 819 844 862 q 878 725 878 776 l 878 424 q 885 386 878 404 q 906 355 893 368 q 934 335 918 342 q 966 328 950 328 l 966 317 q 934 309 950 317 q 906 289 918 302 q 885 259 893 277 q 878 221 878 241 l 878 107 q 885 67 878 85 q 905 37 892 50 q 933 17 918 24 q 966 9 949 9 l 966 0 m 637 349 l 637 825 q 615 885 637 864 q 554 907 593 907 l 482 907 q 421 885 444 907 q 399 825 399 864 l 399 349 l 403 349 q 437 357 420 349 q 469 379 454 365 q 495 414 484 394 q 514 457 507 434 l 522 457 q 541 414 529 434 q 567 379 553 394 q 599 357 582 365 q 633 349 616 349 l 637 349 m 639 1181 l 500 1025 l 412 1025 l 468 1193 l 639 1193 l 639 1181 z "},"Ë":{"ha":913,"x_min":83,"x_max":829,"o":"m 819 -87 q 812 -55 819 -71 q 792 -26 805 -39 q 762 -7 779 -14 q 722 0 744 0 l 83 0 l 83 9 q 116 17 100 9 q 145 37 132 24 q 165 67 157 50 q 172 107 172 85 l 172 220 q 164 258 172 241 q 144 289 157 276 q 116 309 132 302 q 83 317 100 317 l 83 328 q 115 335 99 328 q 143 354 131 342 q 164 385 156 367 q 172 424 172 403 l 172 854 q 164 896 172 878 q 144 926 157 913 q 115 945 131 939 q 83 951 100 951 l 83 961 l 710 961 q 749 968 731 961 q 780 987 767 975 q 800 1016 793 1000 q 807 1048 807 1031 l 817 1048 l 817 675 l 806 675 q 769 759 795 718 q 708 833 743 801 q 632 886 673 866 q 549 907 591 907 l 412 907 l 412 349 l 416 349 q 451 357 434 349 q 484 380 469 366 q 510 415 498 395 q 528 457 522 435 l 536 457 q 582 373 550 406 q 660 326 614 339 l 660 318 q 580 269 611 304 q 536 187 549 234 l 528 187 q 510 230 522 210 q 483 265 498 250 q 451 288 468 279 q 416 296 434 296 l 412 296 l 412 54 l 481 54 q 559 69 521 54 q 631 110 597 84 q 696 169 666 135 q 750 241 726 203 q 791 321 774 280 q 818 401 808 362 l 829 401 l 829 -87 l 819 -87 m 425 1108 q 345 1060 376 1095 q 301 978 313 1025 l 293 978 q 248 1062 281 1028 q 170 1108 214 1096 l 170 1117 q 248 1163 214 1129 q 293 1247 281 1197 l 301 1247 q 345 1165 314 1199 q 425 1117 376 1131 l 425 1108 m 710 1108 q 629 1060 661 1095 q 586 978 597 1025 l 578 978 q 532 1062 565 1028 q 454 1108 499 1096 l 454 1117 q 532 1163 499 1129 q 578 1247 565 1197 l 586 1247 q 630 1165 599 1199 q 710 1117 661 1131 l 710 1108 z "},"È":{"ha":913,"x_min":83,"x_max":829,"o":"m 819 -87 q 812 -55 819 -71 q 792 -26 805 -39 q 762 -7 779 -14 q 722 0 744 0 l 83 0 l 83 9 q 116 17 100 9 q 145 37 132 24 q 165 67 157 50 q 172 107 172 85 l 172 220 q 164 258 172 241 q 144 289 157 276 q 116 309 132 302 q 83 317 100 317 l 83 328 q 115 335 99 328 q 143 354 131 342 q 164 385 156 367 q 172 424 172 403 l 172 854 q 164 896 172 878 q 144 926 157 913 q 115 945 131 939 q 83 951 100 951 l 83 961 l 710 961 q 749 968 731 961 q 780 987 767 975 q 800 1016 793 1000 q 807 1048 807 1031 l 817 1048 l 817 675 l 806 675 q 769 759 795 718 q 708 833 743 801 q 632 886 673 866 q 549 907 591 907 l 412 907 l 412 349 l 416 349 q 451 357 434 349 q 484 380 469 366 q 510 415 498 395 q 528 457 522 435 l 536 457 q 582 373 550 406 q 660 326 614 339 l 660 318 q 580 269 611 304 q 536 187 549 234 l 528 187 q 510 230 522 210 q 483 265 498 250 q 451 288 468 279 q 416 296 434 296 l 412 296 l 412 54 l 481 54 q 559 69 521 54 q 631 110 597 84 q 696 169 666 135 q 750 241 726 203 q 791 321 774 280 q 818 401 808 362 l 829 401 l 829 -87 l 819 -87 m 553 1025 l 465 1025 l 326 1181 l 326 1193 l 497 1193 l 553 1025 z "},"Í":{"ha":557,"x_min":69,"x_max":488,"o":"m 488 0 l 69 0 l 69 9 q 103 17 87 9 q 131 37 119 24 q 151 67 143 50 q 158 107 158 85 l 158 854 q 150 896 158 878 q 130 926 142 913 q 101 945 117 939 q 69 951 85 951 l 69 961 l 488 961 l 488 951 q 455 945 471 951 q 426 925 439 938 q 406 895 414 913 q 399 854 399 877 l 399 107 q 406 67 399 85 q 426 36 414 49 q 455 16 439 23 q 488 9 471 9 l 488 0 m 400 1181 l 261 1025 l 174 1025 l 229 1193 l 400 1193 l 400 1181 z "},"Î":{"ha":557,"x_min":69,"x_max":488,"o":"m 488 0 l 69 0 l 69 9 q 103 17 87 9 q 131 37 119 24 q 151 67 143 50 q 158 107 158 85 l 158 854 q 150 896 158 878 q 130 926 142 913 q 101 945 117 939 q 69 951 85 951 l 69 961 l 488 961 l 488 951 q 455 945 471 951 q 426 925 439 938 q 406 895 414 913 q 399 854 399 877 l 399 107 q 406 67 399 85 q 426 36 414 49 q 455 16 439 23 q 488 9 471 9 l 488 0 m 464 1025 l 371 1025 l 279 1086 l 187 1025 l 94 1025 l 189 1193 l 370 1193 l 464 1025 z "},"Ï":{"ha":557,"x_min":8,"x_max":549,"o":"m 488 0 l 69 0 l 69 9 q 103 17 87 9 q 131 37 119 24 q 151 67 143 50 q 158 107 158 85 l 158 854 q 150 896 158 878 q 130 926 142 913 q 101 945 117 939 q 69 951 85 951 l 69 961 l 488 961 l 488 951 q 455 945 471 951 q 426 925 439 938 q 406 895 414 913 q 399 854 399 877 l 399 107 q 406 67 399 85 q 426 36 414 49 q 455 16 439 23 q 488 9 471 9 l 488 0 m 264 1108 q 184 1060 216 1095 q 140 978 152 1025 l 132 978 q 86 1062 119 1028 q 8 1108 53 1096 l 8 1117 q 86 1163 53 1129 q 132 1247 119 1197 l 140 1247 q 184 1165 153 1199 q 264 1117 216 1131 l 264 1108 m 549 1108 q 469 1060 500 1095 q 425 978 437 1025 l 416 978 q 371 1062 404 1028 q 293 1108 338 1096 l 293 1117 q 371 1163 338 1129 q 416 1247 404 1197 l 425 1247 q 469 1165 437 1199 q 549 1117 500 1131 l 549 1108 z "},"Ì":{"ha":557,"x_min":69,"x_max":488,"o":"m 488 0 l 69 0 l 69 9 q 103 17 87 9 q 131 37 119 24 q 151 67 143 50 q 158 107 158 85 l 158 854 q 150 896 158 878 q 130 926 142 913 q 101 945 117 939 q 69 951 85 951 l 69 961 l 488 961 l 488 951 q 455 945 471 951 q 426 925 439 938 q 406 895 414 913 q 399 854 399 877 l 399 107 q 406 67 399 85 q 426 36 414 49 q 455 16 439 23 q 488 9 471 9 l 488 0 m 383 1025 l 296 1025 l 157 1181 l 157 1193 l 328 1193 l 383 1025 z "},"Ó":{"ha":1036,"x_min":69,"x_max":966,"o":"m 966 317 q 934 309 950 317 q 904 288 918 302 q 883 252 891 273 q 875 203 875 231 q 858 129 875 165 q 810 64 841 93 q 737 18 780 35 q 642 0 694 0 l 395 0 q 299 18 342 0 q 226 64 256 35 q 178 129 195 93 q 161 203 161 165 q 153 253 161 231 q 132 288 145 274 q 102 310 119 302 q 69 317 85 317 l 69 328 q 102 335 86 328 q 131 355 118 342 q 151 386 143 368 q 158 424 158 404 l 158 725 q 175 819 158 776 q 223 894 192 863 q 298 943 254 926 q 395 961 342 961 l 642 961 q 738 943 694 961 q 813 894 782 926 q 861 819 844 863 q 878 725 878 776 l 878 425 q 885 387 878 404 q 906 356 893 369 q 934 335 918 342 q 966 328 950 328 l 966 317 m 637 136 l 637 825 q 615 886 637 865 q 554 907 592 907 l 482 907 q 420 885 442 907 q 399 825 399 863 l 399 136 q 420 77 399 100 q 482 54 441 54 l 554 54 q 616 77 595 54 q 637 136 637 100 m 640 1181 l 501 1025 l 414 1025 l 469 1193 l 640 1193 l 640 1181 z "},"Ô":{"ha":1036,"x_min":69,"x_max":966,"o":"m 966 317 q 934 309 950 317 q 904 288 918 302 q 883 252 891 273 q 875 203 875 231 q 858 129 875 165 q 810 64 841 93 q 737 18 780 35 q 642 0 694 0 l 395 0 q 299 18 342 0 q 226 64 256 35 q 178 129 195 93 q 161 203 161 165 q 153 253 161 231 q 132 288 145 274 q 102 310 119 302 q 69 317 85 317 l 69 328 q 102 335 86 328 q 131 355 118 342 q 151 386 143 368 q 158 424 158 404 l 158 725 q 175 819 158 776 q 223 894 192 863 q 298 943 254 926 q 395 961 342 961 l 642 961 q 738 943 694 961 q 813 894 782 926 q 861 819 844 863 q 878 725 878 776 l 878 425 q 885 387 878 404 q 906 356 893 369 q 934 335 918 342 q 966 328 950 328 l 966 317 m 637 136 l 637 825 q 615 886 637 865 q 554 907 592 907 l 482 907 q 420 885 442 907 q 399 825 399 863 l 399 136 q 420 77 399 100 q 482 54 441 54 l 554 54 q 616 77 595 54 q 637 136 637 100 m 704 1025 l 611 1025 l 519 1086 l 428 1025 l 335 1025 l 429 1193 l 610 1193 l 704 1025 z "},"Ò":{"ha":1036,"x_min":69,"x_max":966,"o":"m 966 317 q 934 309 950 317 q 904 288 918 302 q 883 252 891 273 q 875 203 875 231 q 858 129 875 165 q 810 64 841 93 q 737 18 780 35 q 642 0 694 0 l 395 0 q 299 18 342 0 q 226 64 256 35 q 178 129 195 93 q 161 203 161 165 q 153 253 161 231 q 132 288 145 274 q 102 310 119 302 q 69 317 85 317 l 69 328 q 102 335 86 328 q 131 355 118 342 q 151 386 143 368 q 158 424 158 404 l 158 725 q 175 819 158 776 q 223 894 192 863 q 298 943 254 926 q 395 961 342 961 l 642 961 q 738 943 694 961 q 813 894 782 926 q 861 819 844 863 q 878 725 878 776 l 878 425 q 885 387 878 404 q 906 356 893 369 q 934 335 918 342 q 966 328 950 328 l 966 317 m 637 136 l 637 825 q 615 886 637 865 q 554 907 592 907 l 482 907 q 420 885 442 907 q 399 825 399 863 l 399 136 q 420 77 399 100 q 482 54 441 54 l 554 54 q 616 77 595 54 q 637 136 637 100 m 623 1025 l 534 1025 l 396 1181 l 396 1193 l 567 1193 l 623 1025 z "},"Ú":{"ha":1036,"x_min":69,"x_max":966,"o":"m 966 317 q 935 310 951 317 q 905 288 918 302 q 883 253 892 274 q 875 203 875 231 q 858 129 875 165 q 810 64 841 93 q 737 18 780 35 q 642 0 694 0 l 395 0 q 299 18 342 0 q 226 64 256 35 q 178 129 195 93 q 161 203 161 165 q 153 253 161 231 q 132 288 145 274 q 102 310 119 302 q 69 317 85 317 l 69 328 q 102 335 86 328 q 131 355 118 342 q 151 386 143 368 q 158 424 158 404 l 158 854 q 150 896 158 878 q 130 926 142 913 q 101 945 117 939 q 69 951 85 951 l 69 961 l 488 961 l 488 951 q 455 945 471 951 q 426 925 439 938 q 406 895 414 913 q 399 854 399 877 l 399 136 q 420 77 399 100 q 482 54 441 54 l 554 54 q 616 77 595 54 q 637 136 637 100 l 637 854 q 630 895 637 877 q 609 925 622 913 q 581 945 597 938 q 549 951 565 951 l 549 961 l 966 961 l 966 951 q 935 945 950 951 q 906 926 919 939 q 885 896 893 913 q 878 854 878 878 l 878 424 q 885 386 878 404 q 906 355 893 368 q 934 335 918 342 q 966 328 950 328 l 966 317 m 639 1181 l 500 1025 l 412 1025 l 468 1193 l 639 1193 l 639 1181 z "},"Û":{"ha":1036,"x_min":69,"x_max":966,"o":"m 966 317 q 935 310 951 317 q 905 288 918 302 q 883 253 892 274 q 875 203 875 231 q 858 129 875 165 q 810 64 841 93 q 737 18 780 35 q 642 0 694 0 l 395 0 q 299 18 342 0 q 226 64 256 35 q 178 129 195 93 q 161 203 161 165 q 153 253 161 231 q 132 288 145 274 q 102 310 119 302 q 69 317 85 317 l 69 328 q 102 335 86 328 q 131 355 118 342 q 151 386 143 368 q 158 424 158 404 l 158 854 q 150 896 158 878 q 130 926 142 913 q 101 945 117 939 q 69 951 85 951 l 69 961 l 488 961 l 488 951 q 455 945 471 951 q 426 925 439 938 q 406 895 414 913 q 399 854 399 877 l 399 136 q 420 77 399 100 q 482 54 441 54 l 554 54 q 616 77 595 54 q 637 136 637 100 l 637 854 q 630 895 637 877 q 609 925 622 913 q 581 945 597 938 q 549 951 565 951 l 549 961 l 966 961 l 966 951 q 935 945 950 951 q 906 926 919 939 q 885 896 893 913 q 878 854 878 878 l 878 424 q 885 386 878 404 q 906 355 893 368 q 934 335 918 342 q 966 328 950 328 l 966 317 m 703 1025 l 610 1025 l 518 1086 l 427 1025 l 334 1025 l 428 1193 l 608 1193 l 703 1025 z "},"Ù":{"ha":1036,"x_min":69,"x_max":966,"o":"m 966 317 q 935 310 951 317 q 905 288 918 302 q 883 253 892 274 q 875 203 875 231 q 858 129 875 165 q 810 64 841 93 q 737 18 780 35 q 642 0 694 0 l 395 0 q 299 18 342 0 q 226 64 256 35 q 178 129 195 93 q 161 203 161 165 q 153 253 161 231 q 132 288 145 274 q 102 310 119 302 q 69 317 85 317 l 69 328 q 102 335 86 328 q 131 355 118 342 q 151 386 143 368 q 158 424 158 404 l 158 854 q 150 896 158 878 q 130 926 142 913 q 101 945 117 939 q 69 951 85 951 l 69 961 l 488 961 l 488 951 q 455 945 471 951 q 426 925 439 938 q 406 895 414 913 q 399 854 399 877 l 399 136 q 420 77 399 100 q 482 54 441 54 l 554 54 q 616 77 595 54 q 637 136 637 100 l 637 854 q 630 895 637 877 q 609 925 622 913 q 581 945 597 938 q 549 951 565 951 l 549 961 l 966 961 l 966 951 q 935 945 950 951 q 906 926 919 939 q 885 896 893 913 q 878 854 878 878 l 878 424 q 885 386 878 404 q 906 355 893 368 q 934 335 918 342 q 966 328 950 328 l 966 317 m 623 1025 l 534 1025 l 396 1181 l 396 1193 l 567 1193 l 623 1025 z "},"ˆ":{"ha":439,"x_min":35,"x_max":404,"o":"m 404 1025 l 311 1025 l 220 1086 l 127 1025 l 35 1025 l 129 1193 l 310 1193 l 404 1025 z "},"˜":{"ha":525,"x_min":35,"x_max":490,"o":"m 490 1202 l 396 1032 l 174 1063 l 135 1025 l 35 1025 l 129 1194 l 351 1164 l 390 1202 l 490 1202 z "},"¯":{"ha":439,"x_min":35,"x_max":404,"o":"m 404 1050 l 35 1050 l 35 1165 l 404 1165 l 404 1050 z "},"˘":{"ha":433,"x_min":35,"x_max":399,"o":"m 399 1178 q 370 1096 390 1135 q 311 1025 350 1057 l 122 1025 q 35 1178 52 1086 l 123 1178 q 162 1144 139 1156 q 216 1132 186 1132 q 271 1144 247 1132 q 310 1178 294 1156 l 399 1178 z "},"˙":{"ha":325,"x_min":35,"x_max":290,"o":"m 290 1108 q 210 1060 242 1095 q 167 978 178 1025 l 158 978 q 113 1062 146 1028 q 35 1108 79 1096 l 35 1117 q 113 1163 79 1129 q 158 1247 146 1197 l 167 1247 q 211 1165 179 1199 q 290 1117 242 1131 l 290 1108 z "},"˚":{"ha":317,"x_min":35,"x_max":282,"o":"m 171 1109 q 167 1126 171 1120 q 158 1132 163 1132 q 150 1126 154 1132 q 146 1109 146 1120 q 150 1093 146 1097 q 158 1088 155 1088 q 166 1093 161 1088 q 171 1109 171 1097 m 282 1109 q 273 1073 282 1090 q 246 1043 263 1055 q 207 1023 229 1030 q 158 1015 184 1015 q 110 1023 132 1015 q 70 1043 87 1030 q 44 1073 54 1055 q 35 1109 35 1090 q 44 1146 35 1129 q 70 1176 54 1163 q 109 1197 86 1190 q 158 1204 132 1204 q 207 1197 184 1204 q 246 1177 229 1190 q 273 1146 263 1164 q 282 1109 282 1129 z "},"¸":{"ha":286,"x_min":35,"x_max":252,"o":"m 252 -135 q 230 -194 252 -170 q 177 -232 209 -218 q 106 -252 144 -246 q 35 -258 68 -258 l 61 -186 q 82 -169 75 -179 q 91 -150 90 -159 q 90 -130 93 -140 q 78 -114 86 -121 l 123 12 l 180 12 l 158 -46 q 194 -57 177 -50 q 224 -76 211 -64 q 244 -102 237 -87 q 252 -135 252 -117 z "},"˝":{"ha":500,"x_min":35,"x_max":465,"o":"m 261 1181 l 122 1025 l 35 1025 l 90 1193 l 261 1193 l 261 1181 m 465 1181 l 326 1025 l 239 1025 l 294 1193 l 465 1193 l 465 1181 z "},"˛":{"ha":261,"x_min":35,"x_max":227,"o":"m 227 -257 q 164 -251 198 -257 q 102 -230 131 -244 q 54 -192 73 -215 q 35 -135 35 -168 q 70 -67 35 -93 q 164 -39 105 -41 l 164 12 l 216 12 l 216 -109 q 199 -122 205 -113 q 194 -144 193 -132 q 202 -168 194 -156 q 227 -186 210 -179 l 227 -257 z "},"ˇ":{"ha":439,"x_min":35,"x_max":404,"o":"m 404 1193 l 310 1025 l 129 1025 l 35 1193 l 127 1193 l 220 1132 l 311 1193 l 404 1193 z "},")":{"ha":492,"x_min":35,"x_max":457,"o":"m 457 633 q 425 626 441 633 q 396 606 409 619 q 376 575 384 593 q 368 536 368 557 l 368 110 q 355 26 368 63 q 316 -36 341 -11 q 255 -74 291 -61 q 175 -87 219 -87 l 35 -87 l 35 -33 l 127 -33 q 189 -11 166 -33 q 212 49 212 11 l 212 914 q 190 973 212 951 q 127 996 168 996 l 35 996 l 35 1050 l 175 1050 q 256 1037 220 1050 q 316 998 292 1023 q 355 936 341 972 q 368 852 368 899 l 368 741 q 376 702 368 720 q 396 671 384 684 q 425 651 409 659 q 457 644 441 644 l 457 633 z "},"}":{"ha":492,"x_min":35,"x_max":457,"o":"m 457 633 q 425 626 441 633 q 396 606 409 619 q 376 575 384 593 q 368 536 368 557 l 368 110 q 355 26 368 63 q 316 -36 341 -11 q 255 -74 291 -61 q 175 -87 219 -87 l 35 -87 l 35 -33 l 127 -33 q 189 -11 166 -33 q 212 49 212 11 l 212 464 q 221 534 212 504 q 244 585 230 564 q 275 619 258 606 q 307 639 292 632 q 275 659 292 646 q 244 693 258 672 q 221 744 230 714 q 212 814 212 774 l 212 914 q 190 973 212 951 q 127 996 168 996 l 35 996 l 35 1050 l 175 1050 q 256 1037 220 1050 q 316 998 292 1023 q 355 936 341 972 q 368 852 368 899 l 368 741 q 376 702 368 720 q 396 671 384 684 q 425 651 409 659 q 457 644 441 644 l 457 633 z "},"]":{"ha":519,"x_min":35,"x_max":457,"o":"m 457 -87 l 35 -87 l 35 -33 l 212 -33 l 212 996 l 35 996 l 35 1050 l 457 1050 l 457 1040 q 425 1034 441 1040 q 396 1015 409 1027 q 376 984 384 1002 q 368 943 368 966 l 368 741 q 376 702 368 720 q 397 671 385 684 q 426 651 410 659 q 457 644 441 644 l 457 633 q 425 626 441 633 q 396 606 409 619 q 376 575 384 593 q 368 536 368 557 l 368 20 q 376 -21 368 -3 q 396 -52 383 -39 q 424 -71 408 -64 q 457 -78 440 -78 l 457 -87 z "},"\\":{"ha":547,"x_min":35,"x_max":513,"o":"m 513 -87 l 447 -87 l 35 1050 l 98 1050 l 513 -87 z "},"⁄":{"ha":482,"x_min":35,"x_max":447,"o":"m 447 961 l 100 0 l 35 0 l 385 961 l 447 961 z "},".":{"ha":325,"x_min":35,"x_max":290,"o":"m 290 131 q 210 82 242 117 q 167 0 178 47 l 158 0 q 113 84 146 50 q 35 131 79 118 l 35 139 q 113 185 79 151 q 158 269 146 219 l 167 269 q 211 187 179 221 q 290 139 242 153 l 290 131 z "},"·":{"ha":325,"x_min":35,"x_max":290,"o":"m 290 478 q 210 429 242 465 q 167 347 178 394 l 158 347 q 113 431 146 397 q 35 478 79 465 l 35 486 q 113 532 79 498 q 158 616 146 566 l 167 616 q 211 534 179 568 q 290 486 242 500 l 290 478 z "},",":{"ha":307,"x_min":35,"x_max":272,"o":"m 272 132 q 181 48 222 102 q 114 -87 141 -5 l 98 -87 q 92 -1 97 -37 q 80 59 87 34 q 61 100 72 83 q 35 132 50 117 l 35 140 q 102 188 71 156 q 146 269 133 220 l 154 269 q 272 140 182 170 l 272 132 z "},"»":{"ha":443,"x_min":35,"x_max":408,"o":"m 204 390 l 35 294 l 35 390 l 96 481 l 35 571 l 35 667 l 204 571 l 204 390 m 408 390 l 239 294 l 239 390 l 300 481 l 239 571 l 239 667 l 408 571 l 408 390 z "},"‚":{"ha":307,"x_min":35,"x_max":272,"o":"m 272 132 q 181 48 222 102 q 114 -87 141 -5 l 98 -87 q 92 -1 97 -37 q 80 59 87 34 q 61 100 72 83 q 35 132 50 117 l 35 140 q 102 188 71 156 q 146 269 133 220 l 154 269 q 272 140 182 170 l 272 132 z "},"Š":{"ha":940,"x_min":56,"x_max":940,"o":"m 940 317 q 908 310 924 317 q 879 288 892 302 q 857 253 865 274 q 848 203 848 231 q 832 130 848 166 q 785 65 815 94 q 711 18 754 36 q 615 0 668 0 l 243 0 q 204 -7 222 0 q 173 -26 186 -14 q 153 -55 160 -39 q 146 -87 146 -71 l 136 -87 l 136 401 l 147 401 q 174 321 157 362 q 215 241 191 280 q 270 169 239 203 q 334 110 300 135 q 407 69 368 84 q 485 54 445 54 l 511 54 q 552 60 532 54 q 586 79 571 66 q 609 112 600 92 q 618 160 618 132 l 618 167 q 599 273 618 219 q 545 379 581 328 q 460 475 510 430 q 348 555 410 520 q 211 610 285 589 q 56 633 138 631 l 56 644 q 89 652 72 644 q 118 674 105 660 q 139 710 131 689 q 147 758 147 731 q 164 832 147 795 q 211 897 180 868 q 284 943 241 926 q 380 961 328 961 l 684 961 q 723 968 705 961 q 753 987 741 975 q 773 1016 766 1000 q 781 1048 781 1031 l 790 1048 l 790 675 l 779 675 q 743 759 768 718 q 682 833 717 801 q 605 886 646 866 q 522 907 564 907 l 485 907 q 444 900 463 907 q 409 881 424 894 q 386 848 395 867 q 378 802 378 828 l 378 789 q 399 677 378 732 q 459 571 421 621 q 551 476 498 520 q 666 400 604 433 q 798 349 728 368 q 940 328 868 330 l 940 317 m 684 1193 l 589 1025 l 408 1025 l 314 1193 l 407 1193 l 498 1132 l 590 1193 l 684 1193 z "},"a":{"ha":1036,"x_min":69,"x_max":966,"o":"m 966 0 l 549 0 l 549 9 q 582 17 566 9 q 610 37 598 24 q 630 67 623 50 q 637 107 637 85 l 637 296 l 633 296 q 599 288 616 296 q 567 265 582 279 q 540 230 552 250 q 522 187 528 210 l 514 187 q 495 232 507 212 q 468 266 483 252 q 436 288 453 280 q 403 296 419 296 l 399 296 l 399 107 q 406 67 399 85 q 426 37 414 50 q 454 17 438 24 q 488 9 471 9 l 488 0 l 69 0 l 69 9 q 103 17 87 9 q 131 37 119 24 q 151 67 143 50 q 158 107 158 85 l 158 221 q 151 259 158 241 q 131 289 143 277 q 102 309 118 302 q 69 317 86 317 l 69 328 q 102 335 86 328 q 131 355 118 342 q 151 386 143 368 q 158 424 158 404 l 158 725 q 175 819 158 776 q 223 893 192 862 q 297 943 254 925 q 395 961 341 961 l 642 961 q 739 943 695 961 q 813 893 783 925 q 861 819 844 862 q 878 725 878 776 l 878 424 q 885 386 878 404 q 906 355 893 368 q 934 335 918 342 q 966 328 950 328 l 966 317 q 934 309 950 317 q 906 289 918 302 q 885 259 893 277 q 878 221 878 241 l 878 107 q 885 67 878 85 q 905 37 892 50 q 933 17 918 24 q 966 9 949 9 l 966 0 m 637 349 l 637 825 q 615 885 637 864 q 554 907 593 907 l 482 907 q 421 885 444 907 q 399 825 399 864 l 399 349 l 403 349 q 437 357 420 349 q 469 379 454 365 q 495 414 484 394 q 514 457 507 434 l 522 457 q 541 414 529 434 q 567 379 553 394 q 599 357 582 365 q 633 349 616 349 l 637 349 z "},"b":{"ha":956,"x_min":69,"x_max":872,"o":"m 872 236 q 856 142 872 186 q 808 67 839 99 q 733 18 777 36 q 636 0 690 0 l 69 0 l 69 9 q 103 17 87 9 q 131 37 119 24 q 151 67 143 50 q 158 107 158 85 l 158 854 q 150 896 158 878 q 130 926 142 913 q 101 945 117 939 q 69 951 85 951 l 69 961 l 614 961 q 709 944 665 961 q 783 896 752 926 q 832 821 814 865 q 850 725 850 778 l 850 633 q 717 608 782 632 q 585 526 652 583 q 647 469 613 498 q 718 415 681 441 q 794 367 755 389 q 872 326 833 344 l 872 236 m 618 764 l 618 825 q 594 886 618 866 q 534 907 571 907 l 399 907 q 411 811 399 858 q 443 723 423 765 q 488 643 463 680 q 541 575 514 606 q 570 616 556 595 q 595 661 584 637 q 612 710 606 684 q 618 764 618 736 m 639 136 l 639 231 q 624 320 639 277 q 587 403 610 363 q 536 479 564 443 q 481 549 508 515 q 432 613 454 582 q 399 673 410 644 l 399 54 l 555 54 q 615 74 591 54 q 639 136 639 94 z "},"c":{"ha":878,"x_min":56,"x_max":802,"o":"m 791 -87 q 784 -55 791 -71 q 764 -26 777 -39 q 734 -7 751 -14 q 694 0 716 0 l 380 0 q 285 18 328 0 q 212 64 242 35 q 164 129 181 93 q 147 203 147 165 q 139 253 147 231 q 118 288 131 274 q 88 310 104 302 q 56 317 72 317 l 56 328 q 87 335 72 328 q 116 355 103 342 q 137 385 129 368 q 144 424 144 403 l 144 725 q 161 819 144 776 q 210 894 178 863 q 284 943 241 926 q 382 961 328 961 l 682 961 q 722 968 704 961 q 752 987 739 975 q 772 1016 765 1000 q 779 1048 779 1031 l 789 1048 l 789 675 l 778 675 q 741 759 767 718 q 680 833 715 801 q 604 886 645 866 q 521 907 563 907 l 468 907 q 407 886 430 907 q 385 825 385 865 l 385 136 q 406 76 385 98 q 468 54 428 54 q 547 75 502 54 q 638 139 593 96 q 725 247 684 182 q 790 401 766 313 l 802 401 l 802 -87 l 791 -87 z "},"d":{"ha":1003,"x_min":69,"x_max":878,"o":"m 878 236 q 860 140 878 183 q 811 65 842 96 q 736 17 780 35 q 642 0 693 0 l 69 0 l 69 9 q 103 17 87 9 q 132 37 119 24 q 151 68 144 50 q 158 107 158 86 l 158 854 q 150 896 158 878 q 130 926 142 914 q 101 945 117 939 q 69 951 85 951 l 69 961 l 642 961 q 738 943 694 961 q 813 894 782 926 q 861 819 844 863 q 878 725 878 776 l 878 236 m 637 136 l 637 825 q 615 885 637 864 q 553 907 593 907 l 399 907 l 399 54 l 554 54 q 616 76 594 54 q 637 136 637 98 z "},"e":{"ha":913,"x_min":83,"x_max":829,"o":"m 819 -87 q 812 -55 819 -71 q 792 -26 805 -39 q 762 -7 779 -14 q 722 0 744 0 l 83 0 l 83 9 q 116 17 100 9 q 145 37 132 24 q 165 67 157 50 q 172 107 172 85 l 172 220 q 164 258 172 241 q 144 289 157 276 q 116 309 132 302 q 83 317 100 317 l 83 328 q 115 335 99 328 q 143 354 131 342 q 164 385 156 367 q 172 424 172 403 l 172 854 q 164 896 172 878 q 144 926 157 913 q 115 945 131 939 q 83 951 100 951 l 83 961 l 710 961 q 749 968 731 961 q 780 987 767 975 q 800 1016 793 1000 q 807 1048 807 1031 l 817 1048 l 817 675 l 806 675 q 769 759 795 718 q 708 833 743 801 q 632 886 673 866 q 549 907 591 907 l 412 907 l 412 349 l 416 349 q 451 357 434 349 q 484 380 469 366 q 510 415 498 395 q 528 457 522 435 l 536 457 q 582 373 550 406 q 660 326 614 339 l 660 318 q 580 269 611 304 q 536 187 549 234 l 528 187 q 510 230 522 210 q 483 265 498 250 q 451 288 468 279 q 416 296 434 296 l 412 296 l 412 54 l 481 54 q 559 69 521 54 q 631 110 597 84 q 696 169 666 135 q 750 241 726 203 q 791 321 774 280 q 818 401 808 362 l 829 401 l 829 -87 l 819 -87 z "},"f":{"ha":844,"x_min":83,"x_max":817,"o":"m 817 675 l 806 675 q 769 759 795 718 q 708 833 743 801 q 632 886 673 866 q 549 907 591 907 l 412 907 l 412 349 l 416 349 q 451 357 434 349 q 484 380 469 366 q 510 415 498 395 q 528 457 522 435 l 536 457 q 582 373 550 406 q 660 326 614 339 l 660 318 q 580 270 612 304 q 536 187 548 235 l 528 187 q 510 230 522 210 q 483 265 498 250 q 451 288 468 279 q 416 296 434 296 l 412 296 l 412 107 q 420 67 412 85 q 440 36 428 49 q 469 16 453 23 q 501 9 485 9 l 501 0 l 83 0 l 83 9 q 117 17 101 9 q 146 37 134 24 q 165 68 158 50 q 172 107 172 86 l 172 220 q 164 258 172 241 q 144 289 157 276 q 116 309 132 302 q 83 317 100 317 l 83 328 q 115 335 100 328 q 144 355 131 342 q 164 385 157 368 q 172 424 172 403 l 172 854 q 164 896 172 878 q 144 926 157 913 q 115 945 131 939 q 83 951 100 951 l 83 961 l 710 961 q 749 968 731 961 q 780 987 767 975 q 800 1016 793 1000 q 807 1048 807 1031 l 817 1048 l 817 675 z "},"g":{"ha":993,"x_min":62,"x_max":958,"o":"m 958 0 l 387 0 q 291 18 334 0 q 216 67 247 35 q 168 142 185 98 q 151 236 151 185 l 151 538 q 144 575 151 558 q 124 606 136 593 q 95 626 111 618 q 62 633 79 633 l 62 644 q 94 651 78 644 q 124 673 111 659 q 145 708 137 687 q 154 758 154 730 q 171 832 154 796 q 219 897 188 869 q 293 943 250 926 q 387 961 336 961 l 690 961 q 730 968 712 961 q 760 987 747 975 q 780 1016 773 1000 q 787 1048 787 1031 l 798 1048 l 798 675 l 786 675 q 749 759 775 718 q 688 833 724 801 q 612 886 653 866 q 529 907 571 907 l 475 907 q 413 884 434 907 q 392 825 392 862 l 392 136 q 414 76 392 98 q 475 54 435 54 l 549 54 q 610 76 589 54 q 632 136 632 98 l 632 536 q 624 578 632 560 q 603 608 616 596 q 575 627 591 621 q 543 633 559 633 l 543 643 l 958 643 l 958 633 q 925 627 941 633 q 897 607 909 620 q 877 576 884 594 q 869 536 869 558 l 869 107 q 877 67 869 85 q 897 37 884 50 q 925 17 909 24 q 958 9 941 9 l 958 0 z "},"h":{"ha":1064,"x_min":83,"x_max":981,"o":"m 981 0 l 562 0 l 562 9 q 596 17 580 9 q 625 37 612 24 q 644 68 637 50 q 652 107 652 86 l 652 612 l 647 612 q 613 604 630 612 q 581 582 595 596 q 554 547 566 567 q 536 504 543 527 l 528 504 q 509 548 521 528 q 482 583 497 568 q 450 605 467 597 q 416 612 433 612 l 412 612 l 412 107 q 420 67 412 85 q 440 36 428 49 q 469 16 453 23 q 501 9 485 9 l 501 0 l 83 0 l 83 9 q 116 17 100 9 q 145 37 132 24 q 165 67 157 50 q 172 107 172 85 l 172 536 q 164 575 172 557 q 144 606 157 593 q 115 626 131 619 q 83 633 100 633 l 83 644 q 116 652 100 644 q 144 672 132 659 q 164 703 157 685 q 172 741 172 720 l 172 854 q 164 896 172 878 q 144 926 157 913 q 115 945 131 939 q 83 951 100 951 l 83 961 l 501 961 l 501 951 q 469 945 485 951 q 441 926 454 939 q 420 896 428 913 q 412 854 412 878 l 412 665 l 416 665 q 451 673 434 665 q 483 696 468 682 q 509 731 498 711 q 528 774 521 751 l 536 774 q 555 731 543 751 q 581 696 566 711 q 613 673 596 682 q 647 665 630 665 l 652 665 l 652 854 q 644 896 652 878 q 623 926 636 913 q 594 945 610 939 q 562 951 578 951 l 562 961 l 981 961 l 981 951 q 948 945 964 951 q 920 926 932 939 q 900 896 907 913 q 892 854 892 878 l 892 741 q 899 703 892 720 q 919 672 907 685 q 948 652 932 659 q 981 644 964 644 l 981 633 q 948 626 964 633 q 920 606 932 619 q 900 575 907 593 q 892 536 892 557 l 892 107 q 899 67 892 85 q 919 37 907 50 q 947 17 931 24 q 981 9 964 9 l 981 0 z "},"i":{"ha":557,"x_min":69,"x_max":488,"o":"m 488 0 l 69 0 l 69 9 q 103 17 87 9 q 131 37 119 24 q 151 67 143 50 q 158 107 158 85 l 158 854 q 150 896 158 878 q 130 926 142 913 q 101 945 117 939 q 69 951 85 951 l 69 961 l 488 961 l 488 951 q 455 945 471 951 q 426 925 439 938 q 406 895 414 913 q 399 854 399 877 l 399 107 q 406 67 399 85 q 426 36 414 49 q 455 16 439 23 q 488 9 471 9 l 488 0 z "},"ı":{"ha":557,"x_min":69,"x_max":488,"o":"m 488 0 l 69 0 l 69 9 q 103 17 87 9 q 131 37 119 24 q 151 67 143 50 q 158 107 158 85 l 158 854 q 150 896 158 878 q 130 926 142 913 q 101 945 117 939 q 69 951 85 951 l 69 961 l 488 961 l 488 951 q 455 945 471 951 q 426 925 439 938 q 406 895 414 913 q 399 854 399 877 l 399 107 q 406 67 399 85 q 426 36 414 49 q 455 16 439 23 q 488 9 471 9 l 488 0 z "},"j":{"ha":843,"x_min":28,"x_max":774,"o":"m 774 951 q 741 945 757 951 q 712 925 725 938 q 692 895 700 913 q 685 854 685 877 l 685 236 q 668 143 685 186 q 620 68 651 100 q 545 18 589 37 q 449 0 502 0 l 135 0 q 96 -7 114 0 q 65 -26 78 -14 q 44 -55 52 -39 q 37 -87 37 -71 l 28 -87 l 28 401 l 39 401 q 104 247 63 313 q 191 139 145 182 q 282 75 237 96 q 361 54 327 54 q 420 74 397 54 q 444 136 444 94 l 444 854 q 436 897 444 878 q 415 927 428 915 q 387 945 402 939 q 355 951 371 951 l 355 961 l 774 961 l 774 951 z "},"k":{"ha":996,"x_min":69,"x_max":961,"o":"m 961 0 l 550 0 l 550 9 q 584 17 568 9 q 612 37 600 24 q 632 68 625 50 q 639 107 639 86 l 639 231 q 626 316 639 275 q 590 398 612 357 q 537 478 567 438 q 472 559 507 518 q 445 505 458 536 q 421 437 431 474 q 405 359 411 401 q 399 271 399 317 l 399 107 q 406 67 399 85 q 426 36 414 49 q 455 16 439 23 q 488 9 471 9 l 488 0 l 69 0 l 69 9 q 103 17 87 9 q 131 37 119 24 q 151 67 143 50 q 158 107 158 85 l 158 854 q 150 896 158 878 q 130 926 142 913 q 101 945 117 939 q 69 951 85 951 l 69 961 l 488 961 l 488 951 q 455 945 471 951 q 426 925 439 938 q 406 895 414 913 q 399 854 399 877 l 399 538 q 441 627 414 581 q 504 716 468 672 q 582 801 539 760 q 672 877 625 842 q 768 941 719 913 q 867 987 818 969 l 867 675 l 857 675 q 836 722 853 703 q 791 750 818 741 q 729 756 764 759 q 657 738 694 754 q 582 692 620 722 q 509 615 543 662 q 577 534 538 574 q 665 455 617 493 q 765 384 712 417 q 872 326 817 351 l 872 107 q 880 67 872 85 q 900 36 888 49 q 929 16 913 23 q 961 9 945 9 l 961 0 z "},"l":{"ha":843,"x_min":69,"x_max":815,"o":"m 806 -87 q 799 -55 806 -71 q 778 -26 791 -39 q 747 -7 765 -14 q 708 0 730 0 l 69 0 l 69 9 q 103 17 87 9 q 131 37 119 24 q 151 67 143 50 q 158 107 158 85 l 158 854 q 150 896 158 878 q 130 926 142 913 q 101 945 117 939 q 69 951 85 951 l 69 961 l 488 961 l 488 951 q 455 945 471 951 q 426 925 439 938 q 406 895 414 913 q 399 854 399 877 l 399 54 l 467 54 q 545 69 507 54 q 617 110 583 84 q 682 169 652 135 q 735 241 711 203 q 777 321 760 280 q 804 401 795 362 l 815 401 l 815 -87 l 806 -87 z "},"m":{"ha":1231,"x_min":69,"x_max":1161,"o":"m 1161 0 l 743 0 l 743 9 q 776 17 760 9 q 805 37 792 24 q 825 67 817 50 q 832 107 832 85 l 832 872 q 752 824 787 854 q 693 753 717 793 q 657 662 669 712 q 646 554 646 612 l 646 443 q 654 405 646 423 q 676 371 663 387 q 707 345 690 356 q 743 328 725 334 l 743 319 q 700 301 720 313 q 664 271 680 288 q 636 234 648 254 q 619 189 625 213 l 611 189 q 568 271 601 235 q 488 319 536 306 l 488 328 q 521 343 504 332 q 552 369 538 354 q 575 403 566 385 q 585 443 585 422 l 585 554 q 537 753 585 671 q 399 872 490 836 l 399 107 q 406 67 399 85 q 426 36 414 49 q 455 16 439 23 q 488 9 471 9 l 488 0 l 69 0 l 69 9 q 103 17 87 9 q 131 37 119 24 q 151 67 143 50 q 158 107 158 85 l 158 854 q 150 896 158 878 q 130 926 142 913 q 101 945 117 939 q 69 951 85 951 l 69 961 l 211 961 q 355 945 289 961 q 472 898 420 929 q 559 821 523 867 q 615 714 596 774 q 757 897 653 833 q 1021 961 861 961 l 1161 961 l 1161 951 q 1129 945 1145 951 q 1101 926 1114 939 q 1080 896 1088 913 q 1072 854 1072 878 l 1072 107 q 1080 67 1072 85 q 1100 37 1087 50 q 1128 17 1112 24 q 1161 9 1144 9 l 1161 0 z "},"n":{"ha":1038,"x_min":69,"x_max":968,"o":"m 968 0 l 550 0 l 550 9 q 583 16 567 9 q 611 36 599 23 q 631 67 624 49 q 639 107 639 85 l 639 371 q 618 562 639 480 q 563 702 597 644 q 486 799 528 761 q 399 857 443 836 l 399 107 q 406 67 399 85 q 426 37 414 50 q 454 17 438 24 q 488 9 471 9 l 488 0 l 69 0 l 69 9 q 103 17 87 9 q 131 37 119 24 q 151 67 143 50 q 158 107 158 85 l 158 854 q 150 896 158 878 q 130 926 142 913 q 101 945 117 939 q 69 951 85 951 l 69 961 l 165 961 q 350 936 270 961 q 487 870 429 911 q 582 776 545 829 q 639 668 619 723 l 639 961 l 968 961 l 968 951 q 936 945 951 951 q 907 925 920 938 q 887 895 895 913 q 879 854 879 877 l 879 107 q 887 67 879 85 q 907 36 895 49 q 936 16 920 23 q 968 9 951 9 l 968 0 z "},"o":{"ha":1036,"x_min":69,"x_max":966,"o":"m 966 317 q 934 309 950 317 q 904 288 918 302 q 883 252 891 273 q 875 203 875 231 q 858 129 875 165 q 810 64 841 93 q 737 18 780 35 q 642 0 694 0 l 395 0 q 299 18 342 0 q 226 64 256 35 q 178 129 195 93 q 161 203 161 165 q 153 253 161 231 q 132 288 145 274 q 102 310 119 302 q 69 317 85 317 l 69 328 q 102 335 86 328 q 131 355 118 342 q 151 386 143 368 q 158 424 158 404 l 158 725 q 175 819 158 776 q 223 894 192 863 q 298 943 254 926 q 395 961 342 961 l 642 961 q 738 943 694 961 q 813 894 782 926 q 861 819 844 863 q 878 725 878 776 l 878 425 q 885 387 878 404 q 906 356 893 369 q 934 335 918 342 q 966 328 950 328 l 966 317 m 637 136 l 637 825 q 615 886 637 865 q 554 907 592 907 l 482 907 q 420 885 442 907 q 399 825 399 863 l 399 136 q 420 77 399 100 q 482 54 441 54 l 554 54 q 616 77 595 54 q 637 136 637 100 z "},"p":{"ha":878,"x_min":69,"x_max":850,"o":"m 850 633 q 726 614 791 633 q 600 557 661 595 q 487 464 539 519 q 399 336 434 409 l 399 107 q 406 67 399 85 q 426 37 414 50 q 454 17 438 24 q 488 9 471 9 l 488 0 l 69 0 l 69 9 q 102 16 86 9 q 131 36 118 23 q 151 67 143 49 q 158 107 158 85 l 158 854 q 150 896 158 878 q 130 926 142 914 q 101 945 117 939 q 69 951 85 951 l 69 961 l 614 961 q 710 943 667 961 q 785 894 754 926 q 833 819 816 863 q 850 725 850 776 l 850 633 m 618 758 l 618 825 q 594 887 618 867 q 534 907 570 907 l 399 907 l 399 449 q 433 493 412 471 q 479 538 455 515 q 528 586 503 561 q 573 637 553 610 q 605 694 593 664 q 618 758 618 724 z "},"q":{"ha":1036,"x_min":69,"x_max":1000,"o":"m 637 336 l 637 825 q 615 886 637 865 q 554 907 592 907 l 482 907 q 420 885 442 907 q 399 825 399 863 l 399 336 q 439 356 420 342 q 473 387 458 369 q 498 425 488 404 q 513 465 509 445 l 524 465 q 537 425 527 446 q 563 387 547 405 q 597 356 578 370 q 637 336 616 342 m 637 136 l 637 309 q 606 294 623 304 q 576 271 590 285 q 553 239 562 257 q 545 200 545 222 l 545 54 l 554 54 q 616 77 595 54 q 637 136 637 100 m 492 54 l 492 200 q 483 239 492 222 q 460 270 474 256 q 431 294 447 284 q 399 309 414 303 l 399 136 q 420 77 399 100 q 482 54 441 54 l 492 54 m 966 317 q 934 309 950 317 q 904 288 918 302 q 883 252 891 273 q 875 203 875 231 q 858 129 875 165 q 810 64 841 93 q 737 18 780 35 q 642 0 694 0 l 545 0 l 545 -22 q 551 -55 545 -39 q 569 -82 557 -70 q 595 -100 580 -94 q 629 -107 611 -107 l 757 -107 q 792 -99 774 -107 q 824 -75 809 -90 q 850 -41 839 -60 q 868 1 862 -21 l 876 1 q 922 -83 890 -49 q 1000 -129 954 -117 l 1000 -138 q 920 -186 951 -151 q 876 -268 889 -222 l 868 -268 q 850 -225 862 -245 q 823 -191 838 -205 q 791 -168 808 -176 q 757 -160 774 -160 l 629 -160 q 576 -149 602 -160 q 533 -120 551 -138 q 503 -76 514 -101 q 492 -22 492 -51 l 492 0 l 395 0 q 299 18 342 0 q 226 64 256 35 q 178 129 195 93 q 161 203 161 165 q 153 253 161 231 q 132 288 145 274 q 102 310 119 302 q 69 317 85 317 l 69 328 q 102 335 86 328 q 131 355 118 342 q 151 386 143 368 q 158 424 158 404 l 158 725 q 175 819 158 776 q 223 894 192 863 q 298 943 254 926 q 395 961 342 961 l 642 961 q 738 943 694 961 q 813 894 782 926 q 861 819 844 863 q 878 725 878 776 l 878 425 q 885 387 878 404 q 906 356 893 369 q 934 335 918 342 q 966 328 950 328 l 966 317 z "},"r":{"ha":982,"x_min":69,"x_max":961,"o":"m 961 0 l 550 0 l 550 9 q 584 17 568 9 q 612 37 600 24 q 631 67 624 50 q 639 107 639 85 l 639 231 q 624 320 639 277 q 587 403 610 363 q 536 479 564 443 q 481 549 508 515 q 432 613 454 582 q 399 673 410 644 l 399 107 q 406 67 399 85 q 426 37 414 50 q 454 17 438 24 q 488 9 471 9 l 488 0 l 69 0 l 69 9 q 103 17 87 9 q 131 37 119 24 q 151 67 143 50 q 158 107 158 85 l 158 854 q 150 896 158 878 q 130 926 142 913 q 101 945 117 939 q 69 951 85 951 l 69 961 l 614 961 q 709 944 665 961 q 783 896 752 926 q 832 821 814 865 q 850 725 850 778 l 850 633 q 719 609 784 633 q 585 526 653 585 q 646 471 613 498 q 716 417 680 443 q 792 368 753 391 q 872 326 831 345 l 872 107 q 880 67 872 85 q 900 36 888 49 q 929 16 913 23 q 961 9 945 9 l 961 0 m 618 764 l 618 825 q 596 885 618 863 q 534 907 574 907 l 399 907 q 411 808 399 856 q 444 719 424 761 q 490 640 465 677 q 541 575 515 604 q 570 616 556 595 q 595 661 584 637 q 612 710 606 684 q 618 764 618 736 z "},"s":{"ha":940,"x_min":56,"x_max":940,"o":"m 940 317 q 908 310 924 317 q 879 288 892 302 q 857 253 865 274 q 848 203 848 231 q 832 130 848 166 q 785 65 815 94 q 711 18 754 36 q 615 0 668 0 l 243 0 q 204 -7 222 0 q 173 -26 186 -14 q 153 -55 160 -39 q 146 -87 146 -71 l 136 -87 l 136 401 l 147 401 q 174 321 157 362 q 215 241 191 280 q 270 169 239 203 q 334 110 300 135 q 407 69 368 84 q 485 54 445 54 l 511 54 q 552 60 532 54 q 586 79 571 66 q 609 112 600 92 q 618 160 618 132 l 618 167 q 599 273 618 219 q 545 379 581 328 q 460 475 510 430 q 348 555 410 520 q 211 610 285 589 q 56 633 138 631 l 56 644 q 89 652 72 644 q 118 674 105 660 q 139 710 131 689 q 147 758 147 731 q 164 832 147 795 q 211 897 180 868 q 284 943 241 926 q 380 961 328 961 l 684 961 q 723 968 705 961 q 753 987 741 975 q 773 1016 766 1000 q 781 1048 781 1031 l 790 1048 l 790 675 l 779 675 q 743 759 768 718 q 682 833 717 801 q 605 886 646 866 q 522 907 564 907 l 485 907 q 444 900 463 907 q 409 881 424 894 q 386 848 395 867 q 378 802 378 828 l 378 789 q 399 677 378 732 q 459 571 421 621 q 551 476 498 520 q 666 400 604 433 q 798 349 728 368 q 940 328 868 330 l 940 317 z "},"t":{"ha":860,"x_min":14,"x_max":846,"o":"m 639 0 l 221 0 l 221 9 q 254 17 238 9 q 282 37 270 24 q 302 67 295 50 q 310 107 310 85 l 310 907 l 282 907 q 199 886 241 907 q 123 833 158 866 q 62 759 87 801 q 25 675 36 718 l 14 675 l 14 1048 l 24 1048 q 31 1016 24 1031 q 51 987 38 1000 q 82 968 64 975 q 121 961 100 961 l 739 961 q 779 968 761 961 q 809 987 796 975 q 829 1016 822 1000 q 836 1048 836 1031 l 846 1048 l 846 675 l 835 675 q 798 759 824 718 q 737 833 772 801 q 661 886 702 866 q 578 907 620 907 l 550 907 l 550 107 q 557 67 550 85 q 577 37 565 50 q 606 17 589 24 q 639 9 622 9 l 639 0 z "},"u":{"ha":1036,"x_min":69,"x_max":966,"o":"m 966 317 q 935 310 951 317 q 905 288 918 302 q 883 253 892 274 q 875 203 875 231 q 858 129 875 165 q 810 64 841 93 q 737 18 780 35 q 642 0 694 0 l 395 0 q 299 18 342 0 q 226 64 256 35 q 178 129 195 93 q 161 203 161 165 q 153 253 161 231 q 132 288 145 274 q 102 310 119 302 q 69 317 85 317 l 69 328 q 102 335 86 328 q 131 355 118 342 q 151 386 143 368 q 158 424 158 404 l 158 854 q 150 896 158 878 q 130 926 142 913 q 101 945 117 939 q 69 951 85 951 l 69 961 l 488 961 l 488 951 q 455 945 471 951 q 426 925 439 938 q 406 895 414 913 q 399 854 399 877 l 399 136 q 420 77 399 100 q 482 54 441 54 l 554 54 q 616 77 595 54 q 637 136 637 100 l 637 854 q 630 895 637 877 q 609 925 622 913 q 581 945 597 938 q 549 951 565 951 l 549 961 l 966 961 l 966 951 q 935 945 950 951 q 906 926 919 939 q 885 896 893 913 q 878 854 878 878 l 878 424 q 885 386 878 404 q 906 355 893 368 q 934 335 918 342 q 966 328 950 328 l 966 317 z "},"v":{"ha":1008,"x_min":56,"x_max":953,"o":"m 953 317 q 874 303 916 315 q 790 270 833 291 q 705 220 747 249 q 626 156 663 191 q 558 82 589 121 q 509 0 528 43 l 500 0 q 450 82 481 42 q 382 156 420 121 q 303 220 345 191 q 218 270 261 249 q 134 303 176 291 q 56 317 92 315 l 56 328 q 87 335 72 328 q 116 355 103 342 q 137 385 129 368 q 144 424 144 403 l 144 854 q 137 896 144 878 q 116 926 129 913 q 87 945 103 939 q 56 951 72 951 l 56 961 l 473 961 l 473 951 q 441 945 457 951 q 413 926 426 939 q 392 896 400 913 q 385 854 385 878 l 385 231 q 416 204 399 220 q 449 172 433 189 q 479 137 465 155 q 504 103 494 119 q 529 137 514 119 q 559 172 543 155 q 592 204 575 189 q 624 231 609 219 l 624 854 q 616 895 624 877 q 596 925 608 913 q 567 945 583 938 q 534 951 551 951 l 534 961 l 953 961 l 953 951 q 920 945 936 951 q 891 925 904 938 q 871 895 879 913 q 864 854 864 877 l 864 425 q 872 386 864 404 q 892 355 880 368 q 921 335 905 342 q 953 328 937 328 l 953 317 z "},"w":{"ha":1203,"x_min":56,"x_max":1147,"o":"m 1147 317 q 1069 303 1111 315 q 984 270 1027 291 q 898 219 941 248 q 819 156 856 191 q 751 81 781 121 q 701 0 720 42 l 694 0 q 638 68 662 31 q 602 149 614 106 q 564 66 588 104 q 509 0 539 28 l 501 0 q 452 81 482 42 q 385 156 422 121 q 305 219 347 191 q 219 270 262 248 q 134 303 176 291 q 56 317 92 315 l 56 328 q 87 335 71 328 q 116 354 103 342 q 136 385 128 367 q 144 424 144 403 l 144 854 q 136 896 144 878 q 116 926 128 914 q 87 945 103 939 q 56 951 71 951 l 56 961 l 473 961 l 473 951 q 441 945 457 951 q 413 926 426 939 q 392 896 400 913 q 385 854 385 878 l 385 231 q 418 202 400 218 q 453 168 436 186 q 485 131 470 150 q 510 96 500 113 q 533 138 522 113 q 553 192 545 163 q 566 253 562 221 q 571 315 571 285 l 571 518 q 562 558 571 539 q 538 592 553 576 q 507 618 524 607 q 473 633 490 629 l 473 642 q 515 660 495 648 q 552 689 536 671 q 580 727 568 706 q 597 772 592 748 l 606 772 q 622 728 611 749 q 650 690 633 707 q 686 660 666 673 q 729 642 706 648 l 729 633 q 694 616 711 627 q 663 590 677 606 q 641 557 649 575 q 632 518 632 538 l 632 315 q 637 254 632 285 q 650 194 642 222 q 669 139 658 165 q 693 96 680 114 q 718 131 703 113 q 750 168 733 150 q 785 202 767 186 q 818 231 802 218 l 818 854 q 810 896 818 878 q 790 926 802 913 q 761 945 777 939 q 729 951 745 951 l 729 961 l 1147 961 l 1147 951 q 1116 945 1132 951 q 1087 926 1100 939 q 1067 896 1075 914 q 1059 854 1059 878 l 1059 424 q 1066 386 1059 404 q 1086 355 1074 368 q 1115 335 1099 342 q 1147 328 1131 328 l 1147 317 z "},"x":{"ha":1017,"x_min":60,"x_max":957,"o":"m 954 633 q 829 621 885 633 q 726 589 774 609 q 636 540 678 568 q 553 478 595 512 q 615 431 581 455 q 687 387 648 408 q 771 350 726 366 q 868 326 817 334 l 868 109 q 876 68 868 86 q 895 37 883 50 q 924 17 907 24 q 957 9 940 9 l 957 0 l 539 0 l 539 9 q 572 17 556 9 q 601 37 588 24 q 621 67 613 50 q 628 107 628 85 l 628 355 q 566 397 597 374 q 509 441 534 420 q 450 396 481 418 q 389 355 418 373 l 389 107 q 396 67 389 85 q 416 37 404 50 q 445 17 429 24 q 478 9 461 9 l 478 0 l 60 0 l 60 9 q 94 17 78 9 q 122 38 111 24 q 141 68 134 51 q 149 107 149 86 l 149 326 q 247 351 201 334 q 332 389 293 368 q 404 433 372 410 q 464 478 437 456 q 375 544 418 515 q 283 592 331 572 q 181 622 235 612 q 62 633 127 633 l 62 644 q 95 651 79 644 q 123 671 111 659 q 143 702 136 684 q 151 741 151 720 l 151 854 q 143 896 151 878 q 123 926 136 913 q 95 945 111 939 q 62 951 79 951 l 62 961 l 478 961 l 478 951 q 446 945 462 951 q 417 926 430 939 q 396 896 404 913 q 389 854 389 878 l 389 600 q 417 583 404 592 q 444 564 430 574 q 473 542 457 554 q 509 514 489 530 q 572 564 543 543 q 628 600 602 585 l 628 854 q 620 896 628 878 q 600 926 612 913 q 571 945 587 939 q 539 951 555 951 l 539 961 l 954 961 l 954 951 q 922 945 938 951 q 893 926 906 939 q 873 896 881 913 q 865 854 865 878 l 865 741 q 873 702 865 720 q 893 671 881 684 q 922 651 906 659 q 954 644 938 644 l 954 633 z "},"y":{"ha":983,"x_min":49,"x_max":935,"o":"m 935 633 q 846 615 891 631 q 759 577 802 600 q 678 526 716 554 q 611 471 640 498 l 611 107 q 618 67 611 85 q 638 37 626 50 q 667 17 651 24 q 700 9 683 9 l 700 0 l 283 0 l 283 9 q 316 17 300 9 q 345 37 332 24 q 365 67 357 50 q 372 107 372 85 l 372 471 q 291 537 334 507 q 206 587 248 566 q 123 620 163 608 q 49 633 83 632 l 49 644 q 81 651 65 644 q 109 671 96 659 q 130 702 122 684 q 138 741 138 720 l 138 854 q 130 896 138 878 q 109 926 122 913 q 81 945 96 939 q 49 951 65 951 l 49 961 l 464 961 l 464 951 q 432 945 448 951 q 404 926 416 939 q 383 896 391 913 q 375 854 375 878 l 375 545 q 405 519 389 534 q 436 490 420 505 q 466 457 452 474 q 492 422 480 439 q 547 489 515 458 q 608 545 579 521 l 608 854 q 601 896 608 878 q 580 926 593 913 q 551 945 567 939 q 519 951 536 951 l 519 961 l 935 961 l 935 951 q 903 945 919 951 q 874 926 887 939 q 854 896 862 914 q 846 854 846 878 l 846 741 q 853 702 846 720 q 874 671 861 684 q 903 651 887 659 q 935 644 918 644 l 935 633 z "},"z":{"ha":850,"x_min":97,"x_max":766,"o":"m 757 -87 q 750 -55 757 -71 q 730 -26 743 -39 q 699 -7 717 -14 q 660 0 682 0 l 97 0 l 97 11 l 433 907 l 379 907 q 296 886 338 907 q 220 833 255 866 q 159 759 184 801 q 122 675 133 718 l 111 675 l 111 1048 l 121 1048 q 128 1016 121 1031 q 148 987 135 1000 q 179 968 161 975 q 218 961 197 961 l 745 961 l 745 949 l 408 54 l 418 54 q 496 69 458 54 q 569 110 534 84 q 633 169 603 135 q 687 241 663 203 q 729 321 711 280 q 755 401 746 362 l 766 401 l 766 -87 l 757 -87 z "},"š":{"ha":940,"x_min":56,"x_max":940,"o":"m 940 317 q 908 310 924 317 q 879 288 892 302 q 857 253 865 274 q 848 203 848 231 q 832 130 848 166 q 785 65 815 94 q 711 18 754 36 q 615 0 668 0 l 243 0 q 204 -7 222 0 q 173 -26 186 -14 q 153 -55 160 -39 q 146 -87 146 -71 l 136 -87 l 136 401 l 147 401 q 174 321 157 362 q 215 241 191 280 q 270 169 239 203 q 334 110 300 135 q 407 69 368 84 q 485 54 445 54 l 511 54 q 552 60 532 54 q 586 79 571 66 q 609 112 600 92 q 618 160 618 132 l 618 167 q 599 273 618 219 q 545 379 581 328 q 460 475 510 430 q 348 555 410 520 q 211 610 285 589 q 56 633 138 631 l 56 644 q 89 652 72 644 q 118 674 105 660 q 139 710 131 689 q 147 758 147 731 q 164 832 147 795 q 211 897 180 868 q 284 943 241 926 q 380 961 328 961 l 684 961 q 723 968 705 961 q 753 987 741 975 q 773 1016 766 1000 q 781 1048 781 1031 l 790 1048 l 790 675 l 779 675 q 743 759 768 718 q 682 833 717 801 q 605 886 646 866 q 522 907 564 907 l 485 907 q 444 900 463 907 q 409 881 424 894 q 386 848 395 867 q 378 802 378 828 l 378 789 q 399 677 378 732 q 459 571 421 621 q 551 476 498 520 q 666 400 604 433 q 798 349 728 368 q 940 328 868 330 l 940 317 m 684 1193 l 589 1025 l 408 1025 l 314 1193 l 407 1193 l 498 1132 l 590 1193 l 684 1193 z "},"ý":{"ha":983,"x_min":49,"x_max":935,"o":"m 935 633 q 846 615 891 631 q 759 577 802 600 q 678 526 716 554 q 611 471 640 498 l 611 107 q 618 67 611 85 q 638 37 626 50 q 667 17 651 24 q 700 9 683 9 l 700 0 l 283 0 l 283 9 q 316 17 300 9 q 345 37 332 24 q 365 67 357 50 q 372 107 372 85 l 372 471 q 291 537 334 507 q 206 587 248 566 q 123 620 163 608 q 49 633 83 632 l 49 644 q 81 651 65 644 q 109 671 96 659 q 130 702 122 684 q 138 741 138 720 l 138 854 q 130 896 138 878 q 109 926 122 913 q 81 945 96 939 q 49 951 65 951 l 49 961 l 464 961 l 464 951 q 432 945 448 951 q 404 926 416 939 q 383 896 391 913 q 375 854 375 878 l 375 545 q 405 519 389 534 q 436 490 420 505 q 466 457 452 474 q 492 422 480 439 q 547 489 515 458 q 608 545 579 521 l 608 854 q 601 896 608 878 q 580 926 593 913 q 551 945 567 939 q 519 951 536 951 l 519 961 l 935 961 l 935 951 q 903 945 919 951 q 874 926 887 939 q 854 896 862 914 q 846 854 846 878 l 846 741 q 853 702 846 720 q 874 671 861 684 q 903 651 887 659 q 935 644 918 644 l 935 633 m 614 1181 l 475 1025 l 387 1025 l 443 1193 l 614 1193 l 614 1181 z "},"ž":{"ha":850,"x_min":97,"x_max":766,"o":"m 757 -87 q 750 -55 757 -71 q 730 -26 743 -39 q 699 -7 717 -14 q 660 0 682 0 l 97 0 l 97 11 l 433 907 l 379 907 q 296 886 338 907 q 220 833 255 866 q 159 759 184 801 q 122 675 133 718 l 111 675 l 111 1048 l 121 1048 q 128 1016 121 1031 q 148 987 135 1000 q 179 968 161 975 q 218 961 197 961 l 745 961 l 745 949 l 408 54 l 418 54 q 496 69 458 54 q 569 110 534 84 q 633 169 603 135 q 687 241 663 203 q 729 321 711 280 q 755 401 746 362 l 766 401 l 766 -87 l 757 -87 m 616 1193 l 522 1025 l 342 1025 l 248 1193 l 340 1193 l 432 1132 l 524 1193 l 616 1193 z "},"ä":{"ha":1036,"x_min":69,"x_max":966,"o":"m 966 0 l 549 0 l 549 9 q 582 17 566 9 q 610 37 598 24 q 630 67 623 50 q 637 107 637 85 l 637 296 l 633 296 q 599 288 616 296 q 567 265 582 279 q 540 230 552 250 q 522 187 528 210 l 514 187 q 495 232 507 212 q 468 266 483 252 q 436 288 453 280 q 403 296 419 296 l 399 296 l 399 107 q 406 67 399 85 q 426 37 414 50 q 454 17 438 24 q 488 9 471 9 l 488 0 l 69 0 l 69 9 q 103 17 87 9 q 131 37 119 24 q 151 67 143 50 q 158 107 158 85 l 158 221 q 151 259 158 241 q 131 289 143 277 q 102 309 118 302 q 69 317 86 317 l 69 328 q 102 335 86 328 q 131 355 118 342 q 151 386 143 368 q 158 424 158 404 l 158 725 q 175 819 158 776 q 223 893 192 862 q 297 943 254 925 q 395 961 341 961 l 642 961 q 739 943 695 961 q 813 893 783 925 q 861 819 844 862 q 878 725 878 776 l 878 424 q 885 386 878 404 q 906 355 893 368 q 934 335 918 342 q 966 328 950 328 l 966 317 q 934 309 950 317 q 906 289 918 302 q 885 259 893 277 q 878 221 878 241 l 878 107 q 885 67 878 85 q 905 37 892 50 q 933 17 918 24 q 966 9 949 9 l 966 0 m 637 349 l 637 825 q 615 885 637 864 q 554 907 593 907 l 482 907 q 421 885 444 907 q 399 825 399 864 l 399 349 l 403 349 q 437 357 420 349 q 469 379 454 365 q 495 414 484 394 q 514 457 507 434 l 522 457 q 541 414 529 434 q 567 379 553 394 q 599 357 582 365 q 633 349 616 349 l 637 349 m 503 1108 q 422 1060 454 1095 q 379 978 391 1025 l 371 978 q 325 1062 358 1028 q 248 1108 292 1096 l 248 1117 q 325 1163 292 1129 q 371 1247 358 1197 l 379 1247 q 423 1165 392 1199 q 503 1117 454 1131 l 503 1108 m 787 1108 q 707 1060 739 1095 q 664 978 675 1025 l 656 978 q 610 1062 643 1028 q 532 1108 576 1096 l 532 1117 q 610 1163 576 1129 q 656 1247 643 1197 l 664 1247 q 708 1165 677 1199 q 787 1117 739 1131 l 787 1108 z "},"å":{"ha":1036,"x_min":69,"x_max":966,"o":"m 966 0 l 549 0 l 549 9 q 582 17 566 9 q 610 37 598 24 q 630 67 623 50 q 637 107 637 85 l 637 296 l 633 296 q 599 288 616 296 q 567 265 582 279 q 540 230 552 250 q 522 187 528 210 l 514 187 q 495 232 507 212 q 468 266 483 252 q 436 288 453 280 q 403 296 419 296 l 399 296 l 399 107 q 406 67 399 85 q 426 37 414 50 q 454 17 438 24 q 488 9 471 9 l 488 0 l 69 0 l 69 9 q 103 17 87 9 q 131 37 119 24 q 151 67 143 50 q 158 107 158 85 l 158 221 q 151 259 158 241 q 131 289 143 277 q 102 309 118 302 q 69 317 86 317 l 69 328 q 102 335 86 328 q 131 355 118 342 q 151 386 143 368 q 158 424 158 404 l 158 725 q 175 819 158 776 q 223 893 192 862 q 297 943 254 925 q 395 961 341 961 l 642 961 q 739 943 695 961 q 813 893 783 925 q 861 819 844 862 q 878 725 878 776 l 878 424 q 885 386 878 404 q 906 355 893 368 q 934 335 918 342 q 966 328 950 328 l 966 317 q 934 309 950 317 q 906 289 918 302 q 885 259 893 277 q 878 221 878 241 l 878 107 q 885 67 878 85 q 905 37 892 50 q 933 17 918 24 q 966 9 949 9 l 966 0 m 637 349 l 637 825 q 615 885 637 864 q 554 907 593 907 l 482 907 q 421 885 444 907 q 399 825 399 864 l 399 349 l 403 349 q 437 357 420 349 q 469 379 454 365 q 495 414 484 394 q 514 457 507 434 l 522 457 q 541 414 529 434 q 567 379 553 394 q 599 357 582 365 q 633 349 616 349 l 637 349 m 530 1109 q 526 1126 530 1120 q 518 1132 522 1132 q 510 1126 514 1132 q 505 1109 505 1120 q 510 1093 505 1097 q 518 1088 515 1088 q 526 1093 522 1088 q 530 1109 530 1097 m 642 1109 q 632 1073 642 1090 q 606 1043 623 1055 q 567 1023 589 1030 q 518 1015 544 1015 q 470 1023 492 1015 q 430 1043 447 1030 q 404 1073 414 1055 q 395 1109 395 1090 q 404 1146 395 1129 q 430 1176 413 1163 q 469 1197 446 1190 q 518 1204 492 1204 q 567 1197 544 1204 q 606 1177 589 1190 q 632 1146 623 1164 q 642 1109 642 1129 z "},"é":{"ha":913,"x_min":83,"x_max":829,"o":"m 819 -87 q 812 -55 819 -71 q 792 -26 805 -39 q 762 -7 779 -14 q 722 0 744 0 l 83 0 l 83 9 q 116 17 100 9 q 145 37 132 24 q 165 67 157 50 q 172 107 172 85 l 172 220 q 164 258 172 241 q 144 289 157 276 q 116 309 132 302 q 83 317 100 317 l 83 328 q 115 335 99 328 q 143 354 131 342 q 164 385 156 367 q 172 424 172 403 l 172 854 q 164 896 172 878 q 144 926 157 913 q 115 945 131 939 q 83 951 100 951 l 83 961 l 710 961 q 749 968 731 961 q 780 987 767 975 q 800 1016 793 1000 q 807 1048 807 1031 l 817 1048 l 817 675 l 806 675 q 769 759 795 718 q 708 833 743 801 q 632 886 673 866 q 549 907 591 907 l 412 907 l 412 349 l 416 349 q 451 357 434 349 q 484 380 469 366 q 510 415 498 395 q 528 457 522 435 l 536 457 q 582 373 550 406 q 660 326 614 339 l 660 318 q 580 269 611 304 q 536 187 549 234 l 528 187 q 510 230 522 210 q 483 265 498 250 q 451 288 468 279 q 416 296 434 296 l 412 296 l 412 54 l 481 54 q 559 69 521 54 q 631 110 597 84 q 696 169 666 135 q 750 241 726 203 q 791 321 774 280 q 818 401 808 362 l 829 401 l 829 -87 l 819 -87 m 591 1181 l 453 1025 l 366 1025 l 421 1193 l 591 1193 l 591 1181 z "},"ñ":{"ha":1038,"x_min":69,"x_max":968,"o":"m 968 0 l 550 0 l 550 9 q 583 16 567 9 q 611 36 599 23 q 631 67 624 49 q 639 107 639 85 l 639 371 q 618 562 639 480 q 563 702 597 644 q 486 799 528 761 q 399 857 443 836 l 399 107 q 406 67 399 85 q 426 37 414 50 q 454 17 438 24 q 488 9 471 9 l 488 0 l 69 0 l 69 9 q 103 17 87 9 q 131 37 119 24 q 151 67 143 50 q 158 107 158 85 l 158 854 q 150 896 158 878 q 130 926 142 913 q 101 945 117 939 q 69 951 85 951 l 69 961 l 165 961 q 350 936 270 961 q 487 870 429 911 q 582 776 545 829 q 639 668 619 723 l 639 961 l 968 961 l 968 951 q 936 945 951 951 q 907 925 920 938 q 887 895 895 913 q 879 854 879 877 l 879 107 q 887 67 879 85 q 907 36 895 49 q 936 16 920 23 q 968 9 951 9 l 968 0 m 746 1202 l 652 1032 l 429 1063 l 390 1025 l 290 1025 l 385 1194 l 607 1164 l 646 1202 l 746 1202 z "},"ö":{"ha":1036,"x_min":69,"x_max":966,"o":"m 966 317 q 934 309 950 317 q 904 288 918 302 q 883 252 891 273 q 875 203 875 231 q 858 129 875 165 q 810 64 841 93 q 737 18 780 35 q 642 0 694 0 l 395 0 q 299 18 342 0 q 226 64 256 35 q 178 129 195 93 q 161 203 161 165 q 153 253 161 231 q 132 288 145 274 q 102 310 119 302 q 69 317 85 317 l 69 328 q 102 335 86 328 q 131 355 118 342 q 151 386 143 368 q 158 424 158 404 l 158 725 q 175 819 158 776 q 223 894 192 863 q 298 943 254 926 q 395 961 342 961 l 642 961 q 738 943 694 961 q 813 894 782 926 q 861 819 844 863 q 878 725 878 776 l 878 425 q 885 387 878 404 q 906 356 893 369 q 934 335 918 342 q 966 328 950 328 l 966 317 m 637 136 l 637 825 q 615 886 637 865 q 554 907 592 907 l 482 907 q 420 885 442 907 q 399 825 399 863 l 399 136 q 420 77 399 100 q 482 54 441 54 l 554 54 q 616 77 595 54 q 637 136 637 100 m 504 1108 q 424 1060 456 1095 q 380 978 392 1025 l 372 978 q 327 1062 359 1028 q 249 1108 294 1096 l 249 1117 q 327 1163 294 1129 q 372 1247 359 1197 l 380 1247 q 425 1165 393 1199 q 504 1117 456 1131 l 504 1108 m 789 1108 q 709 1060 741 1095 q 665 978 677 1025 l 657 978 q 611 1062 644 1028 q 533 1108 578 1096 l 533 1117 q 611 1163 578 1129 q 657 1247 644 1197 l 665 1247 q 709 1165 678 1199 q 789 1117 741 1131 l 789 1108 z "},"ü":{"ha":1036,"x_min":69,"x_max":966,"o":"m 966 317 q 935 310 951 317 q 905 288 918 302 q 883 253 892 274 q 875 203 875 231 q 858 129 875 165 q 810 64 841 93 q 737 18 780 35 q 642 0 694 0 l 395 0 q 299 18 342 0 q 226 64 256 35 q 178 129 195 93 q 161 203 161 165 q 153 253 161 231 q 132 288 145 274 q 102 310 119 302 q 69 317 85 317 l 69 328 q 102 335 86 328 q 131 355 118 342 q 151 386 143 368 q 158 424 158 404 l 158 854 q 150 896 158 878 q 130 926 142 913 q 101 945 117 939 q 69 951 85 951 l 69 961 l 488 961 l 488 951 q 455 945 471 951 q 426 925 439 938 q 406 895 414 913 q 399 854 399 877 l 399 136 q 420 77 399 100 q 482 54 441 54 l 554 54 q 616 77 595 54 q 637 136 637 100 l 637 854 q 630 895 637 877 q 609 925 622 913 q 581 945 597 938 q 549 951 565 951 l 549 961 l 966 961 l 966 951 q 935 945 950 951 q 906 926 919 939 q 885 896 893 913 q 878 854 878 878 l 878 424 q 885 386 878 404 q 906 355 893 368 q 934 335 918 342 q 966 328 950 328 l 966 317 m 503 1108 q 422 1060 454 1095 q 379 978 391 1025 l 371 978 q 325 1062 358 1028 q 248 1108 292 1096 l 248 1117 q 325 1163 292 1129 q 371 1247 358 1197 l 379 1247 q 423 1165 392 1199 q 503 1117 454 1131 l 503 1108 m 787 1108 q 707 1060 739 1095 q 664 978 675 1025 l 656 978 q 610 1062 643 1028 q 532 1108 576 1096 l 532 1117 q 610 1163 576 1129 q 656 1247 643 1197 l 664 1247 q 708 1165 677 1199 q 787 1117 739 1131 l 787 1108 z "},"æ":{"ha":1378,"x_min":69,"x_max":1295,"o":"m 637 349 l 637 825 q 615 885 637 864 q 554 907 593 907 l 482 907 q 421 885 444 907 q 399 825 399 864 l 399 349 l 403 349 q 437 357 420 349 q 469 379 454 365 q 495 414 484 394 q 514 457 507 434 l 522 457 q 541 414 529 434 q 567 379 553 394 q 599 357 582 365 q 633 349 616 349 l 637 349 m 1284 -87 q 1277 -55 1284 -71 q 1257 -26 1270 -39 q 1227 -7 1244 -14 q 1187 0 1209 0 l 549 0 l 549 9 q 582 17 566 9 q 610 37 598 24 q 630 67 623 50 q 637 107 637 85 l 637 296 l 633 296 q 599 288 616 296 q 567 265 582 279 q 540 230 552 250 q 522 187 528 210 l 514 187 q 495 232 507 212 q 468 266 483 252 q 436 288 453 280 q 403 296 419 296 l 399 296 l 399 107 q 406 67 399 85 q 426 37 414 50 q 454 17 438 24 q 488 9 471 9 l 488 0 l 69 0 l 69 9 q 103 17 87 9 q 131 37 119 24 q 151 67 143 50 q 158 107 158 85 l 158 221 q 151 259 158 241 q 131 289 143 277 q 102 309 118 302 q 69 317 86 317 l 69 328 q 102 335 86 328 q 131 355 118 342 q 151 386 143 368 q 158 424 158 404 l 158 725 q 175 819 158 776 q 223 893 192 862 q 297 943 254 925 q 395 961 341 961 l 1175 961 q 1215 968 1197 961 q 1245 987 1232 975 q 1265 1016 1258 1000 q 1272 1048 1272 1031 l 1282 1048 l 1282 675 l 1271 675 q 1234 759 1260 718 q 1173 833 1208 801 q 1097 886 1138 866 q 1014 907 1056 907 l 878 907 l 878 349 l 882 349 q 917 357 899 349 q 949 380 934 366 q 975 415 964 395 q 993 457 987 435 l 1002 457 q 1047 373 1015 406 q 1125 326 1079 339 l 1125 318 q 1045 269 1076 304 q 1002 187 1014 234 l 993 187 q 975 230 987 210 q 948 265 964 250 q 916 288 933 279 q 882 296 899 296 l 878 296 l 878 54 l 946 54 q 1024 69 986 54 q 1097 110 1062 84 q 1161 169 1131 135 q 1215 241 1191 203 q 1256 321 1239 280 q 1283 401 1274 362 l 1295 401 l 1295 -87 l 1284 -87 z "},"à":{"ha":1036,"x_min":69,"x_max":966,"o":"m 966 0 l 549 0 l 549 9 q 582 17 566 9 q 610 37 598 24 q 630 67 623 50 q 637 107 637 85 l 637 296 l 633 296 q 599 288 616 296 q 567 265 582 279 q 540 230 552 250 q 522 187 528 210 l 514 187 q 495 232 507 212 q 468 266 483 252 q 436 288 453 280 q 403 296 419 296 l 399 296 l 399 107 q 406 67 399 85 q 426 37 414 50 q 454 17 438 24 q 488 9 471 9 l 488 0 l 69 0 l 69 9 q 103 17 87 9 q 131 37 119 24 q 151 67 143 50 q 158 107 158 85 l 158 221 q 151 259 158 241 q 131 289 143 277 q 102 309 118 302 q 69 317 86 317 l 69 328 q 102 335 86 328 q 131 355 118 342 q 151 386 143 368 q 158 424 158 404 l 158 725 q 175 819 158 776 q 223 893 192 862 q 297 943 254 925 q 395 961 341 961 l 642 961 q 739 943 695 961 q 813 893 783 925 q 861 819 844 862 q 878 725 878 776 l 878 424 q 885 386 878 404 q 906 355 893 368 q 934 335 918 342 q 966 328 950 328 l 966 317 q 934 309 950 317 q 906 289 918 302 q 885 259 893 277 q 878 221 878 241 l 878 107 q 885 67 878 85 q 905 37 892 50 q 933 17 918 24 q 966 9 949 9 l 966 0 m 637 349 l 637 825 q 615 885 637 864 q 554 907 593 907 l 482 907 q 421 885 444 907 q 399 825 399 864 l 399 349 l 403 349 q 437 357 420 349 q 469 379 454 365 q 495 414 484 394 q 514 457 507 434 l 522 457 q 541 414 529 434 q 567 379 553 394 q 599 357 582 365 q 633 349 616 349 l 637 349 m 623 1025 l 534 1025 l 396 1181 l 396 1193 l 567 1193 l 623 1025 z "},"ã":{"ha":1036,"x_min":69,"x_max":966,"o":"m 966 0 l 549 0 l 549 9 q 582 17 566 9 q 610 37 598 24 q 630 67 623 50 q 637 107 637 85 l 637 296 l 633 296 q 599 288 616 296 q 567 265 582 279 q 540 230 552 250 q 522 187 528 210 l 514 187 q 495 232 507 212 q 468 266 483 252 q 436 288 453 280 q 403 296 419 296 l 399 296 l 399 107 q 406 67 399 85 q 426 37 414 50 q 454 17 438 24 q 488 9 471 9 l 488 0 l 69 0 l 69 9 q 103 17 87 9 q 131 37 119 24 q 151 67 143 50 q 158 107 158 85 l 158 221 q 151 259 158 241 q 131 289 143 277 q 102 309 118 302 q 69 317 86 317 l 69 328 q 102 335 86 328 q 131 355 118 342 q 151 386 143 368 q 158 424 158 404 l 158 725 q 175 819 158 776 q 223 893 192 862 q 297 943 254 925 q 395 961 341 961 l 642 961 q 739 943 695 961 q 813 893 783 925 q 861 819 844 862 q 878 725 878 776 l 878 424 q 885 386 878 404 q 906 355 893 368 q 934 335 918 342 q 966 328 950 328 l 966 317 q 934 309 950 317 q 906 289 918 302 q 885 259 893 277 q 878 221 878 241 l 878 107 q 885 67 878 85 q 905 37 892 50 q 933 17 918 24 q 966 9 949 9 l 966 0 m 637 349 l 637 825 q 615 885 637 864 q 554 907 593 907 l 482 907 q 421 885 444 907 q 399 825 399 864 l 399 349 l 403 349 q 437 357 420 349 q 469 379 454 365 q 495 414 484 394 q 514 457 507 434 l 522 457 q 541 414 529 434 q 567 379 553 394 q 599 357 582 365 q 633 349 616 349 l 637 349 m 746 1202 l 652 1032 l 429 1063 l 390 1025 l 290 1025 l 385 1194 l 607 1164 l 646 1202 l 746 1202 z "},"õ":{"ha":1036,"x_min":69,"x_max":966,"o":"m 966 317 q 934 309 950 317 q 904 288 918 302 q 883 252 891 273 q 875 203 875 231 q 858 129 875 165 q 810 64 841 93 q 737 18 780 35 q 642 0 694 0 l 395 0 q 299 18 342 0 q 226 64 256 35 q 178 129 195 93 q 161 203 161 165 q 153 253 161 231 q 132 288 145 274 q 102 310 119 302 q 69 317 85 317 l 69 328 q 102 335 86 328 q 131 355 118 342 q 151 386 143 368 q 158 424 158 404 l 158 725 q 175 819 158 776 q 223 894 192 863 q 298 943 254 926 q 395 961 342 961 l 642 961 q 738 943 694 961 q 813 894 782 926 q 861 819 844 863 q 878 725 878 776 l 878 425 q 885 387 878 404 q 906 356 893 369 q 934 335 918 342 q 966 328 950 328 l 966 317 m 637 136 l 637 825 q 615 886 637 865 q 554 907 592 907 l 482 907 q 420 885 442 907 q 399 825 399 863 l 399 136 q 420 77 399 100 q 482 54 441 54 l 554 54 q 616 77 595 54 q 637 136 637 100 m 747 1202 l 653 1032 l 431 1063 l 392 1025 l 292 1025 l 386 1194 l 608 1164 l 647 1202 l 747 1202 z "},"œ":{"ha":1378,"x_min":69,"x_max":1295,"o":"m 637 136 l 637 825 q 615 886 637 865 q 554 907 592 907 l 482 907 q 420 885 442 907 q 399 825 399 863 l 399 136 q 420 77 399 100 q 482 54 441 54 l 554 54 q 616 77 595 54 q 637 136 637 100 m 1284 -87 q 1277 -55 1284 -71 q 1257 -26 1270 -39 q 1227 -7 1244 -14 q 1187 0 1209 0 l 395 0 q 299 18 342 0 q 226 64 256 35 q 178 129 195 93 q 161 203 161 165 q 153 253 161 231 q 132 288 145 274 q 102 310 119 302 q 69 317 85 317 l 69 328 q 102 335 86 328 q 131 355 118 342 q 151 386 143 368 q 158 424 158 404 l 158 725 q 175 819 158 776 q 223 894 192 863 q 298 943 254 926 q 395 961 342 961 l 1175 961 q 1215 968 1197 961 q 1245 987 1232 975 q 1265 1016 1258 1000 q 1272 1048 1272 1031 l 1282 1048 l 1282 675 l 1271 675 q 1234 759 1260 718 q 1173 833 1208 801 q 1097 886 1138 866 q 1014 907 1056 907 l 878 907 l 878 349 l 882 349 q 917 357 899 349 q 949 380 934 366 q 975 415 964 395 q 993 457 987 435 l 1002 457 q 1047 373 1015 406 q 1125 326 1079 339 l 1125 318 q 1045 269 1076 304 q 1002 187 1014 234 l 993 187 q 975 230 987 210 q 948 265 964 250 q 916 288 933 279 q 882 296 899 296 l 878 296 l 878 54 l 946 54 q 1024 69 986 54 q 1097 110 1062 84 q 1161 169 1131 135 q 1215 241 1191 203 q 1256 321 1239 280 q 1283 401 1274 362 l 1295 401 l 1295 -87 l 1284 -87 z "},"ÿ":{"ha":983,"x_min":49,"x_max":935,"o":"m 935 633 q 846 615 891 631 q 759 577 802 600 q 678 526 716 554 q 611 471 640 498 l 611 107 q 618 67 611 85 q 638 37 626 50 q 667 17 651 24 q 700 9 683 9 l 700 0 l 283 0 l 283 9 q 316 17 300 9 q 345 37 332 24 q 365 67 357 50 q 372 107 372 85 l 372 471 q 291 537 334 507 q 206 587 248 566 q 123 620 163 608 q 49 633 83 632 l 49 644 q 81 651 65 644 q 109 671 96 659 q 130 702 122 684 q 138 741 138 720 l 138 854 q 130 896 138 878 q 109 926 122 913 q 81 945 96 939 q 49 951 65 951 l 49 961 l 464 961 l 464 951 q 432 945 448 951 q 404 926 416 939 q 383 896 391 913 q 375 854 375 878 l 375 545 q 405 519 389 534 q 436 490 420 505 q 466 457 452 474 q 492 422 480 439 q 547 489 515 458 q 608 545 579 521 l 608 854 q 601 896 608 878 q 580 926 593 913 q 551 945 567 939 q 519 951 536 951 l 519 961 l 935 961 l 935 951 q 903 945 919 951 q 874 926 887 939 q 854 896 862 914 q 846 854 846 878 l 846 741 q 853 702 846 720 q 874 671 861 684 q 903 651 887 659 q 935 644 918 644 l 935 633 m 478 1108 q 397 1060 429 1095 q 354 978 366 1025 l 346 978 q 300 1062 333 1028 q 222 1108 267 1096 l 222 1117 q 300 1163 267 1129 q 346 1247 333 1197 l 354 1247 q 398 1165 367 1199 q 478 1117 429 1131 l 478 1108 m 762 1108 q 682 1060 714 1095 q 639 978 650 1025 l 631 978 q 585 1062 618 1028 q 507 1108 552 1096 l 507 1117 q 585 1163 552 1129 q 631 1247 618 1197 l 639 1247 q 683 1165 652 1199 q 762 1117 714 1131 l 762 1108 z "},"â":{"ha":1036,"x_min":69,"x_max":966,"o":"m 966 0 l 549 0 l 549 9 q 582 17 566 9 q 610 37 598 24 q 630 67 623 50 q 637 107 637 85 l 637 296 l 633 296 q 599 288 616 296 q 567 265 582 279 q 540 230 552 250 q 522 187 528 210 l 514 187 q 495 232 507 212 q 468 266 483 252 q 436 288 453 280 q 403 296 419 296 l 399 296 l 399 107 q 406 67 399 85 q 426 37 414 50 q 454 17 438 24 q 488 9 471 9 l 488 0 l 69 0 l 69 9 q 103 17 87 9 q 131 37 119 24 q 151 67 143 50 q 158 107 158 85 l 158 221 q 151 259 158 241 q 131 289 143 277 q 102 309 118 302 q 69 317 86 317 l 69 328 q 102 335 86 328 q 131 355 118 342 q 151 386 143 368 q 158 424 158 404 l 158 725 q 175 819 158 776 q 223 893 192 862 q 297 943 254 925 q 395 961 341 961 l 642 961 q 739 943 695 961 q 813 893 783 925 q 861 819 844 862 q 878 725 878 776 l 878 424 q 885 386 878 404 q 906 355 893 368 q 934 335 918 342 q 966 328 950 328 l 966 317 q 934 309 950 317 q 906 289 918 302 q 885 259 893 277 q 878 221 878 241 l 878 107 q 885 67 878 85 q 905 37 892 50 q 933 17 918 24 q 966 9 949 9 l 966 0 m 637 349 l 637 825 q 615 885 637 864 q 554 907 593 907 l 482 907 q 421 885 444 907 q 399 825 399 864 l 399 349 l 403 349 q 437 357 420 349 q 469 379 454 365 q 495 414 484 394 q 514 457 507 434 l 522 457 q 541 414 529 434 q 567 379 553 394 q 599 357 582 365 q 633 349 616 349 l 637 349 m 703 1025 l 610 1025 l 518 1086 l 427 1025 l 334 1025 l 428 1193 l 608 1193 l 703 1025 z "},"ê":{"ha":913,"x_min":83,"x_max":829,"o":"m 819 -87 q 812 -55 819 -71 q 792 -26 805 -39 q 762 -7 779 -14 q 722 0 744 0 l 83 0 l 83 9 q 116 17 100 9 q 145 37 132 24 q 165 67 157 50 q 172 107 172 85 l 172 220 q 164 258 172 241 q 144 289 157 276 q 116 309 132 302 q 83 317 100 317 l 83 328 q 115 335 99 328 q 143 354 131 342 q 164 385 156 367 q 172 424 172 403 l 172 854 q 164 896 172 878 q 144 926 157 913 q 115 945 131 939 q 83 951 100 951 l 83 961 l 710 961 q 749 968 731 961 q 780 987 767 975 q 800 1016 793 1000 q 807 1048 807 1031 l 817 1048 l 817 675 l 806 675 q 769 759 795 718 q 708 833 743 801 q 632 886 673 866 q 549 907 591 907 l 412 907 l 412 349 l 416 349 q 451 357 434 349 q 484 380 469 366 q 510 415 498 395 q 528 457 522 435 l 536 457 q 582 373 550 406 q 660 326 614 339 l 660 318 q 580 269 611 304 q 536 187 549 234 l 528 187 q 510 230 522 210 q 483 265 498 250 q 451 288 468 279 q 416 296 434 296 l 412 296 l 412 54 l 481 54 q 559 69 521 54 q 631 110 597 84 q 696 169 666 135 q 750 241 726 203 q 791 321 774 280 q 818 401 808 362 l 829 401 l 829 -87 l 819 -87 m 625 1025 l 532 1025 l 440 1086 l 349 1025 l 256 1025 l 350 1193 l 530 1193 l 625 1025 z "},"á":{"ha":1036,"x_min":69,"x_max":966,"o":"m 966 0 l 549 0 l 549 9 q 582 17 566 9 q 610 37 598 24 q 630 67 623 50 q 637 107 637 85 l 637 296 l 633 296 q 599 288 616 296 q 567 265 582 279 q 540 230 552 250 q 522 187 528 210 l 514 187 q 495 232 507 212 q 468 266 483 252 q 436 288 453 280 q 403 296 419 296 l 399 296 l 399 107 q 406 67 399 85 q 426 37 414 50 q 454 17 438 24 q 488 9 471 9 l 488 0 l 69 0 l 69 9 q 103 17 87 9 q 131 37 119 24 q 151 67 143 50 q 158 107 158 85 l 158 221 q 151 259 158 241 q 131 289 143 277 q 102 309 118 302 q 69 317 86 317 l 69 328 q 102 335 86 328 q 131 355 118 342 q 151 386 143 368 q 158 424 158 404 l 158 725 q 175 819 158 776 q 223 893 192 862 q 297 943 254 925 q 395 961 341 961 l 642 961 q 739 943 695 961 q 813 893 783 925 q 861 819 844 862 q 878 725 878 776 l 878 424 q 885 386 878 404 q 906 355 893 368 q 934 335 918 342 q 966 328 950 328 l 966 317 q 934 309 950 317 q 906 289 918 302 q 885 259 893 277 q 878 221 878 241 l 878 107 q 885 67 878 85 q 905 37 892 50 q 933 17 918 24 q 966 9 949 9 l 966 0 m 637 349 l 637 825 q 615 885 637 864 q 554 907 593 907 l 482 907 q 421 885 444 907 q 399 825 399 864 l 399 349 l 403 349 q 437 357 420 349 q 469 379 454 365 q 495 414 484 394 q 514 457 507 434 l 522 457 q 541 414 529 434 q 567 379 553 394 q 599 357 582 365 q 633 349 616 349 l 637 349 m 639 1181 l 500 1025 l 412 1025 l 468 1193 l 639 1193 l 639 1181 z "},"ë":{"ha":913,"x_min":83,"x_max":829,"o":"m 819 -87 q 812 -55 819 -71 q 792 -26 805 -39 q 762 -7 779 -14 q 722 0 744 0 l 83 0 l 83 9 q 116 17 100 9 q 145 37 132 24 q 165 67 157 50 q 172 107 172 85 l 172 220 q 164 258 172 241 q 144 289 157 276 q 116 309 132 302 q 83 317 100 317 l 83 328 q 115 335 99 328 q 143 354 131 342 q 164 385 156 367 q 172 424 172 403 l 172 854 q 164 896 172 878 q 144 926 157 913 q 115 945 131 939 q 83 951 100 951 l 83 961 l 710 961 q 749 968 731 961 q 780 987 767 975 q 800 1016 793 1000 q 807 1048 807 1031 l 817 1048 l 817 675 l 806 675 q 769 759 795 718 q 708 833 743 801 q 632 886 673 866 q 549 907 591 907 l 412 907 l 412 349 l 416 349 q 451 357 434 349 q 484 380 469 366 q 510 415 498 395 q 528 457 522 435 l 536 457 q 582 373 550 406 q 660 326 614 339 l 660 318 q 580 269 611 304 q 536 187 549 234 l 528 187 q 510 230 522 210 q 483 265 498 250 q 451 288 468 279 q 416 296 434 296 l 412 296 l 412 54 l 481 54 q 559 69 521 54 q 631 110 597 84 q 696 169 666 135 q 750 241 726 203 q 791 321 774 280 q 818 401 808 362 l 829 401 l 829 -87 l 819 -87 m 425 1108 q 345 1060 376 1095 q 301 978 313 1025 l 293 978 q 248 1062 281 1028 q 170 1108 214 1096 l 170 1117 q 248 1163 214 1129 q 293 1247 281 1197 l 301 1247 q 345 1165 314 1199 q 425 1117 376 1131 l 425 1108 m 710 1108 q 629 1060 661 1095 q 586 978 597 1025 l 578 978 q 532 1062 565 1028 q 454 1108 499 1096 l 454 1117 q 532 1163 499 1129 q 578 1247 565 1197 l 586 1247 q 630 1165 599 1199 q 710 1117 661 1131 l 710 1108 z "},"è":{"ha":913,"x_min":83,"x_max":829,"o":"m 819 -87 q 812 -55 819 -71 q 792 -26 805 -39 q 762 -7 779 -14 q 722 0 744 0 l 83 0 l 83 9 q 116 17 100 9 q 145 37 132 24 q 165 67 157 50 q 172 107 172 85 l 172 220 q 164 258 172 241 q 144 289 157 276 q 116 309 132 302 q 83 317 100 317 l 83 328 q 115 335 99 328 q 143 354 131 342 q 164 385 156 367 q 172 424 172 403 l 172 854 q 164 896 172 878 q 144 926 157 913 q 115 945 131 939 q 83 951 100 951 l 83 961 l 710 961 q 749 968 731 961 q 780 987 767 975 q 800 1016 793 1000 q 807 1048 807 1031 l 817 1048 l 817 675 l 806 675 q 769 759 795 718 q 708 833 743 801 q 632 886 673 866 q 549 907 591 907 l 412 907 l 412 349 l 416 349 q 451 357 434 349 q 484 380 469 366 q 510 415 498 395 q 528 457 522 435 l 536 457 q 582 373 550 406 q 660 326 614 339 l 660 318 q 580 269 611 304 q 536 187 549 234 l 528 187 q 510 230 522 210 q 483 265 498 250 q 451 288 468 279 q 416 296 434 296 l 412 296 l 412 54 l 481 54 q 559 69 521 54 q 631 110 597 84 q 696 169 666 135 q 750 241 726 203 q 791 321 774 280 q 818 401 808 362 l 829 401 l 829 -87 l 819 -87 m 553 1025 l 465 1025 l 326 1181 l 326 1193 l 497 1193 l 553 1025 z "},"í":{"ha":557,"x_min":69,"x_max":488,"o":"m 488 0 l 69 0 l 69 9 q 103 17 87 9 q 131 37 119 24 q 151 67 143 50 q 158 107 158 85 l 158 854 q 150 896 158 878 q 130 926 142 913 q 101 945 117 939 q 69 951 85 951 l 69 961 l 488 961 l 488 951 q 455 945 471 951 q 426 925 439 938 q 406 895 414 913 q 399 854 399 877 l 399 107 q 406 67 399 85 q 426 36 414 49 q 455 16 439 23 q 488 9 471 9 l 488 0 m 400 1181 l 261 1025 l 174 1025 l 229 1193 l 400 1193 l 400 1181 z "},"î":{"ha":557,"x_min":69,"x_max":488,"o":"m 488 0 l 69 0 l 69 9 q 103 17 87 9 q 131 37 119 24 q 151 67 143 50 q 158 107 158 85 l 158 854 q 150 896 158 878 q 130 926 142 913 q 101 945 117 939 q 69 951 85 951 l 69 961 l 488 961 l 488 951 q 455 945 471 951 q 426 925 439 938 q 406 895 414 913 q 399 854 399 877 l 399 107 q 406 67 399 85 q 426 36 414 49 q 455 16 439 23 q 488 9 471 9 l 488 0 m 464 1025 l 371 1025 l 279 1086 l 187 1025 l 94 1025 l 189 1193 l 370 1193 l 464 1025 z "},"ï":{"ha":557,"x_min":8,"x_max":549,"o":"m 488 0 l 69 0 l 69 9 q 103 17 87 9 q 131 37 119 24 q 151 67 143 50 q 158 107 158 85 l 158 854 q 150 896 158 878 q 130 926 142 913 q 101 945 117 939 q 69 951 85 951 l 69 961 l 488 961 l 488 951 q 455 945 471 951 q 426 925 439 938 q 406 895 414 913 q 399 854 399 877 l 399 107 q 406 67 399 85 q 426 36 414 49 q 455 16 439 23 q 488 9 471 9 l 488 0 m 264 1108 q 184 1060 216 1095 q 140 978 152 1025 l 132 978 q 86 1062 119 1028 q 8 1108 53 1096 l 8 1117 q 86 1163 53 1129 q 132 1247 119 1197 l 140 1247 q 184 1165 153 1199 q 264 1117 216 1131 l 264 1108 m 549 1108 q 469 1060 500 1095 q 425 978 437 1025 l 416 978 q 371 1062 404 1028 q 293 1108 338 1096 l 293 1117 q 371 1163 338 1129 q 416 1247 404 1197 l 425 1247 q 469 1165 437 1199 q 549 1117 500 1131 l 549 1108 z "},"ì":{"ha":557,"x_min":69,"x_max":488,"o":"m 488 0 l 69 0 l 69 9 q 103 17 87 9 q 131 37 119 24 q 151 67 143 50 q 158 107 158 85 l 158 854 q 150 896 158 878 q 130 926 142 913 q 101 945 117 939 q 69 951 85 951 l 69 961 l 488 961 l 488 951 q 455 945 471 951 q 426 925 439 938 q 406 895 414 913 q 399 854 399 877 l 399 107 q 406 67 399 85 q 426 36 414 49 q 455 16 439 23 q 488 9 471 9 l 488 0 m 383 1025 l 296 1025 l 157 1181 l 157 1193 l 328 1193 l 383 1025 z "},"ó":{"ha":1036,"x_min":69,"x_max":966,"o":"m 966 317 q 934 309 950 317 q 904 288 918 302 q 883 252 891 273 q 875 203 875 231 q 858 129 875 165 q 810 64 841 93 q 737 18 780 35 q 642 0 694 0 l 395 0 q 299 18 342 0 q 226 64 256 35 q 178 129 195 93 q 161 203 161 165 q 153 253 161 231 q 132 288 145 274 q 102 310 119 302 q 69 317 85 317 l 69 328 q 102 335 86 328 q 131 355 118 342 q 151 386 143 368 q 158 424 158 404 l 158 725 q 175 819 158 776 q 223 894 192 863 q 298 943 254 926 q 395 961 342 961 l 642 961 q 738 943 694 961 q 813 894 782 926 q 861 819 844 863 q 878 725 878 776 l 878 425 q 885 387 878 404 q 906 356 893 369 q 934 335 918 342 q 966 328 950 328 l 966 317 m 637 136 l 637 825 q 615 886 637 865 q 554 907 592 907 l 482 907 q 420 885 442 907 q 399 825 399 863 l 399 136 q 420 77 399 100 q 482 54 441 54 l 554 54 q 616 77 595 54 q 637 136 637 100 m 640 1181 l 501 1025 l 414 1025 l 469 1193 l 640 1193 l 640 1181 z "},"ô":{"ha":1036,"x_min":69,"x_max":966,"o":"m 966 317 q 934 309 950 317 q 904 288 918 302 q 883 252 891 273 q 875 203 875 231 q 858 129 875 165 q 810 64 841 93 q 737 18 780 35 q 642 0 694 0 l 395 0 q 299 18 342 0 q 226 64 256 35 q 178 129 195 93 q 161 203 161 165 q 153 253 161 231 q 132 288 145 274 q 102 310 119 302 q 69 317 85 317 l 69 328 q 102 335 86 328 q 131 355 118 342 q 151 386 143 368 q 158 424 158 404 l 158 725 q 175 819 158 776 q 223 894 192 863 q 298 943 254 926 q 395 961 342 961 l 642 961 q 738 943 694 961 q 813 894 782 926 q 861 819 844 863 q 878 725 878 776 l 878 425 q 885 387 878 404 q 906 356 893 369 q 934 335 918 342 q 966 328 950 328 l 966 317 m 637 136 l 637 825 q 615 886 637 865 q 554 907 592 907 l 482 907 q 420 885 442 907 q 399 825 399 863 l 399 136 q 420 77 399 100 q 482 54 441 54 l 554 54 q 616 77 595 54 q 637 136 637 100 m 704 1025 l 611 1025 l 519 1086 l 428 1025 l 335 1025 l 429 1193 l 610 1193 l 704 1025 z "},"ò":{"ha":1036,"x_min":69,"x_max":966,"o":"m 966 317 q 934 309 950 317 q 904 288 918 302 q 883 252 891 273 q 875 203 875 231 q 858 129 875 165 q 810 64 841 93 q 737 18 780 35 q 642 0 694 0 l 395 0 q 299 18 342 0 q 226 64 256 35 q 178 129 195 93 q 161 203 161 165 q 153 253 161 231 q 132 288 145 274 q 102 310 119 302 q 69 317 85 317 l 69 328 q 102 335 86 328 q 131 355 118 342 q 151 386 143 368 q 158 424 158 404 l 158 725 q 175 819 158 776 q 223 894 192 863 q 298 943 254 926 q 395 961 342 961 l 642 961 q 738 943 694 961 q 813 894 782 926 q 861 819 844 863 q 878 725 878 776 l 878 425 q 885 387 878 404 q 906 356 893 369 q 934 335 918 342 q 966 328 950 328 l 966 317 m 637 136 l 637 825 q 615 886 637 865 q 554 907 592 907 l 482 907 q 420 885 442 907 q 399 825 399 863 l 399 136 q 420 77 399 100 q 482 54 441 54 l 554 54 q 616 77 595 54 q 637 136 637 100 m 623 1025 l 534 1025 l 396 1181 l 396 1193 l 567 1193 l 623 1025 z "},"ú":{"ha":1036,"x_min":69,"x_max":966,"o":"m 966 317 q 935 310 951 317 q 905 288 918 302 q 883 253 892 274 q 875 203 875 231 q 858 129 875 165 q 810 64 841 93 q 737 18 780 35 q 642 0 694 0 l 395 0 q 299 18 342 0 q 226 64 256 35 q 178 129 195 93 q 161 203 161 165 q 153 253 161 231 q 132 288 145 274 q 102 310 119 302 q 69 317 85 317 l 69 328 q 102 335 86 328 q 131 355 118 342 q 151 386 143 368 q 158 424 158 404 l 158 854 q 150 896 158 878 q 130 926 142 913 q 101 945 117 939 q 69 951 85 951 l 69 961 l 488 961 l 488 951 q 455 945 471 951 q 426 925 439 938 q 406 895 414 913 q 399 854 399 877 l 399 136 q 420 77 399 100 q 482 54 441 54 l 554 54 q 616 77 595 54 q 637 136 637 100 l 637 854 q 630 895 637 877 q 609 925 622 913 q 581 945 597 938 q 549 951 565 951 l 549 961 l 966 961 l 966 951 q 935 945 950 951 q 906 926 919 939 q 885 896 893 913 q 878 854 878 878 l 878 424 q 885 386 878 404 q 906 355 893 368 q 934 335 918 342 q 966 328 950 328 l 966 317 m 639 1181 l 500 1025 l 412 1025 l 468 1193 l 639 1193 l 639 1181 z "},"û":{"ha":1036,"x_min":69,"x_max":966,"o":"m 966 317 q 935 310 951 317 q 905 288 918 302 q 883 253 892 274 q 875 203 875 231 q 858 129 875 165 q 810 64 841 93 q 737 18 780 35 q 642 0 694 0 l 395 0 q 299 18 342 0 q 226 64 256 35 q 178 129 195 93 q 161 203 161 165 q 153 253 161 231 q 132 288 145 274 q 102 310 119 302 q 69 317 85 317 l 69 328 q 102 335 86 328 q 131 355 118 342 q 151 386 143 368 q 158 424 158 404 l 158 854 q 150 896 158 878 q 130 926 142 913 q 101 945 117 939 q 69 951 85 951 l 69 961 l 488 961 l 488 951 q 455 945 471 951 q 426 925 439 938 q 406 895 414 913 q 399 854 399 877 l 399 136 q 420 77 399 100 q 482 54 441 54 l 554 54 q 616 77 595 54 q 637 136 637 100 l 637 854 q 630 895 637 877 q 609 925 622 913 q 581 945 597 938 q 549 951 565 951 l 549 961 l 966 961 l 966 951 q 935 945 950 951 q 906 926 919 939 q 885 896 893 913 q 878 854 878 878 l 878 424 q 885 386 878 404 q 906 355 893 368 q 934 335 918 342 q 966 328 950 328 l 966 317 m 703 1025 l 610 1025 l 518 1086 l 427 1025 l 334 1025 l 428 1193 l 608 1193 l 703 1025 z "},"ù":{"ha":1036,"x_min":69,"x_max":966,"o":"m 966 317 q 935 310 951 317 q 905 288 918 302 q 883 253 892 274 q 875 203 875 231 q 858 129 875 165 q 810 64 841 93 q 737 18 780 35 q 642 0 694 0 l 395 0 q 299 18 342 0 q 226 64 256 35 q 178 129 195 93 q 161 203 161 165 q 153 253 161 231 q 132 288 145 274 q 102 310 119 302 q 69 317 85 317 l 69 328 q 102 335 86 328 q 131 355 118 342 q 151 386 143 368 q 158 424 158 404 l 158 854 q 150 896 158 878 q 130 926 142 913 q 101 945 117 939 q 69 951 85 951 l 69 961 l 488 961 l 488 951 q 455 945 471 951 q 426 925 439 938 q 406 895 414 913 q 399 854 399 877 l 399 136 q 420 77 399 100 q 482 54 441 54 l 554 54 q 616 77 595 54 q 637 136 637 100 l 637 854 q 630 895 637 877 q 609 925 622 913 q 581 945 597 938 q 549 951 565 951 l 549 961 l 966 961 l 966 951 q 935 945 950 951 q 906 926 919 939 q 885 896 893 913 q 878 854 878 878 l 878 424 q 885 386 878 404 q 906 355 893 368 q 934 335 918 342 q 966 328 950 328 l 966 317 m 623 1025 l 534 1025 l 396 1181 l 396 1193 l 567 1193 l 623 1025 z "},"ø":{"ha":1036,"x_min":69,"x_max":966,"o":"m 966 317 q 934 309 950 317 q 904 288 918 302 q 883 252 891 273 q 875 203 875 231 q 858 129 875 165 q 810 64 841 93 q 737 18 780 35 q 642 0 694 0 l 395 0 q 386 0 393 0 q 374 1 380 0 l 343 -79 l 283 -79 l 317 12 q 253 42 281 22 q 203 88 224 62 q 172 143 183 113 q 161 203 161 172 q 153 253 161 231 q 132 288 145 274 q 102 310 119 302 q 69 317 85 317 l 69 328 q 102 335 86 328 q 131 355 118 342 q 151 386 143 368 q 158 424 158 404 l 158 725 q 175 819 158 776 q 223 894 192 863 q 298 943 254 926 q 395 961 342 961 l 642 961 q 653 961 645 961 q 672 960 662 961 l 703 1042 l 762 1042 l 728 947 q 790 914 762 935 q 837 864 817 893 q 867 800 857 836 q 878 725 878 765 l 878 425 q 885 387 878 404 q 906 356 893 369 q 934 335 918 342 q 966 328 950 328 l 966 317 m 633 856 q 605 893 626 880 q 554 907 585 907 l 482 907 q 420 885 442 907 q 399 825 399 863 l 399 231 l 633 856 m 637 136 l 637 704 l 407 94 q 436 65 418 75 q 482 54 454 54 l 554 54 q 616 77 595 54 q 637 136 637 100 z "},"ç":{"ha":878,"x_min":56,"x_max":802,"o":"m 791 -87 q 784 -55 791 -71 q 764 -26 777 -39 q 734 -7 751 -14 q 694 0 716 0 l 492 0 l 475 -46 q 511 -57 494 -50 q 541 -76 528 -64 q 561 -102 553 -87 q 568 -135 568 -117 q 547 -194 568 -170 q 493 -232 526 -218 q 423 -252 461 -246 q 351 -258 385 -258 l 378 -186 q 399 -169 391 -179 q 408 -150 406 -159 q 406 -130 410 -140 q 395 -114 403 -121 l 435 0 l 380 0 q 285 18 328 0 q 212 64 242 35 q 164 129 181 93 q 147 203 147 165 q 139 253 147 231 q 118 288 131 274 q 88 310 104 302 q 56 317 72 317 l 56 328 q 87 335 72 328 q 116 355 103 342 q 137 385 129 368 q 144 424 144 403 l 144 725 q 161 819 144 776 q 210 894 178 863 q 284 943 241 926 q 382 961 328 961 l 682 961 q 722 968 704 961 q 752 987 739 975 q 772 1016 765 1000 q 779 1048 779 1031 l 789 1048 l 789 675 l 778 675 q 741 759 767 718 q 680 833 715 801 q 604 886 645 866 q 521 907 563 907 l 468 907 q 407 886 430 907 q 385 825 385 865 l 385 136 q 406 76 385 98 q 468 54 428 54 q 547 75 502 54 q 638 139 593 96 q 725 247 684 182 q 790 401 766 313 l 802 401 l 802 -87 l 791 -87 z "},"Ð":{"ha":1003,"x_min":69,"x_max":878,"o":"m 878 236 q 860 140 878 183 q 811 65 842 96 q 736 17 780 35 q 642 0 693 0 l 69 0 l 69 9 q 103 17 87 9 q 132 37 119 24 q 151 68 144 50 q 158 107 158 86 l 158 453 l 69 453 l 69 510 l 158 510 l 158 854 q 150 896 158 878 q 130 926 142 914 q 101 945 117 939 q 69 951 85 951 l 69 961 l 642 961 q 738 943 694 961 q 813 894 782 926 q 861 819 844 863 q 878 725 878 776 l 878 236 m 637 136 l 637 825 q 615 885 637 864 q 553 907 593 907 l 399 907 l 399 510 l 515 510 l 515 453 l 399 453 l 399 54 l 554 54 q 616 76 594 54 q 637 136 637 98 z "},"Ł":{"ha":843,"x_min":69,"x_max":815,"o":"m 806 -87 q 799 -55 806 -71 q 778 -26 791 -39 q 747 -7 765 -14 q 708 0 730 0 l 69 0 l 69 9 q 103 17 87 9 q 131 37 119 24 q 151 67 143 50 q 158 107 158 85 l 158 453 l 69 401 l 69 468 l 158 519 l 158 854 q 150 896 158 878 q 130 926 142 913 q 101 945 117 939 q 69 951 85 951 l 69 961 l 488 961 l 488 951 q 455 945 471 951 q 426 925 439 938 q 406 895 414 913 q 399 854 399 877 l 399 657 l 557 749 l 557 682 l 399 590 l 399 54 l 467 54 q 545 69 507 54 q 617 110 583 84 q 682 169 652 135 q 735 241 711 203 q 777 321 760 280 q 804 401 795 362 l 815 401 l 815 -87 l 806 -87 z "},"Þ":{"ha":878,"x_min":69,"x_max":850,"o":"m 850 510 q 726 490 791 509 q 600 434 661 471 q 487 341 539 396 q 399 212 434 286 l 399 107 q 406 67 399 85 q 426 37 414 50 q 454 17 438 24 q 488 9 471 9 l 488 0 l 69 0 l 69 9 q 102 16 86 9 q 131 36 118 23 q 151 67 143 49 q 158 107 158 85 l 158 854 q 150 896 158 878 q 130 926 142 914 q 101 945 117 939 q 69 951 85 951 l 69 961 l 399 961 l 399 838 l 614 838 q 710 820 667 838 q 785 771 754 802 q 833 696 816 739 q 850 602 850 652 l 850 510 m 618 635 l 618 701 q 594 763 618 743 q 534 783 570 783 l 399 783 l 399 325 q 433 369 412 347 q 479 414 455 391 q 528 461 503 437 q 573 513 553 486 q 605 571 593 541 q 618 635 618 601 z "},"ð":{"ha":1003,"x_min":69,"x_max":878,"o":"m 878 236 q 860 140 878 183 q 811 65 842 96 q 736 17 780 35 q 642 0 693 0 l 69 0 l 69 9 q 103 17 87 9 q 132 37 119 24 q 151 68 144 50 q 158 107 158 86 l 158 453 l 69 453 l 69 510 l 158 510 l 158 854 q 150 896 158 878 q 130 926 142 914 q 101 945 117 939 q 69 951 85 951 l 69 961 l 642 961 q 738 943 694 961 q 813 894 782 926 q 861 819 844 863 q 878 725 878 776 l 878 236 m 637 136 l 637 825 q 615 885 637 864 q 553 907 593 907 l 399 907 l 399 510 l 515 510 l 515 453 l 399 453 l 399 54 l 554 54 q 616 76 594 54 q 637 136 637 98 z "},"ł":{"ha":843,"x_min":69,"x_max":815,"o":"m 806 -87 q 799 -55 806 -71 q 778 -26 791 -39 q 747 -7 765 -14 q 708 0 730 0 l 69 0 l 69 9 q 103 17 87 9 q 131 37 119 24 q 151 67 143 50 q 158 107 158 85 l 158 453 l 69 401 l 69 468 l 158 519 l 158 854 q 150 896 158 878 q 130 926 142 913 q 101 945 117 939 q 69 951 85 951 l 69 961 l 488 961 l 488 951 q 455 945 471 951 q 426 925 439 938 q 406 895 414 913 q 399 854 399 877 l 399 657 l 557 749 l 557 682 l 399 590 l 399 54 l 467 54 q 545 69 507 54 q 617 110 583 84 q 682 169 652 135 q 735 241 711 203 q 777 321 760 280 q 804 401 795 362 l 815 401 l 815 -87 l 806 -87 z "},"þ":{"ha":878,"x_min":69,"x_max":850,"o":"m 850 510 q 726 490 791 509 q 600 434 661 471 q 487 341 539 396 q 399 212 434 286 l 399 107 q 406 67 399 85 q 426 37 414 50 q 454 17 438 24 q 488 9 471 9 l 488 0 l 69 0 l 69 9 q 102 16 86 9 q 131 36 118 23 q 151 67 143 49 q 158 107 158 85 l 158 854 q 150 896 158 878 q 130 926 142 914 q 101 945 117 939 q 69 951 85 951 l 69 961 l 399 961 l 399 838 l 614 838 q 710 820 667 838 q 785 771 754 802 q 833 696 816 739 q 850 602 850 652 l 850 510 m 618 635 l 618 701 q 594 763 618 743 q 534 783 570 783 l 399 783 l 399 325 q 433 369 412 347 q 479 414 455 391 q 528 461 503 437 q 573 513 553 486 q 605 571 593 541 q 618 635 618 601 z "},"@":{"ha":966,"x_min":35,"x_max":932,"o":"m 932 476 q 854 430 887 464 q 808 346 821 396 l 800 346 q 785 385 795 367 q 764 415 776 402 q 736 435 751 428 q 705 443 722 443 q 675 437 689 443 q 651 421 662 431 q 634 400 641 412 q 624 376 627 388 l 587 376 l 587 340 q 564 330 576 337 q 543 312 552 323 q 527 288 533 302 q 521 258 521 275 q 528 227 521 242 q 549 200 536 212 q 579 179 562 188 q 618 164 597 170 l 618 155 q 534 110 568 143 q 488 32 500 77 l 479 32 q 460 77 473 56 q 430 113 447 97 q 392 139 413 128 q 349 155 372 150 l 349 164 q 419 201 393 176 q 446 258 446 227 q 440 288 446 275 q 425 312 434 301 q 403 329 415 322 q 379 340 391 336 l 379 376 l 343 376 q 333 400 340 388 q 315 421 326 412 q 291 437 304 431 q 261 443 277 443 q 230 435 245 443 q 203 415 216 428 q 181 385 191 402 q 167 346 172 367 l 158 346 q 113 430 146 396 q 35 476 79 464 l 35 485 q 115 534 83 498 q 158 615 146 569 l 167 615 q 204 545 178 571 q 261 518 230 518 q 291 524 277 518 q 315 539 304 530 q 333 561 326 549 q 343 585 340 572 l 379 585 l 379 621 q 403 632 391 625 q 425 649 415 639 q 440 673 434 660 q 446 703 446 686 q 419 760 446 734 q 349 798 393 786 l 349 806 q 392 822 372 811 q 430 848 413 833 q 460 884 447 864 q 479 929 473 905 l 488 929 q 534 851 500 884 q 618 806 568 818 l 618 798 q 579 783 597 792 q 549 761 562 773 q 528 734 536 749 q 521 703 521 719 q 527 673 521 686 q 543 649 533 659 q 564 631 552 638 q 587 621 576 624 l 587 585 l 624 585 q 634 561 627 572 q 652 539 642 549 q 676 524 663 530 q 705 518 689 518 q 763 545 737 518 q 800 615 789 571 l 808 615 q 851 534 820 569 q 932 485 883 498 l 932 476 z "},"Ý":{"ha":983,"x_min":49,"x_max":935,"o":"m 935 633 q 846 615 891 631 q 759 577 802 600 q 678 526 716 554 q 611 471 640 498 l 611 107 q 618 67 611 85 q 638 37 626 50 q 667 17 651 24 q 700 9 683 9 l 700 0 l 283 0 l 283 9 q 316 17 300 9 q 345 37 332 24 q 365 67 357 50 q 372 107 372 85 l 372 471 q 291 537 334 507 q 206 587 248 566 q 123 620 163 608 q 49 633 83 632 l 49 644 q 81 651 65 644 q 109 671 96 659 q 130 702 122 684 q 138 741 138 720 l 138 854 q 130 896 138 878 q 109 926 122 913 q 81 945 96 939 q 49 951 65 951 l 49 961 l 464 961 l 464 951 q 432 945 448 951 q 404 926 416 939 q 383 896 391 913 q 375 854 375 878 l 375 545 q 405 519 389 534 q 436 490 420 505 q 466 457 452 474 q 492 422 480 439 q 547 489 515 458 q 608 545 579 521 l 608 854 q 601 896 608 878 q 580 926 593 913 q 551 945 567 939 q 519 951 536 951 l 519 961 l 935 961 l 935 951 q 903 945 919 951 q 874 926 887 939 q 854 896 862 914 q 846 854 846 878 l 846 741 q 853 702 846 720 q 874 671 861 684 q 903 651 887 659 q 935 644 918 644 l 935 633 m 614 1181 l 475 1025 l 387 1025 l 443 1193 l 614 1193 l 614 1181 z "},"Ž":{"ha":850,"x_min":97,"x_max":766,"o":"m 757 -87 q 750 -55 757 -71 q 730 -26 743 -39 q 699 -7 717 -14 q 660 0 682 0 l 97 0 l 97 11 l 433 907 l 379 907 q 296 886 338 907 q 220 833 255 866 q 159 759 184 801 q 122 675 133 718 l 111 675 l 111 1048 l 121 1048 q 128 1016 121 1031 q 148 987 135 1000 q 179 968 161 975 q 218 961 197 961 l 745 961 l 745 949 l 408 54 l 418 54 q 496 69 458 54 q 569 110 534 84 q 633 169 603 135 q 687 241 663 203 q 729 321 711 280 q 755 401 746 362 l 766 401 l 766 -87 l 757 -87 m 616 1193 l 522 1025 l 342 1025 l 248 1193 l 340 1193 l 432 1132 l 524 1193 l 616 1193 z "}}}
